<svg xmlns="http://www.w3.org/2000/svg"><symbol id="iconLogo" viewBox="0 0 76 40"><path fill-rule="evenodd" clip-rule="evenodd" d="M46.915 9.729L22.796 33.611h28.105L46.915 9.729zM36.786.009h18.82c2.13 0 3.612.264 4.465.802.86.528 1.384 1.286 1.589 2.265l5.068 27.53c.16.81.426 1.427.826 1.86.382.422 1.02.722 1.909.898.887.168 2.165.256 3.879.256h1.686l-1.686 3.534c-.506 1.136-1.27 1.885-2.317 2.273-1.021.38-2.717.564-5.042.564H4.572c-1.67 0-2.85-.106-3.542-.317C.346 39.462 0 39.092 0 38.546c0-.317.124-.705.364-1.155l1.793-3.771h2.406c1.571 0 2.876-.203 3.897-.617 1.003-.406 2.015-1.093 3-2.036L38.358 4.292c.719-.688 1.083-1.26 1.083-1.736 0-.794-1.128-1.278-3.4-1.454l.745-1.093z"/></symbol></svg>