<svg xmlns="http://www.w3.org/2000/svg"><symbol id="iconLogo" viewBox="0 0 252 40"><path d="M46.915 9.729L22.796 33.611h28.105L46.915 9.729zM36.786.009h18.82c2.13 0 3.612.264 4.465.802.86.528 1.384 1.286 1.589 2.265l5.068 27.53c.16.81.426 1.427.826 1.86.382.422 1.02.722 1.909.898.887.168 2.165.256 3.879.256h1.686l-1.686 3.534c-.506 1.136-1.27 1.885-2.317 2.273-1.021.38-2.717.564-5.042.564H4.572c-1.67 0-2.85-.106-3.542-.317C.346 39.462 0 39.092 0 38.546c0-.317.124-.705.364-1.155l1.793-3.771h2.406c1.571 0 2.876-.203 3.897-.617 1.003-.406 2.015-1.093 3-2.036L38.358 4.292c.719-.688 1.083-1.26 1.083-1.736 0-.794-1.128-1.278-3.4-1.454l.745-1.093zm95.889 20.788l-7.191 8.24h7.457l-.266-8.24zm9.232 19.185h-6.001c-1.731 0-2.628-.678-2.699-2.035l-.159-4.68h-11.132l-3.302 3.842c-.462.511-.702.943-.702 1.305 0 .52.488.802 1.474.846l-.266.731h-7.04c-1.136 0-1.704-.264-1.704-.802 0-.308.168-.652.488-1.04l18.668-21.723c.4-.475.604-.872.604-1.19 0-.528-.479-.89-1.42-1.074l.266-.679h7.847c.897 0 1.571.176 2.051.52.479.344.719.793.719 1.357l.763 22.075c.027.679.142 1.137.346 1.358.205.22.675.387 1.412.476l-.213.713zm-39.334-15.924l-16.84 13.087-.115.343a1.702 1.702 0 00-.115.644c0 .67.453 1.04 1.385 1.119l-.231.731h-6.49c-1.428 0-2.139-.537-2.139-1.612 0-.335.036-.59.107-.767l7.306-21.644c.07-.185.115-.414.115-.696 0-.626-.444-.996-1.314-1.075l.222-.723h6.49c1.393 0 2.085.52 2.085 1.578 0 .22-.053.493-.168.802L88.37 29.31l16.804-12.928.097-.423c.071-.185.107-.414.107-.696 0-.626-.435-.996-1.305-1.075l.213-.723h6.48c1.403 0 2.095.52 2.095 1.578 0 .22-.053.493-.16.802l-7.243 21.643a1.704 1.704 0 00-.116.644c0 .67.462 1.03 1.376 1.119l-.222.731h-6.48c-1.429 0-2.148-.537-2.148-1.612 0-.335.036-.59.116-.767l4.589-13.545zm139.919-10.593h7.181c1.216 0 1.829.282 1.829.846 0 .265-.204.582-.613.952l-11.85 10.399 6.427 12.787c.23.317.444.52.657.634.204.115.594.177 1.145.177l-.213.731h-6.596c-.684 0-1.198-.106-1.553-.317-.347-.212-.657-.582-.915-1.11l-3.95-8.478-8.939 7.71c-.4.31-.604.582-.604.803 0 .352.48.573 1.438.643l-.284.731h-6.977c-1.172 0-1.758-.308-1.758-.925 0-.352.258-.775.764-1.26l13.839-11.976-5.282-9.826c-.337-.67-.657-1.128-.932-1.357-.275-.238-.746-.38-1.429-.459l.231-.722h6.196c.896 0 1.562.114 1.988.343.426.22.764.582.994 1.076l3.276 6.759 6.303-5.72c.417-.37.612-.705.612-1.004 0-.405-.399-.643-1.216-.732l.231-.705zm-45.575 0h22.184l-.657 2.186c-.213.775-.577 1.313-1.083 1.604-.506.29-1.331.432-2.485.432H204.72l-1.908 5.71h11.629l-.657 2.186c-.213.775-.577 1.304-1.074 1.595-.515.3-1.35.44-2.486.44h-5.77c-1.065 0-1.873.133-2.432.38-.56.255-.977.748-1.243 1.506l-2.131 6.248h10.475c1.083 0 1.864-.08 2.353-.22.497-.159.967-.476 1.438-.97h1.038l-1.207 3.57c-.204.687-.577 1.163-1.11 1.436-.532.273-1.304.414-2.308.414h-16.688c-.684 0-1.216-.15-1.58-.44a1.43 1.43 0 01-.56-1.172c0-.335.036-.59.116-.767l7.288-21.644c.08-.176.124-.405.124-.687 0-.635-.444-.996-1.332-1.084l.222-.723zm-21.517 0h7.998c1.873 0 2.805.758 2.805 2.256v22.296c0 .423.106.714.328.881.222.159.657.273 1.314.353l-.284.731h-6.525c-1.313 0-1.979-.555-1.979-1.648v-15.65L168.36 39.99h-3.959c-.781 0-1.358-.053-1.722-.15-.373-.105-.657-.29-.826-.581-.177-.282-.319-.758-.417-1.41l-2.086-14.435-7.199 14.038c-.249.538-.373.89-.373 1.066 0 .423.426.67 1.26.74l-.284.732h-6.143c-1.003 0-1.491-.255-1.491-.767 0-.238.071-.493.213-.766l11.594-22.146c.186-.423.275-.758.275-1.005 0-.564-.488-.943-1.474-1.11l.213-.723h6.214c1.048 0 1.767.159 2.166.458.408.3.657.776.755 1.42l2.361 15.888 8.948-14.928c.213-.38.319-.714.319-1.005 0-.581-.505-.96-1.526-1.11l.222-.732z" fill-rule="evenodd" clip-rule="evenodd" fill="#fff"/></symbol><symbol id="iconLogoD" viewBox="0 0 76 40"><path fill-rule="evenodd" clip-rule="evenodd" d="M46.915 9.729L22.796 33.611h28.105L46.915 9.729zM36.786.009h18.82c2.13 0 3.612.264 4.465.802.86.528 1.384 1.286 1.589 2.265l5.068 27.53c.16.81.426 1.427.826 1.86.382.422 1.02.722 1.909.898.887.168 2.165.256 3.879.256h1.686l-1.686 3.534c-.506 1.136-1.27 1.885-2.317 2.273-1.021.38-2.717.564-5.042.564H4.572c-1.67 0-2.85-.106-3.542-.317C.346 39.462 0 39.092 0 38.546c0-.317.124-.705.364-1.155l1.793-3.771h2.406c1.571 0 2.876-.203 3.897-.617 1.003-.406 2.015-1.093 3-2.036L38.358 4.292c.719-.688 1.083-1.26 1.083-1.736 0-.794-1.128-1.278-3.4-1.454l.745-1.093z"/></symbol><symbol id="iconLogoIA" viewBox="0 0 65 27"><path fill-rule="evenodd" clip-rule="evenodd" d="M54.674 7.798l-7.19 8.24h7.456l-.266-8.24zm9.232 19.185h-6c-1.732 0-2.629-.679-2.7-2.036l-.159-4.68H43.915l-3.302 3.843c-.462.51-.702.943-.702 1.304 0 .52.488.802 1.474.846l-.266.731h-7.04c-1.136 0-1.704-.264-1.704-.801 0-.309.168-.653.488-1.04L51.531 3.427c.4-.476.604-.873.604-1.19 0-.529-.479-.89-1.42-1.075l.266-.678h7.847c.897 0 1.571.176 2.051.52.48.343.72.793.72 1.357l.762 22.075c.027.678.142 1.137.346 1.357.205.22.675.388 1.412.476l-.213.714zM24.572 11.058L7.732 24.145l-.115.344a1.702 1.702 0 00-.115.643c0 .67.453 1.04 1.385 1.12l-.231.73h-6.49c-1.428 0-2.139-.537-2.139-1.612 0-.335.036-.59.107-.767L7.44 2.96c.07-.185.115-.414.115-.696 0-.626-.444-.996-1.314-1.075l.222-.723h6.49c1.393 0 2.085.52 2.085 1.577 0 .22-.053.494-.168.802l-4.501 13.466L27.173 3.383l.097-.423c.071-.185.107-.414.107-.696 0-.626-.435-.996-1.305-1.075l.213-.723h6.48c1.403 0 2.095.52 2.095 1.577 0 .22-.053.494-.16.802L27.457 24.49a1.704 1.704 0 00-.116.643c0 .67.462 1.031 1.376 1.12l-.222.73h-6.48c-1.429 0-2.148-.537-2.148-1.612 0-.335.036-.59.116-.767l4.59-13.545z"/></symbol><symbol id="iconLogoMEX" viewBox="0 0 107 27"><path fill-rule="evenodd" clip-rule="evenodd" d="M97.493.466h7.181c1.216 0 1.829.282 1.829.846 0 .264-.204.581-.613.952L94.04 12.662l6.427 12.787c.23.317.444.52.657.635.204.114.594.176 1.145.176l-.213.731H95.46c-.684 0-1.198-.105-1.553-.317-.347-.211-.657-.581-.915-1.11l-3.95-8.478-8.939 7.711c-.4.309-.604.582-.604.802 0 .353.48.573 1.438.643l-.284.732h-6.977c-1.172 0-1.758-.309-1.758-.925 0-.353.258-.776.764-1.26l13.84-11.977-5.283-9.826c-.337-.67-.657-1.128-.932-1.357-.275-.238-.746-.379-1.429-.458l.231-.723h6.196c.896 0 1.562.115 1.988.344.426.22.764.582.994 1.075l3.276 6.76 6.303-5.72c.417-.37.612-.705.612-1.005 0-.405-.399-.643-1.216-.731l.231-.705zm-45.575 0h22.184l-.657 2.185c-.213.776-.577 1.313-1.083 1.604-.506.291-1.33.432-2.485.432H59.721l-1.908 5.71h11.63l-.658 2.186c-.213.775-.577 1.304-1.074 1.595-.515.3-1.35.44-2.486.44h-5.77c-1.065 0-1.873.133-2.432.38-.56.255-.977.749-1.243 1.507l-2.13 6.248h10.474c1.083 0 1.864-.08 2.353-.22.497-.16.967-.477 1.438-.97h1.038l-1.207 3.569c-.204.687-.577 1.163-1.11 1.436-.532.274-1.304.415-2.308.415H47.64c-.684 0-1.216-.15-1.58-.441-.373-.3-.56-.687-.56-1.172 0-.335.036-.59.116-.767L52.904 2.96c.08-.176.124-.406.124-.688 0-.634-.444-.995-1.332-1.083l.222-.723zm-21.517 0H38.4c1.873 0 2.805.758 2.805 2.256v22.295c0 .424.106.714.328.882.222.158.657.273 1.314.352l-.284.732h-6.525c-1.313 0-1.979-.556-1.979-1.648V9.684L23.361 26.99h-3.959c-.78 0-1.358-.052-1.722-.15-.373-.105-.657-.29-.826-.581-.177-.282-.319-.758-.417-1.41l-2.086-14.435-7.199 14.038c-.249.538-.373.89-.373 1.067 0 .423.426.67 1.26.74l-.284.731H1.612c-1.003 0-1.49-.255-1.49-.766 0-.238.07-.494.212-.767L11.928 3.312c.186-.423.275-.758.275-1.004 0-.564-.488-.943-1.474-1.11l.213-.723h6.214c1.048 0 1.767.158 2.166.458.408.3.657.775.755 1.419l2.361 15.889 8.948-14.929c.213-.379.32-.714.32-1.004 0-.582-.506-.96-1.527-1.11l.222-.732z"/></symbol><symbol id="iconPerson" viewBox="0 0 19 23"><path d="M9.56 10.614a5.361 5.361 0 003.776-1.551A5.275 5.275 0 0014.9 5.318a5.275 5.275 0 00-1.564-3.745A5.361 5.361 0 009.561.02a5.361 5.361 0 00-3.776 1.552 5.275 5.275 0 00-1.564 3.745c0 1.404.563 2.752 1.564 3.745a5.361 5.361 0 003.776 1.551zM.937 15.503c0-.864.346-1.693.962-2.305a3.3 3.3 0 012.323-.954H14.9a3.3 3.3 0 012.323.954c.616.612.963 1.44.963 2.305 0 0 0 6.518-8.625 6.518S.936 15.503.936 15.503z"/></symbol><symbol id="iconLanguage" viewBox="0 0 21 22"><path d="M10.5 21.834a9.741 9.741 0 01-4.036-.854 10.571 10.571 0 01-3.32-2.33 11.027 11.027 0 01-2.24-3.452A10.824 10.824 0 01.084 11c0-1.498.274-2.902.82-4.212a11.054 11.054 0 012.24-3.438 10.54 10.54 0 013.32-2.33A9.762 9.762 0 0110.5.168c1.44 0 2.79.285 4.05.854a10.588 10.588 0 013.306 2.329c.946.983 1.693 2.13 2.24 3.44.546 1.309.82 2.712.82 4.21 0 1.48-.273 2.88-.82 4.198a11.041 11.041 0 01-2.24 3.454 10.6 10.6 0 01-3.307 2.33 9.703 9.703 0 01-4.05.852zm0-2.221c.452-.65.843-1.327 1.172-2.031.33-.705.6-1.454.808-2.248H8.52a13.236 13.236 0 001.98 4.278zm-2.708-.433a15.34 15.34 0 01-.82-1.856 16.246 16.246 0 01-.586-1.99H3.313a8.913 8.913 0 001.889 2.356 7.424 7.424 0 002.59 1.49zm5.417 0a7.423 7.423 0 002.592-1.49 8.897 8.897 0 001.887-2.356h-3.073c-.156.686-.351 1.35-.585 1.99-.234.642-.508 1.26-.821 1.855zM2.428 13.167h3.541A14.341 14.341 0 015.813 11a14.662 14.662 0 01.156-2.166H2.428a9.68 9.68 0 00-.196 1.07A8.765 8.765 0 002.167 11c0 .38.022.745.066 1.097.044.351.109.708.195 1.07zm5.625 0h4.896A14.332 14.332 0 0013.105 11a14.656 14.656 0 00-.156-2.166H8.053A14.334 14.334 0 007.897 11a14.664 14.664 0 00.156 2.166zm6.979 0h3.542c.086-.361.152-.718.195-1.07.044-.353.066-.718.065-1.097a8.83 8.83 0 00-.066-1.096 9.917 9.917 0 00-.194-1.07h-3.542A14.38 14.38 0 0115.188 11a14.659 14.659 0 01-.156 2.166zm-.417-6.5h3.073a8.925 8.925 0 00-1.887-2.356 7.411 7.411 0 00-2.592-1.49c.313.596.586 1.215.82 1.856.236.641.43 1.305.586 1.99zm-6.094 0h3.959a13.143 13.143 0 00-.808-2.248c-.33-.704-.72-1.381-1.171-2.031a13.84 13.84 0 00-1.172 2.031c-.33.704-.6 1.454-.808 2.248zm-5.208 0h3.073c.156-.686.352-1.35.587-1.991.234-.642.508-1.26.82-1.855A7.423 7.423 0 005.2 4.311a8.895 8.895 0 00-1.888 2.356z"/></symbol><symbol id="iconArrowLink" viewBox="0 0 28 24"><path d="M25.666 12l-10-10m10 10l-10 10m10-10H2.333" stroke-width="3.333" stroke-linecap="round" stroke-linejoin="round"/></symbol><symbol id="iconMachine" viewBox="0 0 20 23"><path d="M1.55.6a.65.65 0 00-.65.65V4.5a2.6 2.6 0 002.6 2.6h13a2.6 2.6 0 002.6-2.6V1.25a.65.65 0 00-.65-.65H1.55zm9.1 10.4h5.2a1.95 1.95 0 001.95-1.95V8.4H2.2v.65A1.95 1.95 0 004.15 11h5.2v3.25a.65.65 0 101.3 0V11zM3.5 16.85a.65.65 0 01.65-.65H6.1a.65.65 0 010 1.3H4.15a.65.65 0 01-.65-.65zm10.4-.65a.65.65 0 000 1.3h1.95a.65.65 0 000-1.3H13.9zm-3.25.65a.65.65 0 11-1.3 0 .65.65 0 011.3 0zm0 2.6a.65.65 0 00-1.3 0v2.6a.65.65 0 101.3 0v-2.6zm-2.14-1.76a.65.65 0 010 .92l-1.95 1.95a.65.65 0 11-.92-.92l1.95-1.95a.65.65 0 01.92 0zm2.98.92a.65.65 0 11.92-.92l1.95 1.95a.651.651 0 01-.92.92l-1.95-1.95z"/></symbol><symbol id="iconPlay" viewBox="0 0 40 40"><path d="M5.86 34.155a20 20 0 1127.787-28.77A20 20 0 015.86 34.154zm25.46-2.82A16.01 16.01 0 108.679 8.695a16.01 16.01 0 0022.64 22.64zM14 12.015l16 8-16 8v-16z"/></symbol><symbol id="iconArrow" viewBox="0 0 20 12"><path d="M18.333 1.667L9.999 10 1.666 1.667" stroke-width="3.333" stroke-linecap="round" stroke-linejoin="round"/></symbol><symbol id="iconEducation" viewBox="0 0 26 22"><path d="M3.616 12.483v3.543c0 .92.497 1.778 1.293 2.22l6.218 3.442a2.44 2.44 0 002.387 0l6.218-3.442a2.542 2.542 0 001.294-2.22v-3.543l-7.511 4.161a2.44 2.44 0 01-2.388 0l-7.511-4.16zm7.51-12.18L.645 6.103c-.859.479-.859 1.74 0 2.22l10.483 5.8a2.44 2.44 0 002.387 0l9.999-5.536v7.452c0 .694.56 1.26 1.243 1.26.684 0 1.244-.566 1.244-1.26V7.956a1.27 1.27 0 00-.647-1.11L13.514.304a2.509 2.509 0 00-2.387 0z"/></symbol><symbol id="iconSystem" viewBox="0 0 18 21"><path d="M9 14.25c-4.788 0-8.666 1.939-8.666 4.333v2.166h17.333v-2.166c0-2.394-3.878-4.334-8.666-4.334zm-4.333-6.5a4.333 4.333 0 008.667 0M8.459.165a.518.518 0 00-.542.542v3.25H6.834V1.249s-2.438.932-2.438 4.063c0 0-.812.152-.812 1.354h10.833c-.054-1.202-.812-1.354-.812-1.354 0-3.131-2.438-4.063-2.438-4.063v2.709h-1.083V.708c0-.314-.206-.542-.542-.542H8.46z"/></symbol><symbol id="iconServices" viewBox="0 0 20 18"><path d="M19.694 16.202l-3.814-3.848c.372-.938.186-2.158-.651-2.908a2.698 2.698 0 00-3.07-.563l1.767 1.783-1.302 1.313-1.861-1.877c-.465 1.033-.28 2.252.558 3.19.838.845 1.954 1.033 2.884.658l3.815 3.847c.186.187.465.187.558 0l.93-.939c.28-.281.28-.563.186-.656zm-9.21-1.126H.25v-1.877c0-2.064 3.35-3.753 7.443-3.753.465 0 .93 0 1.302.094-.279.563-.372 1.126-.372 1.782a4.77 4.77 0 001.86 3.754zM7.693.062c-2.047 0-3.722 1.69-3.722 3.754s1.675 3.753 3.722 3.753c2.047 0 3.721-1.689 3.721-3.753C11.414 1.75 9.74.063 7.693.063z"/></symbol><symbol id="iconVibration" viewBox="0 0 22 22"><path d="M21.833.166v2.167c-1.885 0-3.25 4.961-4.377 8.959-1.506 5.417-2.925 10.54-6.457 10.54-3.531 0-4.95-5.123-6.456-10.54C3.416 7.294 2.05 2.332.166 2.332V.167c3.532 0 4.95 5.124 6.457 10.54 1.126 3.998 2.491 8.96 4.376 8.96 1.885 0 3.25-4.962 4.377-8.96C16.882 5.29 18.301.167 21.833.167z"/></symbol><symbol id="iconIndustry" viewBox="0 0 22 20"><path d="M4.524 1.941A1.638 1.638 0 016.16.25h5.381a1.63 1.63 0 011.631 1.599c.038 1.915.29 8.742 1.929 15.734h1.083c-1.04-4.446-1.522-8.824-1.744-11.916h1.363c.981 0 1.684.837 1.657 1.728-.037 1.257.065 4.803 1.893 10.188h1.396a1.084 1.084 0 010 2.167H1.25a1.083 1.083 0 110-2.167h1.362c2.01-6.916 1.975-13.688 1.913-15.642z"/></symbol><symbol id="iconCompany" viewBox="0 0 22 21"><path d="M1.25 18.583h1.083V4.89a1.625 1.625 0 011.111-1.542L12.111.46a1.625 1.625 0 012.138 1.542v16.581h1.084v-9.76a.54.54 0 01.647-.531l2.38.476a1.625 1.625 0 011.306 1.593v8.222h1.083a1.083 1.083 0 110 2.167H1.25a1.084 1.084 0 010-2.167z" stroke-width="0"/></symbol><symbol id="iconArticles" viewBox="0 0 20 21"><path d="M14.333.25a2.167 2.167 0 012.162 2.004l.005.163v5.416h1.625a1.625 1.625 0 011.617 1.47l.008.155v8.125a3.25 3.25 0 01-3.06 3.245l-.19.005H2.417A2.166 2.166 0 01.255 18.83l-.005-.162V2.417A2.167 2.167 0 012.254.255L2.417.25h11.916zm3.25 9.75H16.5v8.667a1.083 1.083 0 001.083-1.084V10zm-8.666 1.083h-3.25a1.084 1.084 0 00-.127 2.16l.127.007h3.25a1.083 1.083 0 00.126-2.16l-.126-.007zm2.166-5.416H5.667a1.083 1.083 0 100 2.166h5.416a1.083 1.083 0 100-2.166z" stroke-width="0"/></symbol><symbol id="iconContacts" viewBox="0 0 22 22"><path fill-rule="evenodd" clip-rule="evenodd" d="M15.931 21.977c-1.56-.057-5.98-.668-10.611-5.297C.69 12.05.081 7.63.023 6.068-.064 3.69 1.758 1.378 3.863.476a1.592 1.592 0 011.565.172c1.734 1.264 2.93 3.175 3.957 4.677a1.63 1.63 0 01-.278 2.152l-2.113 1.57a.52.52 0 00-.154.667c.479.87 1.33 2.165 2.305 3.14.976.975 2.333 1.883 3.263 2.416a.523.523 0 00.698-.175L14.482 13a1.628 1.628 0 012.227-.36c1.524 1.055 3.303 2.23 4.605 3.898a1.592 1.592 0 01.205 1.608c-.907 2.116-3.201 3.918-5.588 3.83z" stroke-width="0"/></symbol><symbol id="iconDealer" viewBox="0 0 26 20"><path d="M18.2 10c-2.515 0-4.55-2.153-4.55-4.813 0-2.66 2.035-4.812 4.55-4.812 2.515 0 4.55 2.153 4.55 4.813 0 2.66-2.035 4.812-4.55 4.812zm-3.12 1.375h.337c.845.43 1.784.688 2.783.688 1 0 1.934-.258 2.783-.688h.337c2.584 0 4.68 2.217 4.68 4.95v1.238c0 1.138-.873 2.062-1.95 2.062h-11.7c-1.077 0-1.95-.924-1.95-2.063v-1.237c0-2.733 2.096-4.95 4.68-4.95zM6.5 10c-2.153 0-3.9-1.848-3.9-4.125S4.347 1.75 6.5 1.75c2.153 0 3.9 1.848 3.9 4.125S8.653 10 6.5 10zm-1.95 1.375h.154c.565.206 1.162.344 1.796.344.634 0 1.23-.138 1.796-.344h.154c.829 0 1.593.254 2.263.662A6.487 6.487 0 009.1 16.325v1.65c0 .095.02.185.024.275H1.95C.873 18.25 0 17.326 0 16.187c0-2.66 2.035-4.812 4.55-4.812z"/></symbol><symbol id="iconBearings" viewBox="0 0 84 84"><path d="M42 68.25c14.498 0 26.25-11.752 26.25-26.25 0-14.497-11.752-26.25-26.25-26.25-14.497 0-26.25 11.753-26.25 26.25 0 14.498 11.753 26.25 26.25 26.25z"/><path d="M42 78.75A36.75 36.75 0 1178.75 42 36.792 36.792 0 0142 78.75zm0-68.25A31.5 31.5 0 1073.5 42 31.537 31.537 0 0042 10.5z"/></symbol><symbol id="iconAdvice" viewBox="0 0 51 65"><rect x="20.5" y="8" width="10" height="57" rx="5"/><rect x=".5" y="18.2" width="10" height="46.8" rx="5"/><rect x="40.5" width="10" height="64" rx="5"/></symbol><symbol id="iconHelp" viewBox="0 0 81 72"><path d="M48.398 29.714a3.707 3.707 0 00-2.633-1.099c-.987 0-1.934.395-2.632 1.099l-2.632 2.654a7.415 7.415 0 01-5.266 2.198 7.415 7.415 0 01-5.265-2.2 7.54 7.54 0 01-2.18-5.309c0-1.991.785-3.9 2.182-5.308L50.932.608a24.017 24.017 0 0114.839 1.338 24.26 24.26 0 0111.249 9.847 24.56 24.56 0 01-2.345 28.484l-7.848 8.014-18.43-18.577zM7.593 7.154A24.133 24.133 0 0121.895.171a24.052 24.052 0 0115.516 3.462L24.704 16.441a15.075 15.075 0 00-4.416 10.446 15.083 15.083 0 004.101 10.576 14.838 14.838 0 0010.272 4.656 14.821 14.821 0 0010.568-3.925l.536-.518 15.797 15.927-15.797 15.923a7.415 7.415 0 01-5.264 2.198 7.416 7.416 0 01-5.264-2.198L7.588 41.658a24.413 24.413 0 01-5.247-7.916 24.574 24.574 0 010-18.675c1.217-2.961 3-5.65 5.247-7.917l.004.004z"/></symbol><symbol id="iconChart" viewBox="0 0 167 168"><path d="M83.333 134c13.89 0 25.695-4.861 35.417-14.583 9.722-9.722 14.583-21.528 14.583-35.417 0-13.889-4.861-25.694-14.583-35.416C109.028 38.86 97.222 34 83.333 34v50l-35.416 35.417c4.86 4.583 10.314 8.161 16.358 10.733 6.044 2.573 12.397 3.856 19.058 3.85zm0 33.334c-11.528 0-22.36-2.189-32.5-6.567-10.139-4.378-18.958-10.314-26.458-17.808-7.5-7.5-13.436-16.32-17.808-26.459C2.194 106.361.006 95.528 0 84c0-11.528 2.189-22.36 6.567-32.5 4.377-10.139 10.314-18.958 17.808-26.458 7.5-7.5 16.32-13.436 26.458-17.808C60.973 2.86 71.805.673 83.333.667c11.528 0 22.361 2.189 32.5 6.567 10.139 4.377 18.959 10.313 26.459 17.808 7.5 7.5 13.439 16.32 17.816 26.458 4.378 10.14 6.564 20.972 6.559 32.5 0 11.528-2.189 22.361-6.567 32.5s-10.314 18.959-17.808 26.459c-7.5 7.5-16.32 13.439-26.459 17.816-10.139 4.378-20.972 6.564-32.5 6.559zm0-16.667c18.611 0 34.375-6.458 47.292-19.375C143.542 118.375 150 102.611 150 84c0-18.61-6.458-34.375-19.375-47.291-12.917-12.917-28.681-19.375-47.292-19.375-18.61 0-34.375 6.458-47.291 19.375C23.125 49.625 16.667 65.389 16.667 84c0 18.611 6.458 34.375 19.375 47.292 12.916 12.917 28.68 19.375 47.291 19.375z"/></symbol><symbol id="iconFactor" viewBox="0 0 168 168"><path d="M100.666 67.334V54.667c0-5.917-5.917-9.917-11.417-7.75L59 59v-4c0-6-6.083-10.083-11.583-7.666L10.749 63C4.666 65.667.666 71.667.666 78.334v72.333c0 9.167 7.5 16.667 16.667 16.667h133.333c9.167 0 16.667-7.5 16.667-16.667V67.334h-66.667zm-41.667 58.333c0 4.583-3.75 8.333-8.333 8.333s-8.333-3.75-8.333-8.333V109c0-4.583 3.75-8.333 8.333-8.333s8.333 3.75 8.333 8.333v16.667zm33.334 0c0 4.583-3.75 8.333-8.334 8.333-4.583 0-8.333-3.75-8.333-8.333V109c0-4.583 3.75-8.333 8.333-8.333 4.584 0 8.334 3.75 8.334 8.333v16.667zm33.333 0c0 4.583-3.75 8.333-8.333 8.333-4.584 0-8.334-3.75-8.334-8.333V109c0-4.583 3.75-8.333 8.334-8.333 4.583 0 8.333 3.75 8.333 8.333v16.667zm26-125h-10.25A8.296 8.296 0 00133.166 8l-5.833 46.834h38.333L159.916 8c-.5-4.166-4.083-7.333-8.25-7.333z"/></symbol><symbol id="iconDetail" viewBox="0 0 151 200"><path d="M38.168 100V50h75v50h-75z"/><path d="M25.668 0a25 25 0 00-25 25v150a25.003 25.003 0 0025 25h100c6.63 0 12.989-2.634 17.678-7.322A25.004 25.004 0 00150.668 175V25a25.001 25.001 0 00-25-25h-100zm0 18.75a6.25 6.25 0 11-12.5 0 6.25 6.25 0 0112.5 0zm112.5 0a6.25 6.25 0 11-12.502-.002 6.25 6.25 0 0112.502.002zM19.418 137.5a6.247 6.247 0 006.25-6.25 6.248 6.248 0 00-6.25-6.25 6.247 6.247 0 00-6.25 6.25 6.248 6.248 0 006.25 6.25zm118.75-6.25a6.249 6.249 0 11-12.498 0 6.249 6.249 0 0112.498 0zM35.043 37.5h81.25a9.375 9.375 0 019.375 9.375v56.25a9.376 9.376 0 01-9.375 9.375h-81.25a9.376 9.376 0 01-9.375-9.375v-56.25a9.375 9.375 0 019.375-9.375zM38.168 150h75a12.501 12.501 0 0112.5 12.5v25h-12.5v-25h-9.375v25h-12.5v-25h-9.375v25h-12.5v-25h-9.375v25h-12.5v-25h-9.375v25h-12.5v-25a12.5 12.5 0 0112.5-12.5z"/></symbol><symbol id="iconTG" viewBox="0 0 30 30"><path d="M15 .004c-8.28 0-15 6.72-15 15 0 8.28 6.72 15 15 15 8.28 0 15-6.72 15-15 0-8.28-6.72-15-15-15zm6.96 10.2c-.225 2.37-1.2 8.13-1.695 10.785-.21 1.125-.63 1.5-1.02 1.545-.87.075-1.53-.57-2.37-1.125-1.32-.87-2.07-1.41-3.345-2.25-1.485-.975-.525-1.515.33-2.385.225-.225 4.065-3.72 4.14-4.035a.301.301 0 00-.075-.27c-.09-.075-.21-.045-.315-.03-.135.03-2.235 1.425-6.33 4.185-.6.405-1.14.615-1.62.6-.54-.015-1.56-.3-2.325-.555-.945-.3-1.68-.465-1.62-.99.03-.27.405-.54 1.11-.825 4.38-1.905 7.29-3.165 8.745-3.765 4.17-1.74 5.025-2.04 5.595-2.04.12 0 .405.03.585.18.15.12.195.285.21.405-.015.09.015.36 0 .57z"/></symbol><symbol id="iconYT" viewBox="0 0 30 22"><path d="M12 15.504l7.785-4.5L12 6.504v9zM29.34 3.759c.195.705.33 1.65.42 2.85.105 1.2.15 2.235.15 3.135l.09 1.26c0 3.285-.24 5.7-.66 7.245-.375 1.35-1.245 2.22-2.595 2.595-.705.195-1.995.33-3.975.42-1.95.105-3.735.15-5.385.15l-2.385.09c-6.285 0-10.2-.24-11.745-.66-1.35-.375-2.22-1.245-2.595-2.595-.195-.705-.33-1.65-.42-2.85a36.09 36.09 0 01-.15-3.135L0 11.004c0-3.285.24-5.7.66-7.245.375-1.35 1.245-2.22 2.595-2.595C3.96.969 5.25.834 7.23.744c1.95-.105 3.735-.15 5.385-.15L15 .504c6.285 0 10.2.24 11.745.66 1.35.375 2.22 1.245 2.595 2.595z"/></symbol><symbol id="iconMedal" viewBox="0 0 110 179"><path d="M74.967 106.16l9.07.928V179l-25.055-26.058v-41.457l7.277 3.462 8.708-8.787zm-39.934 0l-9.075.928V179l25.055-26.058v-41.457l-7.277 3.462-8.703-8.787zm68.712-45.053l2.935 9.951-8.811 5.787-.738 10.34-10.312 2.5-4.316 9.46-10.572-1.087-7.381 7.427-9.55-4.543-9.55 4.543-7.381-7.451-10.572 1.087-4.316-9.46-10.312-2.477-.738-10.325-8.836-5.806 2.935-9.951L0 52.719l6.25-8.375-2.955-9.931 8.816-5.787.738-10.325 10.332-2.476 4.316-9.46L38.07 7.45 45.45 0 55 4.544 64.55 0l7.381 7.451 10.572-1.087 4.316 9.461 10.312 2.5.738 10.326 8.811 5.786-2.935 9.952 6.255 8.33-6.255 8.388zm-19.663-8.388a27.59 27.59 0 00-4.864-15.618c-3.172-4.623-7.68-8.226-12.953-10.354a29.58 29.58 0 00-16.677-1.6c-5.598 1.085-10.741 3.762-14.778 7.694-4.036 3.931-6.785 8.94-7.9 14.393a27.432 27.432 0 001.643 16.242c2.185 5.137 5.884 9.528 10.63 12.617A29.414 29.414 0 0055.22 80.83c7.652-.011 14.986-2.977 20.396-8.246 5.41-5.27 8.455-12.413 8.467-19.865zM55.22 32.374c-4.131 0-8.17 1.193-11.605 3.428-3.435 2.236-6.112 5.413-7.693 9.13a19.854 19.854 0 00-1.189 11.755 20.187 20.187 0 005.717 10.417 21.067 21.067 0 0010.695 5.568c4.052.785 8.252.382 12.069-1.158 3.816-1.54 7.079-4.147 9.374-7.493a19.97 19.97 0 003.52-11.302c-.015-5.39-2.221-10.554-6.136-14.364-3.914-3.81-9.218-5.955-14.752-5.966v-.015z"/></symbol><symbol id="iconDownload" viewBox="0 0 22 22"><path d="M20 14v4a2 2 0 01-2 2H4a2 2 0 01-2-2v-4m4-5l5 5m0 0l5-5m-5 5V2" stroke-width="3" stroke-linecap="round" stroke-linejoin="round"/></symbol><symbol id="iconShare" viewBox="0 0 19 22"><g stroke-width="3"><path d="M7 11a2.5 2.5 0 11-5 0 2.5 2.5 0 015 0z"/><path d="M12 5.5L7 9m5 7.5L7 13" stroke-linecap="round"/><path d="M17 17.5a2.5 2.5 0 11-5 0 2.5 2.5 0 015 0zm0-13a2.5 2.5 0 11-5 0 2.5 2.5 0 015 0z"/></g></symbol><symbol id="iconDate" viewBox="0 0 18 20"><path d="M16.5 2h-3V.5H12V2H6V.5H4.5V2h-3C.675 2 0 2.675 0 3.5v15c0 .825.675 1.5 1.5 1.5h15c.825 0 1.5-.675 1.5-1.5v-15c0-.825-.675-1.5-1.5-1.5zm0 16.5h-15V8h15v10.5zm0-12h-15v-3h3V5H6V3.5h6V5h1.5V3.5h3v3z"/></symbol><symbol id="iconLocation" viewBox="0 0 18 24"><path d="M15.249 13.41c-.786 1.593-1.851 3.18-2.94 4.605A47.26 47.26 0 019 21.87a47.23 47.23 0 01-3.309-3.855c-1.089-1.425-2.154-3.012-2.94-4.605C1.956 11.8 1.5 10.293 1.5 9a7.5 7.5 0 0115 0c0 1.293-.457 2.8-1.251 4.41zM9 24s9-8.529 9-15A9 9 0 100 9c0 6.471 9 15 9 15z"/><path d="M9 12a3 3 0 110-6 3 3 0 010 6zm0 1.5a4.5 4.5 0 100-9 4.5 4.5 0 000 9z"/></symbol><symbol id="iconVibrationInstruments" fill="none" viewBox="0 0 28 26"><path d="M26 13h-2.667c-1.192 0-2.216-1.143-2.348-2.667-.394-4.6-.998-8-3.665-8S13.987 7.109 13.987 13c0 5.89-.667 10.666-3.334 10.666-2.666 0-3.269-3.396-3.665-8C6.855 14.137 5.832 13 4.638 13H1.97" stroke-width="3" stroke-linecap="round" stroke-linejoin="round"/></symbol><symbol id="iconVibrationControl" viewBox="0 0 20 20"><g fill="#fff"><rect x=".5" y=".5" width="3" height="19" rx="1.5"/><rect x="8.5" y="3.5" width="3" height="13" rx="1.5"/><rect x="16.5" y=".5" width="3" height="19" rx="1.5"/></g></symbol><symbol id="iconCheckbox" viewBox="0 0 12 9"><path d="M11.647.307a1.124 1.124 0 01.045 1.59l-6.39 6.751a1.128 1.128 0 01-1.616.023L.303 5.295a1.124 1.124 0 01.805-1.892 1.13 1.13 0 01.788.302L4.46 6.261 10.053.352a1.129 1.129 0 011.594-.045z"/></symbol><symbol id="iconCharacteristics" viewBox="0 0 47 52"><path d="M4.999.668A4.667 4.667 0 00.332 5.335v37.333a4.65 4.65 0 004.667 4.667h14v-4.667h-14V5.335h16.333V17h11.667v7h4.666v-9.333l-14-14m9.334 28a.606.606 0 00-.607.49l-.443 3.08c-.7.303-1.377.677-1.984 1.097l-2.893-1.167c-.257 0-.56 0-.723.303l-2.334 4.037a.578.578 0 00.14.747l2.474 1.913a9.781 9.781 0 000 2.333l-2.474 1.914a.607.607 0 00-.14.746l2.334 4.037c.14.303.443.303.723.303l2.893-1.166c.607.42 1.26.816 1.984 1.096l.443 3.08c.047.28.28.49.607.49h4.666c.257 0 .514-.21.56-.49l.444-3.08c.7-.303 1.33-.676 1.96-1.096l2.87 1.166c.303 0 .606 0 .77-.303l2.333-4.037a.607.607 0 00-.14-.746L43.965 41.5c.047-.396.094-.77.094-1.166 0-.397-.024-.77-.094-1.167l2.474-1.913a.606.606 0 00.14-.747l-2.334-4.037c-.14-.303-.443-.303-.746-.303l-2.87 1.167c-.63-.42-1.26-.817-1.984-1.097l-.443-3.08a.55.55 0 00-.537-.49m-2.333 8.167c1.937 0 3.5 1.563 3.5 3.5 0 1.936-1.563 3.5-3.5 3.5a3.48 3.48 0 01-3.5-3.5c0-1.937 1.563-3.5 3.5-3.5z"/></symbol><symbol id="iconManagement" viewBox="0 0 48 48"><path d="M17.584 47.335l-.933-7.467a8.815 8.815 0 01-1.428-.7 19.862 19.862 0 01-1.314-.875L6.967 41.21.551 30.126l6.008-4.55a5.563 5.563 0 01-.058-.786v-1.575c0-.254.02-.517.058-.789l-6.008-4.55L6.967 6.793 13.91 9.71a15.9 15.9 0 011.342-.875 11.74 11.74 0 011.4-.7l.933-7.467h12.833l.934 7.467a8.9 8.9 0 011.43.7c.448.272.885.564 1.312.875l6.941-2.917 6.417 11.083-6.008 4.55c.038.273.058.535.058.789v1.573c0 .253-.04.516-.117.788l6.008 4.55-6.416 11.084-6.883-2.917c-.428.311-.876.603-1.342.875-.467.272-.934.505-1.4.7l-.934 7.467H17.584zm6.534-15.167c2.255 0 4.18-.797 5.774-2.392 1.595-1.594 2.392-3.52 2.392-5.775 0-2.255-.797-4.18-2.392-5.775-1.594-1.594-3.519-2.391-5.774-2.391-2.295 0-4.23.797-5.806 2.391-1.576 1.595-2.363 3.52-2.361 5.775 0 2.256.788 4.18 2.363 5.775 1.576 1.595 3.51 2.392 5.803 2.392z"/></symbol><symbol id="iconVideo" viewBox="0 0 47 34"><path d="M6.5 0A6.5 6.5 0 000 6.5v21A6.5 6.5 0 006.5 34h19a6.5 6.5 0 006.5-6.5v-21A6.5 6.5 0 0025.5 0h-19zm35.746 30.286L35 23.186V11l7.224-7.256c1.574-1.58 4.272-.466 4.272 1.764V28.5c0 2.216-2.668 3.336-4.25 1.786z"/></symbol><symbol id="iconFiles" fill="none" viewBox="0 0 42 52"><g stroke-width="4" stroke-linecap="round" stroke-linejoin="round"><path d="M26.834 2.668H7.001a4.667 4.667 0 00-4.667 4.667v37.333a4.667 4.667 0 004.667 4.667h28a4.667 4.667 0 004.666-4.667V15.501L26.834 2.668z"/><path d="M25.667 2.668v14h14M21 40.001v-14m0 14l-7-7m7 7l7-7"/></g></symbol><symbol id="iconInstallation" fill="none" viewBox="0 0 70 74"><g stroke="#fff" stroke-width="7" stroke-linejoin="round"><path d="M65.45 15.214L56.584 3.75H13.418L4.522 15.214" stroke-linecap="round"/><path d="M3.5 17.75a3.5 3.5 0 013.5-3.5h56a3.5 3.5 0 013.5 3.5V65a5.25 5.25 0 01-5.25 5.25H8.75A5.25 5.25 0 013.5 65V17.75z"/><path d="M49 42.25l-14 14-14-14m13.986-14v28" stroke-linecap="round"/></g></symbol><symbol id="iconMetering" viewBox="0 0 87 87"><path d="M84.376 22.177L64.823 2.628a7.421 7.421 0 00-10.498 0l-51.7 51.697a7.421 7.421 0 000 10.498l19.552 19.55a7.424 7.424 0 0010.498 0l51.701-51.698a7.424 7.424 0 000-10.498zM27.424 77.025L9.983 59.583l9.767-9.774 8.728 8.728a4.46 4.46 0 006.309-6.309L26.059 43.5l5.566-5.566 8.724 8.728a4.46 4.46 0 006.31-6.309l-8.725-8.728L43.5 26.06l8.728 8.728a4.46 4.46 0 006.309-6.309l-8.728-8.728 9.778-9.774 17.441 17.441-49.604 49.608z"/></symbol><symbol id="iconStrength" viewBox="0 0 87 86"><g clip-path="url(#clip0_2549_5231)"><path d="M23.189 65.689L9.958 78.919c-.38.31-.775.466-1.189.466-.413 0-.81-.155-1.188-.466a1.725 1.725 0 01-.466-1.188c0-.448.155-.844.466-1.189l13.23-13.23c.345-.31.741-.466 1.189-.466.448 0 .844.155 1.189.465.31.345.465.741.465 1.189 0 .448-.155.844-.465 1.189zm8.734 2.119v16.538c0 .483-.155.879-.465 1.189-.31.31-.706.465-1.189.465-.482 0-.878-.155-1.188-.465-.31-.31-.466-.706-.466-1.189V67.808c0-.483.155-.879.466-1.189.31-.31.706-.465 1.188-.465.483 0 .879.155 1.189.465.31.31.465.706.465 1.189zM20.346 56.23c0 .482-.155.878-.465 1.188-.31.31-.706.466-1.189.466H2.154c-.483 0-.879-.155-1.189-.465-.31-.31-.465-.707-.465-1.19 0-.482.155-.878.465-1.188.31-.31.706-.465 1.189-.465h16.538c.483 0 .879.155 1.189.465.31.31.465.706.465 1.189zm65.327 6.615c0 4.135-1.464 7.632-4.393 10.492l-7.597 7.545c-2.86 2.86-6.357 4.29-10.492 4.29-4.169 0-7.683-1.464-10.543-4.393L35.386 63.466c-.724-.723-1.447-1.688-2.17-2.894l12.351-.93 14.11 14.16c.93.931 2.101 1.405 3.514 1.422 1.413.017 2.584-.44 3.514-1.37l7.598-7.545c.965-.965 1.447-2.12 1.447-3.463 0-1.378-.482-2.55-1.447-3.514L60.142 45.119l.93-12.352c1.206.723 2.17 1.447 2.894 2.17l17.366 17.366c2.894 2.963 4.341 6.477 4.341 10.543zM53.785 25.428l-12.352.93-14.11-14.16c-.964-.966-2.136-1.448-3.514-1.448-1.344 0-2.515.465-3.515 1.395l-7.597 7.546c-.965.965-1.447 2.12-1.447 3.463 0 1.378.482 2.55 1.447 3.514L26.858 40.83l-.93 12.404c-1.206-.723-2.17-1.447-2.894-2.17L5.668 33.697c-2.894-2.963-4.341-6.477-4.341-10.543 0-4.135 1.464-7.632 4.393-10.492l7.597-7.545c2.86-2.86 6.357-4.29 10.492-4.29 4.169 0 7.683 1.464 10.543 4.393l17.262 17.314c.724.723 1.447 1.688 2.17 2.894zM86.5 29.769c0 .483-.155.879-.465 1.189-.31.31-.706.465-1.189.465H68.308c-.483 0-.879-.155-1.189-.465-.31-.31-.465-.706-.465-1.189 0-.482.155-.878.465-1.188.31-.31.706-.466 1.189-.466h16.538c.483 0 .879.155 1.189.466.31.31.465.706.465 1.188zM58.385 1.654v16.538c0 .483-.155.879-.465 1.189-.31.31-.707.465-1.19.465-.482 0-.878-.155-1.188-.465-.31-.31-.465-.706-.465-1.189V1.654c0-.483.155-.879.465-1.189.31-.31.706-.465 1.189-.465.482 0 .878.155 1.188.465.31.31.466.706.466 1.189zM79.42 9.458l-13.231 13.23c-.38.31-.775.466-1.189.466-.413 0-.81-.155-1.189-.465a1.725 1.725 0 01-.465-1.189c0-.448.155-.844.465-1.189l13.231-13.23c.345-.31.74-.466 1.189-.466.448 0 .844.155 1.189.466.31.344.465.74.465 1.188 0 .448-.155.844-.466 1.189z"/></g><defs><clipPath id="clip0_2549_5231"><path fill="#fff" transform="translate(.5)" d="M0 0h86v86H0z"/></clipPath></defs></symbol><symbol id="iconDisplay" viewBox="0 0 96 95"><path d="M78.6 14c3.421 0 6.703 1.343 9.122 3.734A12.675 12.675 0 0191.5 26.75v42.5c0 3.382-1.36 6.624-3.778 9.016A12.977 12.977 0 0178.6 82H18.4a12.977 12.977 0 01-9.122-3.734A12.675 12.675 0 015.5 69.25v-42.5c0-3.381 1.36-6.625 3.778-9.016A12.977 12.977 0 0118.4 14h60.2zm0 8.5H18.4c-1.14 0-2.234.448-3.04 1.245a4.225 4.225 0 00-1.26 3.005v42.5c0 1.127.453 2.208 1.26 3.005A4.326 4.326 0 0018.4 73.5h60.2c1.14 0 2.234-.448 3.04-1.245a4.225 4.225 0 001.26-3.005v-42.5a4.225 4.225 0 00-1.26-3.005A4.326 4.326 0 0078.6 22.5zm-35.66 9.745a4.225 4.225 0 011.26 3.005 4.225 4.225 0 01-1.26 3.005l-12.9 12.75a4.327 4.327 0 01-3.024 1.193 4.325 4.325 0 01-3.004-1.245 4.225 4.225 0 01-1.259-2.968 4.223 4.223 0 011.207-2.99l12.9-12.75a4.326 4.326 0 013.04-1.244c1.14 0 2.234.447 3.04 1.244zm-18.98-4.25a4.325 4.325 0 012.904-1.238 4.331 4.331 0 012.975 1.06 4.215 4.215 0 01.558 5.787l-.357.4-4.3 4.25a4.324 4.324 0 01-2.904 1.239 4.331 4.331 0 01-2.975-1.06 4.215 4.215 0 01-.558-5.787l.357-.4 4.3-4.25z"/></symbol><symbol id="iconCharacteristicDescription" viewBox="0 0 19 19"><path d="M4.25.5A3.75 3.75 0 00.5 4.25v10.5a3.75 3.75 0 003.75 3.75h10.5a3.75 3.75 0 003.75-3.75V4.25A3.75 3.75 0 0014.75.5H4.25zM5.75 5h7.5a.75.75 0 110 1.5h-7.5a.75.75 0 010-1.5zm0 3.75h4.5a.75.75 0 110 1.5h-4.5a.75.75 0 110-1.5zm0 3.75h7.5a.75.75 0 110 1.5h-7.5a.75.75 0 110-1.5z"/></symbol><symbol id="iconCharacteristicFeatures" viewBox="0 0 21 15"><path d="M19.5.5a1 1 0 110 2h-18a1 1 0 010-2h18zm-7 12a1 1 0 010 2h-11a1 1 0 010-2h11zm1-5a1 1 0 00-1-1h-11a1 1 0 000 2h11a1 1 0 001-1zm4.293 1.293a1 1 0 011.414 1.414L17.914 11.5l1.293 1.293a1 1 0 01-1.414 1.414l-2-2a1 1 0 010-1.414l2-2z"/></symbol><symbol id="iconCharacteristictTechnical" viewBox="0 0 21 21"><path d="M17.8 7.4l3.2 3.2-1.4 1.4-3.2-3.2c-.35.2-.725.367-1.125.5s-.825.2-1.275.2c-1.25 0-2.312-.437-3.187-1.312S9.501 6.251 9.5 5c0-1.25.438-2.312 1.313-3.187S12.751.501 14 .5c1.25 0 2.313.438 3.188 1.313S18.501 3.751 18.5 5c0 .45-.067.875-.2 1.275-.133.4-.3.775-.5 1.125zm-3.8.1c.7 0 1.292-.242 1.775-.725.483-.483.725-1.075.725-1.775s-.242-1.292-.725-1.775C15.292 2.742 14.7 2.5 14 2.5s-1.292.242-1.775.725C11.742 3.708 11.5 4.3 11.5 5s.242 1.292.725 1.775c.483.483 1.075.725 1.775.725zm1.95 3.7l2.55 2.55v4.75a1.93 1.93 0 01-.587 1.413 1.92 1.92 0 01-1.413.587h-14c-.55 0-1.02-.196-1.412-.587A1.93 1.93 0 01.5 18.5v-14c0-.55.196-1.02.588-1.412A1.93 1.93 0 012.5 2.5H8a5.06 5.06 0 00-.375 1.288c-.067.442-.1.88-.1 1.312 0 1.817.642 3.333 1.925 4.55 1.283 1.217 2.808 1.825 4.575 1.825.317 0 .633-.021.95-.063.317-.042.642-.113.975-.212z"/></symbol><symbol id="iconCharacteristictEquipment" viewBox="0 0 25 25"><path d="M20.75 6.5H17a4.5 4.5 0 10-9 0H4.25A1.5 1.5 0 002.75 8v11.25a1.5 1.5 0 001.5 1.5h16.5a1.5 1.5 0 001.5-1.5V8a1.5 1.5 0 00-1.5-1.5zm-8.25-3a3 3 0 013 3h-6a3 3 0 013-3z"/></symbol><symbol id="iconCharacteristictCertificates" viewBox="0 0 17 21"><path d="M9.5 7.5V2L15 7.5M2.5.5c-1.11 0-2 .89-2 2v16a2 2 0 002 2h12a2 2 0 002-2v-12l-6-6h-8z"/></symbol><symbol id="iconCharacteristictPO" viewBox="0 0 20 16"><path fill-rule="evenodd" clip-rule="evenodd" d="M16.447 1.106a1 1 0 01.447 1.341l-1.174 2.35A9.987 9.987 0 0120 13v1a2 2 0 01-2 2H2a2 2 0 01-2-2v-1a9.988 9.988 0 014.28-8.204L3.106 2.447a1 1 0 111.788-.894L6.028 3.82A9.967 9.967 0 0110 3c1.411 0 2.755.292 3.972.82l1.134-2.267a1 1 0 011.341-.447zM5.5 9a1.5 1.5 0 100 3 1.5 1.5 0 000-3zm9 0a1.5 1.5 0 100 3 1.5 1.5 0 000-3z"/></symbol><symbol id="iconCharacteristictDownload" viewBox="0 0 20 22"><path d="M18.7 4.776L16.166 1.5H3.833L1.292 4.776"/><path d="M18.7 4.776L16.166 1.5H3.833L1.292 4.776" stroke-width="2" stroke-linecap="round" stroke-linejoin="round"/><path d="M1 5.5a1 1 0 011-1h16a1 1 0 011 1V19a1.5 1.5 0 01-1.5 1.5h-15A1.5 1.5 0 011 19V5.5z" stroke-width="2" stroke-linejoin="round"/><path d="M14 12.5l-4 4-4-4m3.996-4v8" stroke-width="2" stroke-linecap="round" stroke-linejoin="round"/></symbol><symbol id="iconCharacteristictAccessories" viewBox="0 0 24 24"><path d="M17.45 14.55a3.47 3.47 0 00-4.9 0l-2 2c-.85.85-2.25.85-3.1 0-.85-.85-.85-2.25 0-3.1L9.7 11.2 8.3 9.8l-2.25 2.25c-1.65 1.65-1.65 4.3 0 5.9 1.65 1.65 4.3 1.65 5.9 0l2-2c.6-.55 1.5-.55 2.1 0 .55.6.55 1.5 0 2.1L13.5 20.6l1.4 1.4 2.55-2.55a3.47 3.47 0 000-4.9z"/><path d="M8.05 11.45c-1.4-1.4-1.4-3.65 0-5l3.4-3.4c1.4-1.4 3.65-1.4 5 0 1.4 1.4 1.4 3.65 0 5l-3.4 3.4c-1.4 1.4-3.6 1.4-5 0z"/><path d="M14 7.5a2 2 0 100-4 2 2 0 000 4z"/></symbol><symbol id="iconCharacteristictCertificates" viewBox="0 0 16 20"><path d="M9 7V1.5L14.5 7M2 0C.89 0 0 .89 0 2v16a2 2 0 002 2h12a2 2 0 002-2V6l-6-6H2z"/></symbol><symbol id="iconConsultation1" viewBox="0 0 240 240"><g clip-path="url(#clip0_1_4)"><path fill-rule="evenodd" clip-rule="evenodd" d="M232.92 44.595a11.252 11.252 0 017.08 10.44v129.93a11.254 11.254 0 01-7.08 10.44l-108.75 43.5a11.245 11.245 0 01-8.355 0l-108.75-43.5A11.25 11.25 0 010 184.965V55.035a11.25 11.25 0 017.065-10.44L111.645 2.76l.06-.015 4.11-1.65a11.25 11.25 0 018.37 0l4.11 1.65.06.015L232.92 44.595zM212.31 52.5L120 89.43 27.69 52.5 15 57.585v6l97.5 39v118.83l7.5 3 7.5-3V102.6l97.5-39v-6l-12.69-5.1z" fill="#fff"/></g><defs><clipPath id="clip0_1_4"><path fill="#fff" d="M0 0h240v240H0z"/></clipPath></defs></symbol><symbol id="iconConsultation2" viewBox="0 0 349 349"><path d="M72.781.125A72.656 72.656 0 00.125 72.781V276.22a72.655 72.655 0 0072.656 72.656H276.22a72.654 72.654 0 0072.656-72.656V72.781A72.655 72.655 0 00276.219.125H72.781zm29.063 87.188h145.312a14.53 14.53 0 110 29.062H101.844a14.532 14.532 0 110-29.063zm0 72.656h87.187a14.531 14.531 0 110 29.062h-87.187a14.532 14.532 0 110-29.062zm0 72.656h145.312a14.531 14.531 0 110 29.063H101.844a14.529 14.529 0 01-14.531-14.532 14.53 14.53 0 0114.531-14.531z" fill="#fff"/></symbol><symbol id="iconСogwheel" viewBox="0 0 547 547"><path d="M302.984 0c8.041 0 15.234 5.005 17.941 12.499l19.309 53.524c6.92 1.723 12.855 3.446 17.887 5.251 5.498 1.97 12.581 4.95 21.333 9.026l44.964-23.795a19.197 19.197 0 0122.755 3.583l39.548 40.888c5.251 5.443 6.728 13.402 3.774 20.349l-21.087 49.421c3.501 6.427 6.291 11.925 8.424 16.519 2.298 5.006 5.142 11.898 8.533 20.786l49.148 21.06c7.385 3.145 11.952 10.53 11.46 18.434l-3.61 56.751a18.88 18.88 0 01-3.807 10.162 18.884 18.884 0 01-8.774 6.385l-46.55 16.547c-1.34 6.427-2.735 11.924-4.212 16.574a240.64 240.64 0 01-8.15 21.169l23.384 51.691a18.676 18.676 0 01-4.595 21.689l-44.471 39.712a19.224 19.224 0 01-21.77 2.625l-45.839-24.286a197.76 197.76 0 01-22.154 10.037l-20.02 7.494-17.777 49.23a19.04 19.04 0 01-17.504 12.499L249.159 547a19.069 19.069 0 01-18.297-12.225l-20.95-55.439a400.641 400.641 0 01-21.224-7.931 273.69 273.69 0 01-16.902-8.014l-51.965 22.208a19.196 19.196 0 01-20.65-3.637l-38.454-36.075a18.68 18.68 0 01-4.239-21.415l22.345-48.683a260.225 260.225 0 01-8.26-17.613 393.83 393.83 0 01-8.205-22.181l-48.956-14.906A18.872 18.872 0 010 302.409l1.915-52.539a18.816 18.816 0 0110.721-16.246l51.363-24.67c2.38-8.725 4.458-15.507 6.29-20.458a245.828 245.828 0 018.589-19.473l-22.263-47.042a18.68 18.68 0 014.102-21.606l38.4-36.266a19.202 19.202 0 0120.512-3.775l51.91 21.442c5.744-3.828 10.941-6.919 15.645-9.408 5.606-2.981 13.1-6.099 22.536-9.463l18.051-50.351A19.04 19.04 0 01245.713 0h57.271zm-28.827 191.97c-45.593 0-82.543 36.512-82.543 81.585 0 45.073 36.95 81.612 82.543 81.612 45.565 0 82.515-36.539 82.515-81.612 0-45.073-36.923-81.585-82.515-81.585z" fill="#FAFAFA"/></symbol><symbol id="iconSpecialist" viewBox="0 0 422 387"><path d="M420.297 348.853l-82.45-83.157c8.044-20.282 4.022-46.649-14.077-62.874-18.099-18.254-44.242-22.311-66.363-12.17l38.209 38.536-28.154 28.395-40.22-40.564c-10.055 22.31-6.033 48.677 12.066 68.959 18.099 18.254 42.231 22.311 62.341 14.198l82.45 83.157c4.022 4.056 10.055 4.056 12.066 0l20.11-20.282c6.033-6.085 6.033-12.17 4.022-14.198zm-199.088-24.339H0V283.95c0-44.621 72.396-81.128 160.879-81.128 10.055 0 20.11 0 28.154 2.028-6.033 12.169-8.044 24.338-8.044 38.536 0 32.451 16.088 62.875 40.22 81.128zM160.879 0c-44.241 0-80.44 36.508-80.44 81.129 0 44.62 36.199 81.128 80.44 81.128 44.242 0 80.44-36.508 80.44-81.128C241.319 36.508 205.121 0 160.879 0z" fill="#fff"/></symbol><symbol id="iconTechnology" viewBox="0 0 22 22"><path d="M15.875 18.583a2.708 2.708 0 100-5.416 2.708 2.708 0 000 5.416zM8.833 3.417L11 1.25 8.833 3.417zM6.125 8.833a2.708 2.708 0 100-5.416 2.708 2.708 0 000 5.416zm.542 6.5l8.666-8.666-8.666 8.666zM3.958 20.75a2.708 2.708 0 100-5.416 2.708 2.708 0 000 5.416zM18.042 6.667a2.708 2.708 0 100-5.417 2.708 2.708 0 000 5.417zM11 20.75l2.167-2.167L11 20.75z"/><path d="M8.833 3.417L11 1.25M6.667 15.333l8.666-8.666M11 20.75l2.167-2.167m2.708 0a2.708 2.708 0 100-5.416 2.708 2.708 0 000 5.416zm-9.75-9.75a2.708 2.708 0 100-5.416 2.708 2.708 0 000 5.416zM3.958 20.75a2.708 2.708 0 100-5.416 2.708 2.708 0 000 5.416zM18.042 6.667a2.708 2.708 0 100-5.417 2.708 2.708 0 000 5.417z" stroke-width="2" stroke-linecap="round" stroke-linejoin="round"/></symbol><symbol id="iconFileUpload" viewBox="0 0 82 82"><path fill-rule="evenodd" clip-rule="evenodd" d="M41 .688a2.87 2.87 0 012.162.982l11.375 13.125a2.794 2.794 0 01-.311 3.967 2.866 2.866 0 01-4.012-.307l-6.37-7.35V52.25a2.8 2.8 0 01-.833 1.989 2.86 2.86 0 01-2.01.824 2.86 2.86 0 01-2.011-.824 2.797 2.797 0 01-.833-1.989V11.101l-6.37 7.354a2.841 2.841 0 01-1.941.975 2.874 2.874 0 01-2.07-.668 2.819 2.819 0 01-.987-1.92 2.786 2.786 0 01.675-2.047L38.84 1.67A2.87 2.87 0 0141 .688zM22.028 26.945a2.86 2.86 0 012.015.813c.537.525.84 1.239.844 1.985a2.797 2.797 0 01-.822 1.993 2.86 2.86 0 01-2.006.834c-4.145.023-7.083.127-9.317.532-2.146.394-3.393 1.02-4.315 1.932-1.05 1.038-1.732 2.497-2.108 5.25-.383 2.831-.39 6.585-.39 11.966V56c0 5.385.007 9.139.39 11.97.376 2.752 1.062 4.207 2.108 5.25 1.05 1.035 2.522 1.71 5.309 2.081 2.859.383 6.658.386 12.099.386h30.333c5.441 0 9.237-.003 12.103-.386 2.783-.371 4.255-1.046 5.305-2.085 1.05-1.038 1.733-2.493 2.108-5.246.383-2.831.39-6.585.39-11.97v-3.75c0-5.381-.007-9.135-.39-11.97-.375-2.749-1.062-4.208-2.108-5.246-.925-.911-2.169-1.538-4.315-1.931-2.233-.406-5.172-.51-9.316-.533a2.873 2.873 0 01-2.007-.834 2.81 2.81 0 01-.822-1.994 2.786 2.786 0 01.844-1.984 2.846 2.846 0 012.015-.813c4.103.023 7.519.12 10.313.626 2.875.525 5.32 1.519 7.31 3.488 2.283 2.253 3.262 5.1 3.724 8.475.44 3.247.44 7.383.44 12.51v4.162c0 5.13 0 9.263-.44 12.514-.462 3.375-1.44 6.218-3.723 8.475-2.283 2.258-5.157 3.225-8.57 3.683-3.287.434-7.469.434-12.652.434h-30.75c-5.184 0-9.366 0-12.653-.434-3.413-.454-6.287-1.425-8.57-3.683-2.282-2.257-3.26-5.1-3.72-8.475C.24 65.469.24 61.333.24 56.206v-4.162c0-5.127 0-9.263.444-12.514.455-3.375 1.44-6.218 3.72-8.475 1.99-1.965 4.436-2.962 7.31-3.484 2.794-.506 6.21-.604 10.313-.626z" fill="#4FA1FF"/></symbol><symbol id="iconHooks" viewBox="0 0 80 60"><path d="M25 10l5-10H20C8.95 0 0 13.95 0 25v35h35V25H15c0-15 10-15 10-15zm35 15c0-15 10-15 10-15l5-10H65C53.95 0 45 13.95 45 25v35h35V25H60z" fill="#4FA1FF"/></symbol></svg>