<svg xmlns="http://www.w3.org/2000/svg">
  <symbol id="iconLogo" viewBox="0 0 252 40">
    <g>
      <path fill-rule="evenodd" clip-rule="evenodd"
        d="M46.9149 9.72898L22.7961 33.6109H50.9007L46.9149 9.72898ZM36.7863 0.00878906H55.6055C57.736 0.00878906 59.2184 0.273167 60.0706 0.81073C60.9317 1.33948 61.4554 2.09735 61.6596 3.07554L66.7283 30.6058C66.8881 31.4166 67.1544 32.0334 67.5539 32.4653C67.9356 32.8883 68.5748 33.1879 69.4625 33.3641C70.3502 33.5316 71.6284 33.6197 73.3417 33.6197H75.0283L73.3417 37.1535C72.8357 38.2903 72.0723 39.0394 71.0248 39.4271C70.004 39.8061 68.3084 39.9911 65.9827 39.9911H4.57165C2.90277 39.9911 1.72214 39.8854 1.02973 39.6739C0.346206 39.4624 0 39.0923 0 38.5459C0 38.2286 0.124281 37.8409 0.36396 37.3914L2.1571 33.6197H4.56277C6.134 33.6197 7.43892 33.417 8.45977 33.0028C9.46287 32.5974 10.4749 31.9101 11.4602 30.9671L38.3575 4.29167C39.0765 3.60429 39.4405 3.03148 39.4405 2.5556C39.4405 1.76248 38.3131 1.2778 36.0406 1.10155L36.7863 0.00878906Z"
        fill="white" />
      <path fill-rule="evenodd" clip-rule="evenodd"
        d="M132.675 20.7975L125.484 29.0372H132.941L132.675 20.7975ZM141.907 39.9823H135.906C134.175 39.9823 133.278 39.3037 133.207 37.9466L133.048 33.2672H121.916L118.614 37.1094C118.152 37.6205 117.912 38.0524 117.912 38.4137C117.912 38.9336 118.4 39.2156 119.386 39.2597L119.12 39.9911H112.08C110.944 39.9911 110.376 39.7267 110.376 39.1892C110.376 38.8807 110.544 38.537 110.864 38.1493L129.532 16.4265C129.932 15.9506 130.136 15.554 130.136 15.2368C130.136 14.708 129.657 14.3467 128.716 14.1616L128.982 13.4831H136.829C137.726 13.4831 138.4 13.6593 138.88 14.003C139.359 14.3467 139.599 14.7961 139.599 15.3601L140.362 37.4355C140.389 38.114 140.504 38.5723 140.708 38.7926C140.913 39.0129 141.383 39.1803 142.12 39.2685L141.907 39.9823ZM102.573 24.0581L85.7336 37.1447L85.6182 37.4883C85.5471 37.6646 85.5028 37.8761 85.5028 38.1317C85.5028 38.8014 85.9555 39.1715 86.8876 39.2508L86.6568 39.9823H80.1677C78.7385 39.9823 78.0283 39.4447 78.0283 38.3696C78.0283 38.0347 78.0638 37.7792 78.1349 37.6029L85.4406 15.9594C85.5116 15.7743 85.556 15.5452 85.556 15.2632C85.556 14.6375 85.1122 14.2674 84.2422 14.1881L84.4642 13.4654H90.9532C92.3469 13.4654 93.0393 13.9854 93.0393 15.0429C93.0393 15.2632 92.9861 15.5364 92.8707 15.8448L88.37 29.3103L105.174 16.3824L105.271 15.9594C105.342 15.7743 105.378 15.5452 105.378 15.2632C105.378 14.6375 104.943 14.2674 104.073 14.1881L104.286 13.4654H110.766C112.169 13.4654 112.861 13.9854 112.861 15.0429C112.861 15.2632 112.808 15.5364 112.701 15.8448L105.458 37.4883C105.387 37.6646 105.342 37.8761 105.342 38.1317C105.342 38.8014 105.804 39.1627 106.718 39.2508L106.496 39.9823H100.016C98.5874 39.9823 97.8684 39.4447 97.8684 38.3696C97.8684 38.0347 97.9039 37.7792 97.9838 37.6029L102.573 24.0581Z"
        fill="white" />
      <path fill-rule="evenodd" clip-rule="evenodd"
        d="M242.492 13.4654H249.673C250.889 13.4654 251.502 13.7474 251.502 14.3114C251.502 14.5758 251.298 14.893 250.889 15.2632L239.039 25.6619L245.466 38.4489C245.696 38.7661 245.91 38.9688 246.123 39.0834C246.327 39.1979 246.717 39.2596 247.268 39.2596L247.055 39.9911H240.459C239.775 39.9911 239.261 39.8853 238.906 39.6738C238.559 39.4623 238.249 39.0922 237.991 38.5634L234.041 30.0858L225.102 37.7967C224.702 38.1052 224.498 38.3784 224.498 38.5987C224.498 38.9512 224.978 39.1715 225.936 39.242L225.652 39.9734H218.675C217.503 39.9734 216.917 39.665 216.917 39.0481C216.917 38.6956 217.175 38.2726 217.681 37.7879L231.52 25.8117L226.238 15.9858C225.901 15.316 225.581 14.8578 225.306 14.6287C225.031 14.3907 224.56 14.2497 223.877 14.1704L224.108 13.4478H230.304C231.2 13.4478 231.866 13.5624 232.292 13.7915C232.718 14.0118 233.056 14.3731 233.286 14.8666L236.562 21.6258L242.865 15.9065C243.282 15.5364 243.477 15.2015 243.477 14.9019C243.477 14.4965 243.078 14.2585 242.261 14.1704L242.492 13.4654ZM196.917 13.4654H219.101L218.444 15.6509C218.231 16.4264 217.867 16.964 217.361 17.2548C216.855 17.5456 216.03 17.6866 214.876 17.6866H204.72L202.812 23.3971H214.441L213.784 25.5826C213.571 26.3581 213.207 26.8869 212.71 27.1777C212.195 27.4773 211.36 27.6183 210.224 27.6183H204.454C203.389 27.6183 202.581 27.7505 202.022 27.9972C201.462 28.2528 201.045 28.7463 200.779 29.5042L198.648 35.7522H209.123C210.206 35.7522 210.987 35.6729 211.476 35.5319C211.973 35.3733 212.443 35.0561 212.914 34.5626H213.952L212.745 38.1316C212.541 38.819 212.168 39.2949 211.635 39.5681C211.103 39.8412 210.331 39.9822 209.327 39.9822H192.639C191.955 39.9822 191.423 39.8324 191.059 39.5416C190.686 39.242 190.499 38.8542 190.499 38.3696C190.499 38.0347 190.535 37.7791 190.615 37.6029L197.903 15.9594C197.983 15.7831 198.027 15.554 198.027 15.272C198.027 14.6375 197.583 14.2762 196.695 14.1881L196.917 13.4654ZM175.4 13.4654H183.398C185.271 13.4654 186.203 14.2233 186.203 15.7214V38.0171C186.203 38.4401 186.309 38.7309 186.531 38.8983C186.753 39.0569 187.188 39.1715 187.845 39.2508L187.561 39.9822H181.036C179.723 39.9822 179.057 39.4271 179.057 38.3343V22.6833L168.36 39.9911H164.401C163.62 39.9911 163.043 39.9382 162.679 39.8413C162.306 39.7355 162.022 39.5504 161.853 39.2596C161.676 38.9776 161.534 38.5017 161.436 37.8496L159.35 23.4147L152.151 37.4531C151.902 37.9906 151.778 38.3431 151.778 38.5194C151.778 38.9424 152.204 39.1891 153.038 39.2596L152.754 39.9911H146.611C145.608 39.9911 145.12 39.7355 145.12 39.2244C145.12 38.9864 145.191 38.7309 145.333 38.4577L156.927 16.3119C157.113 15.8889 157.202 15.554 157.202 15.3072C157.202 14.7432 156.714 14.3643 155.728 14.1969L155.941 13.4742H162.155C163.203 13.4742 163.922 13.6329 164.321 13.9325C164.729 14.2321 164.978 14.708 165.076 15.3513L167.437 31.2402L176.385 16.3119C176.598 15.9329 176.704 15.598 176.704 15.3072C176.704 14.7256 176.199 14.3467 175.178 14.1969L175.4 13.4654Z"
        fill="white" />
    </g>
  </symbol>
  <symbol id="iconLogoD" viewBox="0 0 76 40">
    <g>
      <path fill-rule="evenodd" clip-rule="evenodd"
                d="M46.9149 9.72898L22.7961 33.6109H50.9007L46.9149 9.72898ZM36.7863 0.00878906H55.6055C57.736 0.00878906 59.2184 0.273167 60.0706 0.81073C60.9317 1.33948 61.4554 2.09735 61.6596 3.07554L66.7283 30.6058C66.8881 31.4166 67.1544 32.0334 67.5539 32.4653C67.9356 32.8883 68.5748 33.1879 69.4625 33.3641C70.3502 33.5316 71.6284 33.6197 73.3417 33.6197H75.0283L73.3417 37.1535C72.8357 38.2903 72.0723 39.0394 71.0248 39.4271C70.004 39.8061 68.3084 39.9911 65.9827 39.9911H4.57165C2.90277 39.9911 1.72214 39.8854 1.02973 39.6739C0.346206 39.4624 0 39.0923 0 38.5459C0 38.2286 0.124281 37.8409 0.36396 37.3914L2.1571 33.6197H4.56277C6.134 33.6197 7.43892 33.417 8.45977 33.0028C9.46287 32.5974 10.4749 31.9101 11.4602 30.9671L38.3575 4.29167C39.0765 3.60429 39.4405 3.03148 39.4405 2.5556C39.4405 1.76248 38.3131 1.2778 36.0406 1.10155L36.7863 0.00878906Z" />
    </g>
  </symbol>
  <symbol id="iconLogoIA" viewBox="0 0 65 27">
    <g>
      <path fill-rule="evenodd" clip-rule="evenodd"
        d="M54.6744 7.79792L47.4834 16.0376H54.9404L54.6744 7.79792ZM63.9064 26.9827H57.9054C56.1744 26.9827 55.2774 26.3041 55.2064 24.947L55.0474 20.2676H43.9154L40.6134 24.1098C40.1514 24.6209 39.9114 25.0528 39.9114 25.4141C39.9114 25.934 40.3994 26.216 41.3854 26.2601L41.1194 26.9915H34.0794C32.9434 26.9915 32.3754 26.7271 32.3754 26.1896C32.3754 25.8811 32.5434 25.5374 32.8634 25.1497L51.5314 3.42692C51.9314 2.95102 52.1354 2.55442 52.1354 2.23722C52.1354 1.70842 51.6564 1.34712 50.7154 1.16202L50.9814 0.48352H58.8284C59.7254 0.48352 60.3994 0.65972 60.8794 1.00342C61.3584 1.34712 61.5984 1.79652 61.5984 2.36052L62.3614 24.4359C62.3884 25.1144 62.5034 25.5727 62.7074 25.793C62.9124 26.0133 63.3824 26.1807 64.1194 26.2689L63.9064 26.9827ZM24.5724 11.0585L7.73264 24.1451L7.61724 24.4887C7.54614 24.665 7.50185 24.8765 7.50185 25.1321C7.50185 25.8018 7.95454 26.1719 8.88664 26.2512L8.65585 26.9827H2.16674C0.73754 26.9827 0.0273438 26.4451 0.0273438 25.37C0.0273438 25.0351 0.0628417 24.7796 0.133942 24.6033L7.43964 2.95982C7.51064 2.77472 7.55505 2.54562 7.55505 2.26362C7.55505 1.63792 7.11124 1.26782 6.24124 1.18852L6.46324 0.46582H12.9522C14.3459 0.46582 15.0383 0.98582 15.0383 2.04332C15.0383 2.26362 14.9851 2.53682 14.8697 2.84522L10.369 16.3107L27.1734 3.38282L27.2704 2.95982C27.3414 2.77472 27.3774 2.54562 27.3774 2.26362C27.3774 1.63792 26.9424 1.26782 26.0724 1.18852L26.2854 0.46582H32.7654C34.1684 0.46582 34.8604 0.98582 34.8604 2.04332C34.8604 2.26362 34.8074 2.53682 34.7004 2.84522L27.4574 24.4887C27.3864 24.665 27.3414 24.8765 27.3414 25.1321C27.3414 25.8018 27.8034 26.1631 28.7174 26.2512L28.4954 26.9827H22.0154C20.5864 26.9827 19.8674 26.4451 19.8674 25.37C19.8674 25.0351 19.9029 24.7796 19.9828 24.6033L24.5724 11.0585Z" />
    </g>
  </symbol>
  <symbol id="iconLogoMEX" viewBox="0 0 107 27">
    <g>
      <path fill-rule="evenodd" clip-rule="evenodd"
        d="M97.4931 0.465842H104.674C105.89 0.465842 106.503 0.747842 106.503 1.31184C106.503 1.57624 106.299 1.89344 105.89 2.26364L94.0401 12.6623L100.467 25.4493C100.697 25.7665 100.911 25.9692 101.124 26.0838C101.328 26.1983 101.718 26.26 102.269 26.26L102.056 26.9915H95.4601C94.7761 26.9915 94.2621 26.8857 93.9071 26.6742C93.5601 26.4627 93.2501 26.0926 92.9921 25.5638L89.0421 17.0862L80.1031 24.7971C79.7031 25.1056 79.4991 25.3788 79.4991 25.5991C79.4991 25.9516 79.9791 26.1719 80.9371 26.2424L80.6531 26.9738H73.6761C72.5041 26.9738 71.9181 26.6654 71.9181 26.0485C71.9181 25.696 72.1761 25.273 72.6821 24.7883L86.5211 12.8121L81.2391 2.98624C80.9021 2.31644 80.5821 1.85824 80.3071 1.62914C80.0321 1.39114 79.5611 1.25014 78.8781 1.17084L79.1091 0.448242H85.3051C86.2011 0.448242 86.8671 0.562843 87.2931 0.791943C87.7191 1.01224 88.0571 1.37354 88.2871 1.86704L91.5631 8.62624L97.8661 2.90694C98.2831 2.53684 98.4781 2.20194 98.4781 1.90234C98.4781 1.49694 98.0791 1.25894 97.2621 1.17084L97.4931 0.465842ZM51.9181 0.465842H74.1021L73.4451 2.65134C73.2321 3.42684 72.8681 3.96444 72.3621 4.25524C71.8561 4.54604 71.0311 4.68704 69.8771 4.68704H59.7211L57.8131 10.3975H69.4421L68.7851 12.583C68.5721 13.3585 68.2081 13.8873 67.7111 14.1781C67.1961 14.4777 66.3611 14.6187 65.2251 14.6187H59.4551C58.3901 14.6187 57.5821 14.7509 57.0231 14.9976C56.4631 15.2532 56.0461 15.7467 55.7801 16.5046L53.6491 22.7526H64.1241C65.2071 22.7526 65.9881 22.6733 66.4771 22.5323C66.9741 22.3737 67.4441 22.0565 67.9151 21.563H68.9531L67.7461 25.132C67.5421 25.8194 67.1691 26.2953 66.6361 26.5685C66.1041 26.8416 65.3321 26.9826 64.3281 26.9826H47.6401C46.9561 26.9826 46.4241 26.8328 46.0601 26.542C45.6871 26.2424 45.5001 25.8546 45.5001 25.37C45.5001 25.0351 45.5361 24.7795 45.6161 24.6033L52.9041 2.95984C52.9841 2.78354 53.0281 2.55444 53.0281 2.27244C53.0281 1.63794 52.5841 1.27664 51.6961 1.18854L51.9181 0.465842ZM30.4011 0.465842H38.3991C40.2721 0.465842 41.2041 1.22374 41.2041 2.72184V25.0175C41.2041 25.4405 41.3101 25.7313 41.5321 25.8987C41.7541 26.0573 42.1891 26.1719 42.8461 26.2512L42.5621 26.9826H36.0371C34.7241 26.9826 34.0581 26.4275 34.0581 25.3347V9.68374L23.3611 26.9915H19.4021C18.6211 26.9915 18.0441 26.9386 17.6801 26.8417C17.3071 26.7359 17.0231 26.5508 16.8541 26.26C16.6771 25.978 16.5351 25.5021 16.4371 24.85L14.3511 10.4151L7.1521 24.4535C6.9031 24.991 6.7791 25.3435 6.7791 25.5198C6.7791 25.9428 7.20509 26.1895 8.03909 26.26L7.7551 26.9915H1.61209C0.609091 26.9915 0.121094 26.7359 0.121094 26.2248C0.121094 25.9868 0.192091 25.7313 0.334091 25.4581L11.9281 3.31234C12.1141 2.88934 12.2031 2.55444 12.2031 2.30764C12.2031 1.74364 11.7151 1.36474 10.7291 1.19734L10.9421 0.474643H17.1561C18.2041 0.474643 18.9231 0.633342 19.3221 0.932942C19.7301 1.23254 19.9791 1.70844 20.0771 2.35174L22.4381 18.2406L31.3861 3.31234C31.5991 2.93334 31.7051 2.59844 31.7051 2.30764C31.7051 1.72604 31.2001 1.34714 30.1791 1.19734L30.4011 0.465842Z" />
    </g>
  </symbol>
  <symbol id="iconPerson" viewBox="0 0 19 23">
    <g>
      <path
        d="M9.56055 10.6141C10.9766 10.6141 12.3347 10.0561 13.336 9.06283C14.3373 8.06958 14.8998 6.72245 14.8998 5.31778C14.8998 3.91312 14.3373 2.56598 13.336 1.57273C12.3347 0.579485 10.9766 0.0214844 9.56055 0.0214844C8.14448 0.0214844 6.78641 0.579485 5.7851 1.57273C4.78379 2.56598 4.22126 3.91312 4.22126 5.31778C4.22126 6.72245 4.78379 8.06958 5.7851 9.06283C6.78641 10.0561 8.14448 10.6141 9.56055 10.6141ZM0.935547 15.503C0.935547 14.6386 1.28172 13.8096 1.89791 13.1983C2.5141 12.5871 3.34984 12.2437 4.22126 12.2437H14.8998C15.7713 12.2437 16.607 12.5871 17.2232 13.1983C17.8394 13.8096 18.1855 14.6386 18.1855 15.503C18.1855 15.503 18.1855 22.0215 9.56055 22.0215C0.935547 22.0215 0.935547 15.503 0.935547 15.503Z" />
    </g>
  </symbol>
  <symbol id="iconLanguage" viewBox="0 0 21 22">
    <g>
      <path
        d="M10.5007 21.8337C9.07704 21.8337 7.73156 21.5491 6.46419 20.98C5.19683 20.4109 4.08989 19.6345 3.14336 18.6508C2.19753 17.6672 1.451 16.5163 0.903777 15.1982C0.356555 13.8802 0.0832913 12.4809 0.0839857 11.0003C0.0839857 9.50171 0.357597 8.09771 0.904819 6.78833C1.45204 5.47894 2.19857 4.33277 3.1444 3.34983C4.09024 2.36544 5.19649 1.58905 6.46315 1.02066C7.72982 0.45227 9.07565 0.167714 10.5007 0.166992C11.9416 0.166992 13.2916 0.451548 14.5507 1.02066C15.8097 1.58977 16.9118 2.36616 17.8569 3.34983C18.8034 4.33349 19.55 5.48002 20.0965 6.78941C20.643 8.0988 20.9166 9.50244 20.9173 11.0003C20.9173 12.4809 20.6437 13.8802 20.0965 15.1982C19.5493 16.5163 18.8027 17.6675 17.8569 18.6519C16.9111 19.6356 15.8086 20.412 14.5496 20.9811C13.2906 21.5502 11.9409 21.8344 10.5007 21.8337ZM10.5007 19.6128C10.952 18.9628 11.3427 18.2857 11.6725 17.5816C12.0024 16.8774 12.2715 16.1281 12.4798 15.3337H8.52149C8.72982 16.1281 8.99892 16.8774 9.32878 17.5816C9.65864 18.2857 10.0493 18.9628 10.5007 19.6128ZM7.79232 19.1795C7.47982 18.5837 7.20621 17.9651 6.97149 17.3237C6.73676 16.6824 6.54163 16.019 6.38607 15.3337H3.31315C3.81662 16.2364 4.44614 17.0219 5.20169 17.6899C5.95725 18.358 6.82079 18.8545 7.79232 19.1795ZM13.209 19.1795C14.1812 18.8545 15.0451 18.358 15.8007 17.6899C16.5562 17.0219 17.1854 16.2364 17.6882 15.3337H14.6152C14.459 16.0198 14.2638 16.6835 14.0298 17.3248C13.7958 17.9662 13.5222 18.5844 13.209 19.1795ZM2.42774 13.167H5.9694C5.91732 12.8059 5.87808 12.4491 5.8517 12.0967C5.82531 11.7442 5.81246 11.3788 5.81315 11.0003C5.81315 10.6212 5.82635 10.2557 5.85274 9.90399C5.87913 9.55227 5.91801 9.19549 5.9694 8.83366H2.42774C2.34093 9.19477 2.27565 9.55155 2.2319 9.90399C2.18815 10.2564 2.16662 10.6219 2.16732 11.0003C2.16732 11.3795 2.18919 11.7449 2.23294 12.0967C2.27669 12.4484 2.34162 12.8052 2.42774 13.167ZM8.05274 13.167H12.9486C13.0007 12.8059 13.0399 12.4491 13.0663 12.0967C13.0927 11.7442 13.1055 11.3788 13.1048 11.0003C13.1048 10.6212 13.0916 10.2557 13.0652 9.90399C13.0388 9.55227 13 9.19549 12.9486 8.83366H8.05274C8.00065 9.19477 7.96142 9.55155 7.93503 9.90399C7.90864 10.2564 7.89579 10.6219 7.89649 11.0003C7.89649 11.3795 7.90968 11.7449 7.93607 12.0967C7.96246 12.4484 8.00135 12.8052 8.05274 13.167ZM15.0319 13.167H18.5736C18.6604 12.8059 18.7257 12.4491 18.7694 12.0967C18.8132 11.7442 18.8347 11.3788 18.834 11.0003C18.834 10.6212 18.8121 10.2557 18.7684 9.90399C18.7246 9.55227 18.6597 9.19549 18.5736 8.83366H15.0319C15.084 9.19477 15.1232 9.55155 15.1496 9.90399C15.176 10.2564 15.1888 10.6219 15.1882 11.0003C15.1882 11.3795 15.175 11.7449 15.1486 12.0967C15.1222 12.4484 15.0833 12.8052 15.0319 13.167ZM14.6152 6.66699H17.6882C17.1847 5.76421 16.5555 4.9788 15.8007 4.31074C15.0458 3.64269 14.1819 3.14616 13.209 2.82116C13.5215 3.41699 13.7951 4.03558 14.0298 4.67691C14.2645 5.31824 14.4597 5.9816 14.6152 6.66699ZM8.52149 6.66699H12.4798C12.2715 5.87255 12.0024 5.12324 11.6725 4.41908C11.3427 3.71491 10.952 3.03783 10.5007 2.38783C10.0493 3.03783 9.65864 3.71491 9.32878 4.41908C8.99892 5.12324 8.72982 5.87255 8.52149 6.66699ZM3.31315 6.66699H6.38607C6.54232 5.98088 6.73781 5.31716 6.97253 4.67583C7.20725 4.03449 7.48051 3.41627 7.79232 2.82116C6.8201 3.14616 5.95621 3.64269 5.20065 4.31074C4.4451 4.9788 3.81593 5.76421 3.31315 6.66699Z" />
    </g>
  </symbol>
  <symbol id="iconArrowLink" viewBox="0 0 28 24">
    <g>
      <path d="M25.666 12L15.666 2M25.666 12L15.666 22M25.666 12H2.33268" stroke-width="3.33333" stroke-linecap="round"
        stroke-linejoin="round" />
    </g>
  </symbol>
  <symbol id="iconMachine" viewBox="0 0 20 23">
    <g>
      <path
        d="M1.55039 0.599609C1.378 0.599609 1.21267 0.668091 1.09077 0.78999C0.968873 0.911889 0.900391 1.07722 0.900391 1.24961V4.49961C0.900391 5.18917 1.17432 5.85049 1.66191 6.33809C2.14951 6.82568 2.81083 7.09961 3.50039 7.09961H16.5004C17.19 7.09961 17.8513 6.82568 18.3389 6.33809C18.8265 5.85049 19.1004 5.18917 19.1004 4.49961V1.24961C19.1004 1.07722 19.0319 0.911889 18.91 0.78999C18.7881 0.668091 18.6228 0.599609 18.4504 0.599609H1.55039ZM10.6504 10.9996H15.8504C16.3676 10.9996 16.8636 10.7942 17.2292 10.4285C17.5949 10.0628 17.8004 9.56678 17.8004 9.04961V8.39961H2.20039V9.04961C2.20039 9.56678 2.40584 10.0628 2.77153 10.4285C3.13723 10.7942 3.63322 10.9996 4.15039 10.9996H9.35039V14.2496C9.35039 14.422 9.41887 14.5873 9.54077 14.7092C9.66267 14.8311 9.828 14.8996 10.0004 14.8996C10.1728 14.8996 10.3381 14.8311 10.46 14.7092C10.5819 14.5873 10.6504 14.422 10.6504 14.2496V10.9996ZM3.50039 16.8496C3.50039 16.6772 3.56887 16.5119 3.69077 16.39C3.81267 16.2681 3.978 16.1996 4.15039 16.1996H6.10039C6.27278 16.1996 6.43811 16.2681 6.56001 16.39C6.68191 16.5119 6.75039 16.6772 6.75039 16.8496C6.75039 17.022 6.68191 17.1873 6.56001 17.3092C6.43811 17.4311 6.27278 17.4996 6.10039 17.4996H4.15039C3.978 17.4996 3.81267 17.4311 3.69077 17.3092C3.56887 17.1873 3.50039 17.022 3.50039 16.8496ZM13.9004 16.1996C13.728 16.1996 13.5627 16.2681 13.4408 16.39C13.3189 16.5119 13.2504 16.6772 13.2504 16.8496C13.2504 17.022 13.3189 17.1873 13.4408 17.3092C13.5627 17.4311 13.728 17.4996 13.9004 17.4996H15.8504C16.0228 17.4996 16.1881 17.4311 16.31 17.3092C16.4319 17.1873 16.5004 17.022 16.5004 16.8496C16.5004 16.6772 16.4319 16.5119 16.31 16.39C16.1881 16.2681 16.0228 16.1996 15.8504 16.1996H13.9004ZM10.6504 16.8496C10.6504 17.022 10.5819 17.1873 10.46 17.3092C10.3381 17.4311 10.1728 17.4996 10.0004 17.4996C9.828 17.4996 9.66267 17.4311 9.54077 17.3092C9.41887 17.1873 9.35039 17.022 9.35039 16.8496C9.35039 16.6772 9.41887 16.5119 9.54077 16.39C9.66267 16.2681 9.828 16.1996 10.0004 16.1996C10.1728 16.1996 10.3381 16.2681 10.46 16.39C10.5819 16.5119 10.6504 16.6772 10.6504 16.8496ZM10.6504 19.4496C10.6504 19.2772 10.5819 19.1119 10.46 18.99C10.3381 18.8681 10.1728 18.7996 10.0004 18.7996C9.828 18.7996 9.66267 18.8681 9.54077 18.99C9.41887 19.1119 9.35039 19.2772 9.35039 19.4496V22.0496C9.35039 22.222 9.41887 22.3873 9.54077 22.5092C9.66267 22.6311 9.828 22.6996 10.0004 22.6996C10.1728 22.6996 10.3381 22.6311 10.46 22.5092C10.5819 22.3873 10.6504 22.222 10.6504 22.0496V19.4496ZM8.51059 17.6894C8.57112 17.7498 8.61915 17.8215 8.65192 17.9005C8.68468 17.9795 8.70155 18.0641 8.70155 18.1496C8.70155 18.2351 8.68468 18.3198 8.65192 18.3987C8.61915 18.4777 8.57112 18.5494 8.51059 18.6098L6.56059 20.5598C6.43854 20.6819 6.273 20.7504 6.10039 20.7504C5.92778 20.7504 5.76224 20.6819 5.64019 20.5598C5.51814 20.4378 5.44957 20.2722 5.44957 20.0996C5.44957 19.927 5.51814 19.7615 5.64019 19.6394L7.59019 17.6894C7.65057 17.6289 7.7223 17.5809 7.80127 17.5481C7.88024 17.5153 7.96489 17.4984 8.05039 17.4984C8.13589 17.4984 8.22054 17.5153 8.29951 17.5481C8.37848 17.5809 8.45021 17.6289 8.51059 17.6894ZM11.4902 18.6098C11.3681 18.4878 11.2996 18.3222 11.2996 18.1496C11.2996 17.977 11.3681 17.8115 11.4902 17.6894C11.6122 17.5674 11.7778 17.4988 11.9504 17.4988C12.123 17.4988 12.2885 17.5674 12.4106 17.6894L14.3606 19.6394C14.4826 19.7615 14.5512 19.927 14.5512 20.0996C14.5512 20.2722 14.4826 20.4378 14.3606 20.5598C14.2385 20.6819 14.073 20.7504 13.9004 20.7504C13.7278 20.7504 13.5622 20.6819 13.4402 20.5598L11.4902 18.6098Z" />
    </g>
  </symbol>
  <symbol id="iconPlay" viewBox="0 0 40 40">
    <g>
      <path
        d="M5.85967 34.1553C3.94947 32.3104 2.42582 30.1035 1.37764 27.6634C0.329462 25.2233 -0.222262 22.5989 -0.245339 19.9433C-0.268415 17.2877 0.237619 14.6541 1.24324 12.1962C2.24885 9.73829 3.73392 7.50525 5.61177 5.6274C7.48962 3.74954 9.72266 2.26448 12.1806 1.25886C14.6385 0.253244 17.2721 -0.25279 19.9277 -0.229714C22.5833 -0.206637 25.2077 0.345087 27.6478 1.39327C30.0878 2.44145 32.2947 3.96509 34.1397 5.8753C37.7828 9.64734 39.7987 14.6994 39.7532 19.9433C39.7076 25.1873 37.6042 30.2035 33.896 33.9117C30.1879 37.6198 25.1716 39.7232 19.9277 39.7688C14.6838 39.8143 9.63171 37.7985 5.85967 34.1553ZM31.3197 31.3353C34.3219 28.333 36.0086 24.2611 36.0086 20.0153C36.0086 15.7695 34.3219 11.6975 31.3197 8.6953C28.3174 5.69304 24.2455 4.0064 19.9997 4.0064C15.7538 4.0064 11.6819 5.69304 8.67967 8.6953C5.67742 11.6975 3.99077 15.7695 3.99077 20.0153C3.99077 24.2611 5.67742 28.333 8.67967 31.3353C11.6819 34.3375 15.7538 36.0242 19.9997 36.0242C24.2455 36.0242 28.3174 34.3375 31.3197 31.3353ZM13.9997 12.0153L29.9997 20.0153L13.9997 28.0153V12.0153Z" />
    </g>
  </symbol>
  <symbol id="iconArrow" viewBox="0 0 20 12">
    <g>
      <path d="M18.3327 1.66667L9.99935 10L1.66602 1.66667" stroke-width="3.33333" stroke-linecap="round"
        stroke-linejoin="round" />
    </g>
  </symbol>
  <symbol id="iconEducation" viewBox="0 0 26 22">
    <g>
      <path
        d="M3.61569 12.4832V16.0264C3.61569 16.9468 4.11312 17.8043 4.909 18.2456L11.1269 21.6879C11.873 22.104 12.7684 22.104 13.5145 21.6879L19.7324 18.2456C20.5283 17.8043 21.0257 16.9468 21.0257 16.0264V12.4832L13.5145 16.6442C12.7684 17.0603 11.873 17.0603 11.1269 16.6442L3.61569 12.4832ZM11.1269 0.302622L0.643549 6.10288C-0.214516 6.58203 -0.214516 7.84296 0.643549 8.32211L11.1269 14.1224C11.873 14.5385 12.7684 14.5385 13.5145 14.1224L23.5129 8.5869V16.039C23.5129 16.7325 24.0725 17.2999 24.7564 17.2999C25.4404 17.2999 26 16.7325 26 16.039V7.95644C26 7.4899 25.7513 7.07379 25.3533 6.84683L13.5145 0.302622C13.1471 0.103932 12.7371 0 12.3207 0C11.9043 0 11.4943 0.103932 11.1269 0.302622Z" />
    </g>
  </symbol>
  <symbol id="iconSystem" viewBox="0 0 18 21">
    <g>
      <path
        d="M9.00065 14.2493C4.21232 14.2493 0.333984 16.1885 0.333984 18.5827V20.7493H17.6673V18.5827C17.6673 16.1885 13.789 14.2493 9.00065 14.2493ZM4.66732 7.74935C4.66732 8.89862 5.12386 10.0008 5.93652 10.8135C6.74918 11.6261 7.85138 12.0827 9.00065 12.0827C10.1499 12.0827 11.2521 11.6261 12.0648 10.8135C12.8774 10.0008 13.334 8.89862 13.334 7.74935M8.45898 0.166016C8.13398 0.166016 7.91732 0.393516 7.91732 0.707682V3.95768H6.83398V1.24935C6.83398 1.24935 4.39648 2.18102 4.39648 5.31185C4.39648 5.31185 3.58398 5.46352 3.58398 6.66602H14.4173C14.3632 5.46352 13.6048 5.31185 13.6048 5.31185C13.6048 2.18102 11.1673 1.24935 11.1673 1.24935V3.95768H10.084V0.707682C10.084 0.393516 9.87815 0.166016 9.54232 0.166016H8.45898Z" />
    </g>
  </symbol>
  <symbol id="iconServices" viewBox="0 0 20 18">
    <g>
      <path
        d="M19.6944 16.2016L15.8799 12.3545C16.2521 11.4162 16.066 10.1964 15.2287 9.4457C14.3914 8.60121 13.1819 8.41355 12.1585 8.88271L13.9262 10.6655L12.6237 11.9792L10.763 10.1025C10.2978 11.1347 10.4839 12.3545 11.3212 13.2928C12.1585 14.1373 13.2749 14.325 14.2053 13.9496L18.0197 17.7968C18.2058 17.9844 18.4849 17.9844 18.5779 17.7968L19.5083 16.8584C19.7874 16.5769 19.7874 16.2954 19.6944 16.2016ZM10.4839 15.0756H0.25V13.199C0.25 11.1347 3.59927 9.4457 7.69282 9.4457C8.15799 9.4457 8.62317 9.4457 8.99531 9.53953C8.7162 10.1025 8.62317 10.6655 8.62317 11.3223C8.62317 12.8237 9.36745 14.2311 10.4839 15.0756ZM7.69282 0.0625C5.64604 0.0625 3.97141 1.75148 3.97141 3.81578C3.97141 5.88009 5.64604 7.56906 7.69282 7.56906C9.73959 7.56906 11.4142 5.88009 11.4142 3.81578C11.4142 1.75148 9.73959 0.0625 7.69282 0.0625Z" />
    </g>
  </symbol>
  <symbol id="iconVibration" viewBox="0 0 22 22">
    <g>
      <path
        d="M21.8327 0.166016V2.33268C19.9477 2.33268 18.5827 7.29435 17.456 11.2919C15.9502 16.7085 14.531 21.8327 10.9993 21.8327C7.46768 21.8327 6.04852 16.7085 4.54268 11.2919C3.41602 7.29435 2.05102 2.33268 0.166016 2.33268V0.166016C3.69768 0.166016 5.11685 5.29018 6.62268 10.7068C7.74935 14.7043 9.11435 19.666 10.9993 19.666C12.8843 19.666 14.2494 14.7043 15.376 10.7068C16.8819 5.29018 18.301 0.166016 21.8327 0.166016Z" />
    </g>
  </symbol>
  <symbol id="iconIndustry" viewBox="0 0 22 20">
    <g>
      <path
        d="M4.52426 1.94108C4.51715 1.72174 4.55419 1.50319 4.63318 1.29844C4.71217 1.09368 4.83151 0.90689 4.98409 0.749151C5.13668 0.591411 5.31941 0.465943 5.52143 0.380196C5.72344 0.29445 5.94064 0.250175 6.1601 0.25H11.541C12.4293 0.25 13.1552 0.9585 13.1725 1.849C13.2104 3.76433 13.4628 10.5915 15.1008 17.5833H16.1842C15.1431 13.1373 14.6621 8.7585 14.44 5.66667H15.8028C16.7843 5.66667 17.4874 6.50408 17.4603 7.39458C17.4235 8.65233 17.5253 12.1981 19.3529 17.5833H20.7493C21.0367 17.5833 21.3122 17.6975 21.5154 17.9006C21.7185 18.1038 21.8327 18.3793 21.8327 18.6667C21.8327 18.954 21.7185 19.2295 21.5154 19.4327C21.3122 19.6359 21.0367 19.75 20.7493 19.75H1.24935C0.962031 19.75 0.686481 19.6359 0.483317 19.4327C0.280152 19.2295 0.166016 18.954 0.166016 18.6667C0.166016 18.3793 0.280152 18.1038 0.483317 17.9006C0.686481 17.6975 0.962031 17.5833 1.24935 17.5833H2.6111C4.62068 10.6673 4.58602 3.89542 4.52426 1.94108Z" />
    </g>
  </symbol>
  <symbol id="iconCompany" viewBox="0 0 22 21">
    <g>
      <path
        d="M1.24935 18.5833H2.33268V4.88997C2.33271 4.54887 2.44008 4.21643 2.63957 3.93975C2.83906 3.66307 3.12056 3.45617 3.44418 3.34839L12.1108 0.460219C12.3551 0.378869 12.6152 0.356713 12.8697 0.395577C13.1242 0.434441 13.3658 0.533212 13.5746 0.683755C13.7834 0.834297 13.9535 1.0323 14.0708 1.26146C14.1881 1.49062 14.2493 1.74436 14.2493 2.0018V18.5833H15.3327V8.82247C15.3327 8.74236 15.3505 8.66326 15.3848 8.59087C15.4191 8.51848 15.4691 8.45459 15.531 8.40382C15.593 8.35305 15.6655 8.31665 15.7432 8.29725C15.8209 8.27785 15.902 8.27594 15.9805 8.29164L18.3595 8.7683C18.7278 8.84191 19.0591 9.04078 19.2973 9.3311C19.5355 9.62142 19.6658 9.98528 19.666 10.3608V18.5833H20.7493C21.0367 18.5833 21.3122 18.6974 21.5154 18.9006C21.7185 19.1038 21.8327 19.3793 21.8327 19.6666C21.8327 19.954 21.7185 20.2295 21.5154 20.4327C21.3122 20.6358 21.0367 20.75 20.7493 20.75H1.24935C0.962031 20.75 0.686481 20.6358 0.483317 20.4327C0.280152 20.2295 0.166016 19.954 0.166016 19.6666C0.166016 19.3793 0.280152 19.1038 0.483317 18.9006C0.686481 18.6974 0.962031 18.5833 1.24935 18.5833Z"
        stroke-width="0" />
    </g>
  </symbol>
  <symbol id="iconArticles" viewBox="0 0 20 21">
    <g>
      <path
        d="M14.3333 0.25C14.88 0.249827 15.4064 0.456274 15.8073 0.827955C16.2081 1.19964 16.4536 1.70908 16.4946 2.25417L16.5 2.41667V7.83333H18.125C18.529 7.83335 18.9184 7.98383 19.2175 8.25542C19.5165 8.52701 19.7036 8.90024 19.7424 9.30233L19.75 9.45833V17.5833C19.75 18.4123 19.4333 19.21 18.8646 19.8131C18.2959 20.4163 17.5182 20.7793 16.6907 20.8279L16.5 20.8333H2.41667C1.87004 20.8335 1.34355 20.6271 0.94274 20.2554C0.541927 19.8837 0.296414 19.3743 0.255417 18.8292L0.25 18.6667V2.41667C0.249827 1.87004 0.456274 1.34355 0.827955 0.94274C1.19964 0.541927 1.70908 0.296414 2.25417 0.255417L2.41667 0.25H14.3333ZM17.5833 10H16.5V18.6667C16.7873 18.6667 17.0629 18.5525 17.266 18.3494C17.4692 18.1462 17.5833 17.8707 17.5833 17.5833V10ZM8.91667 11.0833H5.66667C5.39055 11.0836 5.12497 11.1894 4.92418 11.3789C4.7234 11.5685 4.60258 11.8275 4.5864 12.1032C4.57022 12.3788 4.6599 12.6502 4.83712 12.862C5.01434 13.0737 5.26573 13.2098 5.53992 13.2424L5.66667 13.25H8.91667C9.19279 13.2497 9.45837 13.144 9.65915 12.9544C9.85993 12.7649 9.98075 12.5058 9.99694 12.2302C10.0131 11.9545 9.92344 11.6831 9.74621 11.4713C9.56899 11.2596 9.3176 11.1235 9.04342 11.0909L8.91667 11.0833ZM11.0833 5.66667H5.66667C5.37935 5.66667 5.1038 5.7808 4.90063 5.98397C4.69747 6.18713 4.58333 6.46268 4.58333 6.75C4.58333 7.03732 4.69747 7.31287 4.90063 7.51603C5.1038 7.7192 5.37935 7.83333 5.66667 7.83333H11.0833C11.3707 7.83333 11.6462 7.7192 11.8494 7.51603C12.0525 7.31287 12.1667 7.03732 12.1667 6.75C12.1667 6.46268 12.0525 6.18713 11.8494 5.98397C11.6462 5.7808 11.3707 5.66667 11.0833 5.66667Z"
        stroke-width="0" />
    </g>
  </symbol>
  <symbol id="iconContacts" viewBox="0 0 22 22">
    <g>
      <path fill-rule="evenodd" clip-rule="evenodd"
        d="M15.9313 21.9771C14.3713 21.9197 9.95017 21.3087 5.32 16.6796C0.690919 12.0494 0.0810017 7.62943 0.0225017 6.06835C-0.0641649 3.68935 1.758 1.3786 3.86292 0.476184C4.11639 0.366732 4.39397 0.32506 4.66841 0.355258C4.94285 0.385456 5.20472 0.486486 5.42833 0.648434C7.16167 1.9116 8.35767 3.8226 9.38467 5.32518C9.61063 5.65531 9.70725 6.05703 9.6561 6.4538C9.60496 6.85057 9.40963 7.21465 9.10734 7.47668L6.99375 9.04643C6.89164 9.12017 6.81976 9.22847 6.79147 9.3512C6.76317 9.47394 6.78039 9.60277 6.83992 9.71377C7.31875 10.5837 8.17025 11.8794 9.14525 12.8544C10.1213 13.8294 11.4777 14.7372 12.4083 15.2702C12.5249 15.3357 12.6623 15.354 12.792 15.3214C12.9218 15.2887 13.0341 15.2076 13.1059 15.0947L14.4818 13.0006C14.7347 12.6646 15.1078 12.4395 15.523 12.3725C15.9382 12.3054 16.3632 12.4016 16.7091 12.6409C18.2333 13.6961 20.0122 14.8715 21.3143 16.5388C21.4894 16.764 21.6008 17.0321 21.6368 17.3151C21.6728 17.5981 21.6322 17.8856 21.5191 18.1475C20.6123 20.2633 18.3178 22.0649 15.9313 21.9771Z"
        stroke-width="0" />
    </g>
  </symbol>
  <symbol id="iconDealer" viewBox="0 0 26 20">
    <g>
      <path
        d="M18.2 10C15.6853 10 13.65 7.84727 13.65 5.1875C13.65 2.52773 15.6853 0.375 18.2 0.375C20.7147 0.375 22.75 2.52773 22.75 5.1875C22.75 7.84727 20.7147 10 18.2 10ZM15.08 11.375H15.4172C16.2622 11.8047 17.2006 12.0625 18.2 12.0625C19.1994 12.0625 20.1338 11.8047 20.9828 11.375H21.32C23.9038 11.375 26 13.5922 26 16.325V17.5625C26 18.7012 25.1266 19.625 24.05 19.625H12.35C11.2734 19.625 10.4 18.7012 10.4 17.5625V16.325C10.4 13.5922 12.4963 11.375 15.08 11.375ZM6.5 10C4.34688 10 2.6 8.15234 2.6 5.875C2.6 3.59766 4.34688 1.75 6.5 1.75C8.65313 1.75 10.4 3.59766 10.4 5.875C10.4 8.15234 8.65313 10 6.5 10ZM4.55 11.375H4.70438C5.26906 11.5813 5.86625 11.7188 6.5 11.7188C7.13375 11.7188 7.73094 11.5813 8.29563 11.375H8.45C9.27875 11.375 10.0425 11.6285 10.7128 12.0367C9.72156 13.1668 9.1 14.6664 9.1 16.325V17.975C9.1 18.0695 9.12031 18.1598 9.12438 18.25H1.95C0.873438 18.25 0 17.3262 0 16.1875C0 13.5277 2.03531 11.375 4.55 11.375Z" />
    </g>
  </symbol>
  <symbol id="iconBearings" viewBox="0 0 84 84">
    <g>
      <path
        d="M42 68.25C56.4975 68.25 68.25 56.4975 68.25 42C68.25 27.5025 56.4975 15.75 42 15.75C27.5025 15.75 15.75 27.5025 15.75 42C15.75 56.4975 27.5025 68.25 42 68.25Z" />
      <path
        d="M42 78.75C34.7316 78.75 27.6263 76.5947 21.5828 72.5565C15.5393 68.5184 10.829 62.7788 8.04744 56.0636C5.26592 49.3484 4.53815 41.9593 5.95616 34.8305C7.37416 27.7016 10.8743 21.1534 16.0138 16.0138C21.1534 10.8743 27.7016 7.37416 34.8305 5.95616C41.9593 4.53815 49.3484 5.26592 56.0636 8.04744C62.7788 10.829 68.5184 15.5393 72.5565 21.5828C76.5947 27.6263 78.75 34.7316 78.75 42C78.7389 51.7433 74.8635 61.0844 67.9739 67.9739C61.0844 74.8635 51.7433 78.7389 42 78.75ZM42 10.5C35.7699 10.5 29.6797 12.3475 24.4996 15.8087C19.3194 19.27 15.282 24.1896 12.8978 29.9455C10.5137 35.7014 9.88985 42.035 11.1053 48.1454C12.3207 54.2558 15.3208 59.8685 19.7262 64.2739C24.1315 68.6792 29.7443 71.6793 35.8547 72.8948C41.9651 74.1102 48.2987 73.4864 54.0545 71.1022C59.8104 68.7181 64.73 64.6806 68.1913 59.5005C71.6526 54.3203 73.5 48.2301 73.5 42C73.4903 33.6487 70.1684 25.6422 64.2631 19.7369C58.3578 13.8316 50.3514 10.5097 42 10.5Z" />
    </g>
  </symbol>
  <symbol id="iconAdvice" viewBox="0 0 51 65">
    <g>
      <rect x="20.5" y="8" width="10" height="57" rx="5" />
      <rect x="0.5" y="18.2002" width="10" height="46.8" rx="5" />
      <rect x="40.5" width="10" height="64" rx="5" />
    </g>
  </symbol>
  <symbol id="iconHelp" viewBox="0 0 81 72">
    <g>
      <path
        d="M48.3975 29.714C47.6994 29.0103 46.7526 28.615 45.7653 28.615C44.7781 28.615 43.8313 29.0103 43.1331 29.714L40.5009 32.3679C39.1042 33.7756 37.2101 34.5663 35.2352 34.5659C33.2603 34.5656 31.3665 33.7743 29.9703 32.3661C28.5741 30.9578 27.7899 29.0481 27.7902 27.057C27.7906 25.0658 28.5754 23.1564 29.9721 21.7486L50.9329 0.607663C55.8955 -0.530368 61.0876 -0.0620088 65.771 1.94614C70.4543 3.9543 74.3906 7.40002 77.02 11.7934C79.6493 16.1867 80.838 21.304 80.417 26.4176C79.996 31.5313 77.9867 36.3809 74.6749 40.277L66.8267 48.2912L48.3975 29.714ZM7.59284 7.15416C11.4453 3.27047 16.4843 0.810285 21.8952 0.171353C27.3061 -0.467579 32.7725 0.752088 37.4108 3.63317L24.704 16.4409C21.9327 19.2059 20.3473 22.9564 20.2885 26.887C20.2297 30.8176 21.702 34.6146 24.3894 37.4627C27.0767 40.3108 30.7647 41.9827 34.6612 42.1194C38.5578 42.2561 42.3521 40.8466 45.2292 38.1937L45.7653 37.6757L61.5623 53.6028L45.7653 69.5261C44.369 70.9335 42.4754 71.7241 40.5009 71.7241C38.5265 71.7241 36.6329 70.9335 35.2365 69.5261L7.58912 41.6584C5.34161 39.3927 3.55877 36.7028 2.34241 33.7423C1.12606 30.7819 0.5 27.6088 0.5 24.4044C0.5 21.2 1.12606 18.0269 2.34241 15.0665C3.55877 12.106 5.34161 9.41612 7.58912 7.15041L7.59284 7.15416Z" />
    </g>
  </symbol>
  <symbol id="iconChart" viewBox="0 0 167 168">
    <g>
      <path
        d="M83.3333 134C97.2222 134 109.028 129.139 118.75 119.417C128.472 109.695 133.333 97.8892 133.333 84.0003C133.333 70.1114 128.472 58.3059 118.75 48.5837C109.028 38.8614 97.2222 34.0003 83.3333 34.0003V84.0003L47.9167 119.417C52.7778 124 58.2306 127.578 64.275 130.15C70.3194 132.723 76.6722 134.006 83.3333 134ZM83.3333 167.334C71.8055 167.334 60.9722 165.145 50.8333 160.767C40.6944 156.389 31.875 150.453 24.375 142.959C16.875 135.459 10.9389 126.639 6.56667 116.5C2.19445 106.361 0.00555556 95.5281 0 84.0003C0 72.4725 2.18889 61.6392 6.56667 51.5003C10.9444 41.3614 16.8806 32.542 24.375 25.042C31.875 17.542 40.6944 11.6059 50.8333 7.23366C60.9722 2.86144 71.8055 0.672548 83.3333 0.666992C94.8611 0.666992 105.694 2.85588 115.833 7.23366C125.972 11.6114 134.792 17.5475 142.292 25.042C149.792 32.542 155.731 41.3614 160.108 51.5003C164.486 61.6392 166.672 72.4725 166.667 84.0003C166.667 95.5281 164.478 106.361 160.1 116.5C155.722 126.639 149.786 135.459 142.292 142.959C134.792 150.459 125.972 156.398 115.833 160.775C105.694 165.153 94.8611 167.339 83.3333 167.334ZM83.3333 150.667C101.944 150.667 117.708 144.209 130.625 131.292C143.542 118.375 150 102.611 150 84.0003C150 65.3892 143.542 49.6253 130.625 36.7087C117.708 23.792 101.944 17.3337 83.3333 17.3337C64.7222 17.3337 48.9583 23.792 36.0417 36.7087C23.125 49.6253 16.6667 65.3892 16.6667 84.0003C16.6667 102.611 23.125 118.375 36.0417 131.292C48.9583 144.209 64.7222 150.667 83.3333 150.667Z" />
    </g>
  </symbol>
  <symbol id="iconFactor" viewBox="0 0 168 168">
    <g>
      <path
        d="M100.666 67.3337V54.667C100.666 48.7503 94.7493 44.7503 89.2493 46.917L58.9993 59.0003V55.0003C58.9993 49.0003 52.916 44.917 47.416 47.3337L10.7493 63.0003C4.66602 65.667 0.666016 71.667 0.666016 78.3337V150.667C0.666016 159.834 8.16602 167.334 17.3327 167.334H150.666C159.833 167.334 167.333 159.834 167.333 150.667V67.3337H100.666ZM58.9993 125.667C58.9993 130.25 55.2493 134 50.666 134C46.0827 134 42.3327 130.25 42.3327 125.667V109C42.3327 104.417 46.0827 100.667 50.666 100.667C55.2493 100.667 58.9993 104.417 58.9993 109V125.667ZM92.3327 125.667C92.3327 130.25 88.5827 134 83.9993 134C79.416 134 75.666 130.25 75.666 125.667V109C75.666 104.417 79.416 100.667 83.9993 100.667C88.5827 100.667 92.3327 104.417 92.3327 109V125.667ZM125.666 125.667C125.666 130.25 121.916 134 117.333 134C112.749 134 108.999 130.25 108.999 125.667V109C108.999 104.417 112.749 100.667 117.333 100.667C121.916 100.667 125.666 104.417 125.666 109V125.667ZM151.666 0.666992H141.416C137.166 0.666992 133.666 3.83366 133.166 8.00033L127.333 54.8337H165.666L159.916 8.00033C159.416 3.83366 155.833 0.666992 151.666 0.666992Z" />
    </g>
  </symbol>
  <symbol id="iconDetail" viewBox="0 0 151 200">
    <g>
      <path d="M38.168 100V50H113.168V100H38.168Z" />
      <path
        d="M25.668 0C19.0376 0 12.6787 2.63392 7.9903 7.32233C3.30189 12.0107 0.667969 18.3696 0.667969 25V175C0.667969 181.63 3.30189 187.989 7.9903 192.678C12.6787 197.366 19.0376 200 25.668 200H125.668C132.298 200 138.657 197.366 143.346 192.678C148.034 187.989 150.668 181.63 150.668 175V25C150.668 18.3696 148.034 12.0107 143.346 7.32233C138.657 2.63392 132.298 0 125.668 0L25.668 0ZM25.668 18.75C25.668 20.4076 25.0095 21.9973 23.8374 23.1694C22.6653 24.3415 21.0756 25 19.418 25C17.7604 25 16.1707 24.3415 14.9986 23.1694C13.8265 21.9973 13.168 20.4076 13.168 18.75C13.168 17.0924 13.8265 15.5027 14.9986 14.3306C16.1707 13.1585 17.7604 12.5 19.418 12.5C21.0756 12.5 22.6653 13.1585 23.8374 14.3306C25.0095 15.5027 25.668 17.0924 25.668 18.75ZM138.168 18.75C138.168 20.4076 137.509 21.9973 136.337 23.1694C135.165 24.3415 133.576 25 131.918 25C130.26 25 128.671 24.3415 127.499 23.1694C126.326 21.9973 125.668 20.4076 125.668 18.75C125.668 17.0924 126.326 15.5027 127.499 14.3306C128.671 13.1585 130.26 12.5 131.918 12.5C133.576 12.5 135.165 13.1585 136.337 14.3306C137.509 15.5027 138.168 17.0924 138.168 18.75ZM19.418 137.5C21.0756 137.5 22.6653 136.842 23.8374 135.669C25.0095 134.497 25.668 132.908 25.668 131.25C25.668 129.592 25.0095 128.003 23.8374 126.831C22.6653 125.658 21.0756 125 19.418 125C17.7604 125 16.1707 125.658 14.9986 126.831C13.8265 128.003 13.168 129.592 13.168 131.25C13.168 132.908 13.8265 134.497 14.9986 135.669C16.1707 136.842 17.7604 137.5 19.418 137.5ZM138.168 131.25C138.168 132.908 137.509 134.497 136.337 135.669C135.165 136.842 133.576 137.5 131.918 137.5C130.26 137.5 128.671 136.842 127.499 135.669C126.326 134.497 125.668 132.908 125.668 131.25C125.668 129.592 126.326 128.003 127.499 126.831C128.671 125.658 130.26 125 131.918 125C133.576 125 135.165 125.658 136.337 126.831C137.509 128.003 138.168 129.592 138.168 131.25ZM35.043 37.5H116.293C118.779 37.5 121.164 38.4877 122.922 40.2459C124.68 42.004 125.668 44.3886 125.668 46.875V103.125C125.668 105.611 124.68 107.996 122.922 109.754C121.164 111.512 118.779 112.5 116.293 112.5H35.043C32.5566 112.5 30.172 111.512 28.4138 109.754C26.6557 107.996 25.668 105.611 25.668 103.125V46.875C25.668 44.3886 26.6557 42.004 28.4138 40.2459C30.172 38.4877 32.5566 37.5 35.043 37.5ZM38.168 150H113.168C116.483 150 119.663 151.317 122.007 153.661C124.351 156.005 125.668 159.185 125.668 162.5V187.5H113.168V162.5H103.793V187.5H91.293V162.5H81.918V187.5H69.418V162.5H60.043V187.5H47.543V162.5H38.168V187.5H25.668V162.5C25.668 159.185 26.9849 156.005 29.3291 153.661C31.6733 151.317 34.8528 150 38.168 150Z" />
    </g>
  </symbol>
  <symbol id="iconTG" viewBox="0 0 30 30">
    <g>
      <path
        d="M15 0.00390625C6.72 0.00390625 0 6.72391 0 15.0039C0 23.2839 6.72 30.0039 15 30.0039C23.28 30.0039 30 23.2839 30 15.0039C30 6.72391 23.28 0.00390625 15 0.00390625ZM21.96 10.2039C21.735 12.5739 20.76 18.3339 20.265 20.9889C20.055 22.1139 19.635 22.4889 19.245 22.5339C18.375 22.6089 17.715 21.9639 16.875 21.4089C15.555 20.5389 14.805 19.9989 13.53 19.1589C12.045 18.1839 13.005 17.6439 13.86 16.7739C14.085 16.5489 17.925 13.0539 18 12.7389C18.0104 12.6912 18.009 12.6417 17.996 12.5946C17.9829 12.5476 17.9585 12.5044 17.925 12.4689C17.835 12.3939 17.715 12.4239 17.61 12.4389C17.475 12.4689 15.375 13.8639 11.28 16.6239C10.68 17.0289 10.14 17.2389 9.66 17.2239C9.12 17.2089 8.1 16.9239 7.335 16.6689C6.39 16.3689 5.655 16.2039 5.715 15.6789C5.745 15.4089 6.12 15.1389 6.825 14.8539C11.205 12.9489 14.115 11.6889 15.57 11.0889C19.74 9.34891 20.595 9.04891 21.165 9.04891C21.285 9.04891 21.57 9.07891 21.75 9.22891C21.9 9.34891 21.945 9.51391 21.96 9.63391C21.945 9.72391 21.975 9.99391 21.96 10.2039Z" />
    </g>
  </symbol>
  <symbol id="iconYT" viewBox="0 0 30 22">
    <g>
      <path
        d="M12 15.5039L19.785 11.0039L12 6.50391V15.5039ZM29.34 3.75891C29.535 4.46391 29.67 5.40891 29.76 6.60891C29.865 7.80891 29.91 8.84391 29.91 9.74391L30 11.0039C30 14.2889 29.76 16.7039 29.34 18.2489C28.965 19.5989 28.095 20.4689 26.745 20.8439C26.04 21.0389 24.75 21.1739 22.77 21.2639C20.82 21.3689 19.035 21.4139 17.385 21.4139L15 21.5039C8.715 21.5039 4.8 21.2639 3.255 20.8439C1.905 20.4689 1.035 19.5989 0.66 18.2489C0.465 17.5439 0.33 16.5989 0.24 15.3989C0.135 14.1989 0.0899999 13.1639 0.0899999 12.2639L0 11.0039C0 7.71891 0.24 5.30391 0.66 3.75891C1.035 2.40891 1.905 1.53891 3.255 1.16391C3.96 0.968906 5.25 0.833906 7.23 0.743906C9.18 0.638906 10.965 0.593906 12.615 0.593906L15 0.503906C21.285 0.503906 25.2 0.743906 26.745 1.16391C28.095 1.53891 28.965 2.40891 29.34 3.75891Z" />
    </g>
  </symbol>
  <symbol id="iconMedal" viewBox="0 0 110 179">
    <g>
      <path
        d="M74.9666 106.16L84.0376 107.088V179L58.9821 152.942V111.485L66.2592 114.947L74.9666 106.16ZM35.0334 106.16L25.9576 107.088V179L51.0127 152.942V111.485L43.736 114.947L35.0334 106.16ZM103.745 61.1067L106.68 71.0583L97.8686 76.8447L97.1307 87.1843L86.8187 89.6844L82.5026 99.1458L71.931 98.0582L64.5496 105.485L55 100.942L45.4504 105.485L38.069 98.0336L27.4974 99.1213L23.1813 89.6603L12.8693 87.1843L12.1314 76.8591L3.29454 71.0533L6.2303 61.102L0 52.7186L6.25028 44.3445L3.29454 34.4128L12.1114 28.6264L12.8494 18.3008L23.1813 15.8252L27.4974 6.36423L38.069 7.45146L45.4504 0L55 4.54388L64.5496 0L71.931 7.45146L82.5026 6.36423L86.8187 15.8252L97.1307 18.3253L97.8686 28.6505L106.68 34.4369L103.745 44.3885L110 52.7186L103.745 61.1067ZM84.0823 52.7186C84.0823 47.1587 82.3896 41.7236 79.218 37.1007C76.0465 32.4777 71.5388 28.8746 66.2647 26.7469C60.9907 24.6192 55.1873 24.0625 49.5884 25.1472C43.9896 26.2319 38.8467 28.9093 34.8101 32.8407C30.7736 36.7722 28.0246 41.7812 26.9109 47.2343C25.7972 52.6874 26.3688 58.3397 28.5534 63.4764C30.738 68.6132 34.4374 73.0036 39.1839 76.0925C43.9304 79.1815 49.5108 80.8302 55.2193 80.8302C62.8706 80.8186 70.2051 77.8531 75.6154 72.5836C81.0257 67.3142 84.0704 60.1707 84.0823 52.7186ZM55.2193 32.3737C51.088 32.3737 47.0495 33.5669 43.6144 35.8023C40.1794 38.0378 37.5021 41.2152 35.9211 44.9326C34.3401 48.6501 33.9264 52.7407 34.7323 56.6871C35.5383 60.6335 37.5277 64.2586 40.4489 67.1038C43.3702 69.9491 47.0921 71.8867 51.144 72.6718C55.1959 73.4568 59.3958 73.054 63.2127 71.5142C67.0295 69.9744 70.2919 67.3669 72.5872 64.0213C74.8825 60.6757 76.1076 56.7424 76.1077 52.7186C76.0919 47.329 73.8856 42.1647 69.9712 38.355C66.0569 34.5453 60.7531 32.4001 55.2193 32.3885V32.3737Z" />
    </g>
  </symbol>
  <symbol id="iconDownload" viewBox="0 0 22 22">
    <g>
      <path
        d="M20 14V18C20 18.5304 19.7893 19.0391 19.4142 19.4142C19.0391 19.7893 18.5304 20 18 20H4C3.46957 20 2.96086 19.7893 2.58579 19.4142C2.21071 19.0391 2 18.5304 2 18V14M6 9L11 14M11 14L16 9M11 14V2"
        stroke-width="3" stroke-linecap="round" stroke-linejoin="round" />
    </g>
  </symbol>
  <symbol id="iconShare" viewBox="0 0 19 22">
    <g>
      <path
        d="M7 11C7 11.663 6.73661 12.2989 6.26777 12.7678C5.79893 13.2366 5.16304 13.5 4.5 13.5C3.83696 13.5 3.20107 13.2366 2.73223 12.7678C2.26339 12.2989 2 11.663 2 11C2 10.337 2.26339 9.70107 2.73223 9.23223C3.20107 8.76339 3.83696 8.5 4.5 8.5C5.16304 8.5 5.79893 8.76339 6.26777 9.23223C6.73661 9.70107 7 10.337 7 11Z"
        stroke-width="3" />
      <path d="M12 5.5L7 9M12 16.5L7 13" stroke-width="3" stroke-linecap="round" />
      <path
        d="M17 17.5C17 18.163 16.7366 18.7989 16.2678 19.2678C15.7989 19.7366 15.163 20 14.5 20C13.837 20 13.2011 19.7366 12.7322 19.2678C12.2634 18.7989 12 18.163 12 17.5C12 16.837 12.2634 16.2011 12.7322 15.7322C13.2011 15.2634 13.837 15 14.5 15C15.163 15 15.7989 15.2634 16.2678 15.7322C16.7366 16.2011 17 16.837 17 17.5ZM17 4.5C17 5.16304 16.7366 5.79893 16.2678 6.26777C15.7989 6.73661 15.163 7 14.5 7C13.837 7 13.2011 6.73661 12.7322 6.26777C12.2634 5.79893 12 5.16304 12 4.5C12 3.83696 12.2634 3.20107 12.7322 2.73223C13.2011 2.26339 13.837 2 14.5 2C15.163 2 15.7989 2.26339 16.2678 2.73223C16.7366 3.20107 17 3.83696 17 4.5Z"
        stroke-width="3" />
    </g>
  </symbol>
  <symbol id="iconDate" viewBox="0 0 18 20">
    <g>
      <path
        d="M16.5 2H13.5V0.5H12V2H6V0.5H4.5V2H1.5C0.675 2 0 2.675 0 3.5V18.5C0 19.325 0.675 20 1.5 20H16.5C17.325 20 18 19.325 18 18.5V3.5C18 2.675 17.325 2 16.5 2ZM16.5 18.5H1.5V8H16.5V18.5ZM16.5 6.5H1.5V3.5H4.5V5H6V3.5H12V5H13.5V3.5H16.5V6.5Z" />
    </g>
  </symbol>
  <symbol id="iconLocation" viewBox="0 0 18 24">
    <g>
      <path
        d="M15.249 13.41C14.463 15.003 13.398 16.59 12.309 18.015C11.2759 19.3584 10.1713 20.6453 9 21.87C7.82862 20.6453 6.72403 19.3584 5.691 18.015C4.602 16.59 3.537 15.003 2.751 13.41C1.956 11.8005 1.5 10.293 1.5 9C1.5 7.01088 2.29018 5.10322 3.6967 3.6967C5.10322 2.29018 7.01088 1.5 9 1.5C10.9891 1.5 12.8968 2.29018 14.3033 3.6967C15.7098 5.10322 16.5 7.01088 16.5 9C16.5 10.293 16.0425 11.8005 15.249 13.41ZM9 24C9 24 18 15.471 18 9C18 6.61305 17.0518 4.32387 15.364 2.63604C13.6761 0.948211 11.3869 0 9 0C6.61305 0 4.32387 0.948211 2.63604 2.63604C0.948211 4.32387 3.55683e-08 6.61305 0 9C0 15.471 9 24 9 24Z" />
      <path
        d="M9 12C8.20435 12 7.44129 11.6839 6.87868 11.1213C6.31607 10.5587 6 9.79565 6 9C6 8.20435 6.31607 7.44129 6.87868 6.87868C7.44129 6.31607 8.20435 6 9 6C9.79565 6 10.5587 6.31607 11.1213 6.87868C11.6839 7.44129 12 8.20435 12 9C12 9.79565 11.6839 10.5587 11.1213 11.1213C10.5587 11.6839 9.79565 12 9 12ZM9 13.5C10.1935 13.5 11.3381 13.0259 12.182 12.182C13.0259 11.3381 13.5 10.1935 13.5 9C13.5 7.80653 13.0259 6.66193 12.182 5.81802C11.3381 4.97411 10.1935 4.5 9 4.5C7.80653 4.5 6.66193 4.97411 5.81802 5.81802C4.97411 6.66193 4.5 7.80653 4.5 9C4.5 10.1935 4.97411 11.3381 5.81802 12.182C6.66193 13.0259 7.80653 13.5 9 13.5Z" />
    </g>
  </symbol>
  <symbol id="iconVibrationInstruments" fill="none" viewBox="0 0 28 26">
    <g>
      <path
        d="M26 12.9997H23.3334C22.1414 12.9997 21.1174 11.857 20.9854 10.333C20.5907 5.73301 19.9867 2.33301 17.32 2.33301C14.6534 2.33301 13.9867 7.10901 13.9867 12.9997C13.9867 18.8903 13.32 23.6663 10.6534 23.6663C7.9867 23.6663 7.38404 20.2703 6.98804 15.6663C6.8547 14.137 5.83204 12.9997 4.63737 12.9997H1.9707"
        stroke-width="3" stroke-linecap="round" stroke-linejoin="round" />
    </g>
  </symbol>
  <symbol id="iconVibrationControl" viewBox="0 0 20 20">
    <g>
      <rect x="0.5" y="0.5" width="3" height="19" rx="1.5" fill="white" />
      <rect x="8.5" y="3.5" width="3" height="13" rx="1.5" fill="white" />
      <rect x="16.5" y="0.5" width="3" height="19" rx="1.5" fill="white" />
    </g>
  </symbol>
  <symbol id="iconCheckbox" viewBox="0 0 12 9">
    <g>
      <path
        d="M11.647 0.307183C11.8643 0.51212 11.9911 0.79476 11.9995 1.09296C12.008 1.39115 11.8974 1.6805 11.6921 1.89737L5.30199 8.64815C5.19843 8.75736 5.07397 8.84476 4.93598 8.90517C4.79799 8.96559 4.64927 8.99779 4.49859 8.99989C4.34791 9.00199 4.19835 8.97393 4.05872 8.91738C3.91909 8.86083 3.79224 8.77694 3.68566 8.67065L0.302654 5.29526C0.103463 5.08197 -0.00497884 4.79987 0.000175687 4.50838C0.00533022 4.2169 0.123678 3.93879 0.330287 3.73265C0.536896 3.5265 0.815634 3.40842 1.10778 3.40328C1.39992 3.39813 1.68266 3.50633 1.89643 3.70507L4.46 6.26137L10.0532 0.352188C10.2586 0.135409 10.5419 0.0088904 10.8408 0.000450867C11.1397 -0.00798867 11.4297 0.102341 11.647 0.307183Z" />
    </g>
  </symbol>
  <symbol id="iconCharacteristics" viewBox="0 0 47 52">
    <g>
      <path
        d="M4.9987 0.667969C3.76102 0.667969 2.57404 1.15963 1.69887 2.0348C0.823696 2.90997 0.332031 4.09696 0.332031 5.33463V42.668C0.332031 45.258 2.4087 47.3346 4.9987 47.3346H18.9987V42.668H4.9987V5.33463H21.332V17.0013H32.9987V24.0013H37.6654V14.668L23.6654 0.667969M32.9987 28.668C32.8561 28.6653 32.7171 28.713 32.6062 28.8026C32.4953 28.8922 32.4194 29.018 32.392 29.158L31.9487 32.238C31.2487 32.5413 30.572 32.9146 29.9654 33.3346L27.072 32.168C26.8154 32.168 26.512 32.168 26.3487 32.4713L24.0154 36.508C23.8754 36.7646 23.922 37.068 24.1554 37.2546L26.6287 39.168C26.5356 39.943 26.5356 40.7263 26.6287 41.5013L24.1554 43.4146C24.0505 43.5046 23.9795 43.6276 23.954 43.7633C23.9286 43.8991 23.9502 44.0395 24.0154 44.1613L26.3487 48.198C26.4887 48.5013 26.792 48.5013 27.072 48.5013L29.9654 47.3346C30.572 47.7546 31.2254 48.1513 31.9487 48.4313L32.392 51.5113C32.4387 51.7913 32.672 52.0013 32.9987 52.0013H37.6654C37.922 52.0013 38.1787 51.7913 38.2254 51.5113L38.6687 48.4313C39.3687 48.128 39.9987 47.7546 40.6287 47.3346L43.4987 48.5013C43.802 48.5013 44.1054 48.5013 44.2687 48.198L46.602 44.1613C46.6672 44.0395 46.6888 43.8991 46.6634 43.7633C46.6379 43.6276 46.5669 43.5046 46.462 43.4146L43.9654 41.5013C44.012 41.1046 44.0587 40.7313 44.0587 40.3346C44.0587 39.938 44.0354 39.5646 43.9654 39.168L46.4387 37.2546C46.5436 37.1647 46.6146 37.0417 46.64 36.9059C46.6655 36.7702 46.6439 36.6298 46.5787 36.508L44.2454 32.4713C44.1054 32.168 43.802 32.168 43.4987 32.168L40.6287 33.3346C39.9987 32.9146 39.3687 32.518 38.6454 32.238L38.202 29.158C38.1873 29.0251 38.1248 28.902 38.026 28.8119C37.9272 28.7217 37.7991 28.6706 37.6654 28.668M35.332 36.8346C37.2687 36.8346 38.832 38.398 38.832 40.3346C38.832 42.2713 37.2687 43.8346 35.332 43.8346C33.372 43.8346 31.832 42.2713 31.832 40.3346C31.832 38.398 33.3954 36.8346 35.332 36.8346Z" />
    </g>
  </symbol>
  <symbol id="iconManagement" viewBox="0 0 48 48">
    <g>
      <path
        d="M17.5841 47.3346L16.6508 39.868C16.1452 39.6735 15.6692 39.4402 15.2228 39.168C14.7763 38.8957 14.3384 38.6041 13.9091 38.293L6.96745 41.2096L0.550781 30.1263L6.55911 25.5763C6.52023 25.3041 6.50078 25.042 6.50078 24.79V23.215C6.50078 22.9614 6.52023 22.6985 6.55911 22.4263L0.550781 17.8763L6.96745 6.79297L13.9091 9.70964C14.3369 9.39853 14.7841 9.10686 15.2508 8.83464C15.7174 8.56241 16.1841 8.32908 16.6508 8.13464L17.5841 0.667969H30.4174L31.3508 8.13464C31.8563 8.32908 32.3331 8.56241 32.7811 8.83464C33.2291 9.10686 33.6662 9.39853 34.0925 9.70964L41.0341 6.79297L47.4508 17.8763L41.4425 22.4263C41.4813 22.6985 41.5008 22.9614 41.5008 23.215V24.7876C41.5008 25.0412 41.4619 25.3041 41.3841 25.5763L47.3924 30.1263L40.9758 41.2096L34.0925 38.293C33.6647 38.6041 33.2174 38.8957 32.7508 39.168C32.2841 39.4402 31.8174 39.6735 31.3508 39.868L30.4174 47.3346H17.5841ZM24.1175 32.168C26.373 32.168 28.298 31.3708 29.8925 29.7763C31.4869 28.1819 32.2841 26.2569 32.2841 24.0013C32.2841 21.7457 31.4869 19.8207 29.8925 18.2263C28.298 16.6319 26.373 15.8346 24.1175 15.8346C21.823 15.8346 19.8879 16.6319 18.3121 18.2263C16.7363 19.8207 15.9492 21.7457 15.9508 24.0013C15.9508 26.2569 16.7387 28.1819 18.3144 29.7763C19.8902 31.3708 21.8246 32.168 24.1175 32.168Z" />
    </g>
  </symbol>
  <symbol id="iconVideo" viewBox="0 0 47 34">
    <g>
      <path
        d="M6.5 0C4.77609 0 3.12279 0.684819 1.90381 1.90381C0.684819 3.12279 0 4.77609 0 6.5V27.5C0 29.2239 0.684819 30.8772 1.90381 32.0962C3.12279 33.3152 4.77609 34 6.5 34H25.5C27.2239 34 28.8772 33.3152 30.0962 32.0962C31.3152 30.8772 32 29.2239 32 27.5V6.5C32 4.77609 31.3152 3.12279 30.0962 1.90381C28.8772 0.684819 27.2239 0 25.5 0H6.5ZM42.246 30.286L35 23.186V11L42.224 3.744C43.798 2.164 46.496 3.278 46.496 5.508V28.5C46.496 30.716 43.828 31.836 42.246 30.286Z" />
    </g>
  </symbol>
  <symbol id="iconFiles" fill="none" viewBox="0 0 42 52">
    <g>
      <path
        d="M26.834 2.66797H7.00065C5.76297 2.66797 4.57599 3.15963 3.70082 4.0348C2.82565 4.90997 2.33398 6.09696 2.33398 7.33464V44.668C2.33398 45.9056 2.82565 47.0926 3.70082 47.9678C4.57599 48.843 5.76297 49.3346 7.00065 49.3346H35.0006C36.2383 49.3346 37.4253 48.843 38.3005 47.9678C39.1757 47.0926 39.6673 45.9056 39.6673 44.668V15.5013L26.834 2.66797Z"
        stroke-width="4" stroke-linecap="round" stroke-linejoin="round" />
      <path d="M25.6667 2.66797V16.668H39.6667M21 40.0013V26.0013M21 40.0013L14 33.0013M21 40.0013L28 33.0013"
        stroke-width="4" stroke-linecap="round" stroke-linejoin="round" />
    </g>
  </symbol>
  <symbol id="iconInstallation" fill="none" viewBox="0 0 70 74">
    <g>
      <path d="M65.4505 15.2142L56.5832 3.75H13.4177L4.52246 15.2142" stroke="white" stroke-width="7"
        stroke-linecap="round" stroke-linejoin="round" />
      <path
        d="M3.5 17.75C3.5 16.8217 3.86875 15.9315 4.52513 15.2751C5.1815 14.6187 6.07174 14.25 7 14.25H63C63.9283 14.25 64.8185 14.6187 65.4749 15.2751C66.1313 15.9315 66.5 16.8217 66.5 17.75V65C66.5 66.3924 65.9469 67.7277 64.9623 68.7123C63.9777 69.6969 62.6424 70.25 61.25 70.25H8.75C7.35761 70.25 6.02226 69.6969 5.03769 68.7123C4.05312 67.7277 3.5 66.3924 3.5 65V17.75Z"
        stroke="white" stroke-width="7" stroke-linejoin="round" />
      <path d="M49 42.25L35 56.25L21 42.25M34.986 28.25V56.25" stroke="white" stroke-width="7" stroke-linecap="round"
        stroke-linejoin="round" />
    </g>
  </symbol>
  <symbol id="iconMetering" viewBox="0 0 87 87">
    <g>
      <path
        d="M84.3761 22.1772L64.8231 2.62801C64.1339 1.9385 63.3156 1.39154 62.4149 1.01837C61.5143 0.645197 60.5489 0.453125 59.574 0.453125C58.5991 0.453125 57.6337 0.645197 56.7331 1.01837C55.8324 1.39154 55.0141 1.9385 54.3249 2.62801L2.6241 54.3251C1.9346 55.0143 1.38764 55.8326 1.01446 56.7333C0.641291 57.6339 0.449219 58.5993 0.449219 59.5742C0.449219 60.5491 0.641291 61.5145 1.01446 62.4151C1.38764 63.3158 1.9346 64.1341 2.6241 64.8233L22.177 84.3725C22.8663 85.062 23.6846 85.609 24.5852 85.9822C25.4859 86.3553 26.4512 86.5474 27.4261 86.5474C28.4011 86.5474 29.3664 86.3553 30.2671 85.9822C31.1677 85.609 31.986 85.062 32.6753 84.3725L84.3761 32.6755C85.0656 31.9862 85.6125 31.1679 85.9857 30.2673C86.3589 29.3666 86.5509 28.4013 86.5509 27.4263C86.5509 26.4514 86.3589 25.4861 85.9857 24.5854C85.6125 23.6848 85.0656 22.8664 84.3761 22.1772ZM27.4243 77.0249L9.98289 59.5835L19.7501 49.8089L28.4782 58.537C29.3148 59.3736 30.4494 59.8435 31.6325 59.8435C32.8156 59.8435 33.9502 59.3736 34.7868 58.537C35.6234 57.7004 36.0933 56.5658 36.0933 55.3827C36.0933 54.1996 35.6234 53.065 34.7868 52.2284L26.0587 43.5003L31.6251 37.9339L40.3495 46.662C41.1861 47.4986 42.3207 47.9685 43.5038 47.9685C44.6869 47.9685 45.8215 47.4986 46.6581 46.662C47.4947 45.8254 47.9646 44.6908 47.9646 43.5077C47.9646 42.3246 47.4947 41.19 46.6581 40.3534L37.9337 31.6253L43.5001 26.0589L52.2282 34.787C53.0648 35.6236 54.1994 36.0935 55.3825 36.0935C56.5656 36.0935 57.7002 35.6236 58.5368 34.787C59.3734 33.9504 59.8433 32.8158 59.8433 31.6327C59.8433 30.4496 59.3734 29.315 58.5368 28.4784L49.8087 19.7503L59.587 9.97566L77.0284 27.4171L27.4243 77.0249Z" />
    </g>
  </symbol>
  <symbol id="iconStrength" viewBox="0 0 87 86">
    <g>
      <g clip-path="url(#clip0_2549_5231)">
        <path
          d="M23.1887 65.6887L9.95793 78.9195C9.57893 79.2296 9.18269 79.3846 8.76923 79.3846C8.35577 79.3846 7.95954 79.2296 7.58053 78.9195C7.27043 78.5749 7.11538 78.1787 7.11538 77.7308C7.11538 77.2829 7.27043 76.8866 7.58053 76.5421L20.8113 63.3113C21.1558 63.0012 21.5521 62.8462 22 62.8462C22.4479 62.8462 22.8442 63.0012 23.1887 63.3113C23.4988 63.6558 23.6538 64.0521 23.6538 64.5C23.6538 64.9479 23.4988 65.3441 23.1887 65.6887ZM31.9231 67.8077V84.3462C31.9231 84.8285 31.768 85.2248 31.4579 85.5349C31.1478 85.8449 30.7516 86 30.2692 86C29.7869 86 29.3906 85.8449 29.0805 85.5349C28.7704 85.2248 28.6154 84.8285 28.6154 84.3462V67.8077C28.6154 67.3253 28.7704 66.9291 29.0805 66.619C29.3906 66.3089 29.7869 66.1538 30.2692 66.1538C30.7516 66.1538 31.1478 66.3089 31.4579 66.619C31.768 66.9291 31.9231 67.3253 31.9231 67.8077ZM20.3462 56.2308C20.3462 56.7131 20.1911 57.1094 19.881 57.4195C19.5709 57.7296 19.1747 57.8846 18.6923 57.8846H2.15385C1.67147 57.8846 1.27524 57.7296 0.965144 57.4195C0.655048 57.1094 0.5 56.7131 0.5 56.2308C0.5 55.7484 0.655048 55.3522 0.965144 55.0421C1.27524 54.732 1.67147 54.5769 2.15385 54.5769H18.6923C19.1747 54.5769 19.5709 54.732 19.881 55.0421C20.1911 55.3522 20.3462 55.7484 20.3462 56.2308ZM85.6731 62.8462C85.6731 66.9808 84.2087 70.478 81.28 73.3377L73.6827 80.8834C70.8229 83.7432 67.3257 85.1731 63.1911 85.1731C59.022 85.1731 55.5076 83.7087 52.6478 80.78L35.3858 63.4663C34.6623 62.7428 33.9387 61.778 33.2151 60.5721L45.5673 59.6418L59.6767 73.8029C60.607 74.7332 61.7784 75.2069 63.1911 75.2242C64.6038 75.2414 65.7752 74.7849 66.7055 73.8546L74.3029 66.3089C75.2676 65.3441 75.75 64.1899 75.75 62.8462C75.75 61.4679 75.2676 60.2965 74.3029 59.3317L60.1418 45.119L61.0721 32.7668C62.278 33.4904 63.2428 34.2139 63.9663 34.9375L81.3317 52.3029C84.226 55.266 85.6731 58.7804 85.6731 62.8462ZM53.7849 25.4279L41.4327 26.3582L27.3233 12.1971C26.3586 11.2324 25.1871 10.75 23.8089 10.75C22.4651 10.75 21.2937 11.2151 20.2945 12.1454L12.6971 19.6911C11.7324 20.6558 11.25 21.8101 11.25 23.1538C11.25 24.5321 11.7324 25.7035 12.6971 26.6683L26.8582 40.8293L25.9279 53.2332C24.722 52.5096 23.7572 51.7861 23.0337 51.0625L5.66827 33.6971C2.77404 30.734 1.32692 27.2196 1.32692 23.1538C1.32692 19.0192 2.79127 15.522 5.71995 12.6623L13.3173 5.11659C16.1771 2.25681 19.6743 0.826923 23.8089 0.826923C27.978 0.826923 31.4924 2.29127 34.3522 5.21995L51.6142 22.5337C52.3377 23.2572 53.0613 24.222 53.7849 25.4279ZM86.5 29.7692C86.5 30.2516 86.3449 30.6478 86.0349 30.9579C85.7248 31.268 85.3285 31.4231 84.8462 31.4231H68.3077C67.8253 31.4231 67.4291 31.268 67.119 30.9579C66.8089 30.6478 66.6538 30.2516 66.6538 29.7692C66.6538 29.2869 66.8089 28.8906 67.119 28.5805C67.4291 28.2704 67.8253 28.1154 68.3077 28.1154H84.8462C85.3285 28.1154 85.7248 28.2704 86.0349 28.5805C86.3449 28.8906 86.5 29.2869 86.5 29.7692ZM58.3846 1.65385V18.1923C58.3846 18.6747 58.2296 19.0709 57.9195 19.381C57.6094 19.6911 57.2131 19.8462 56.7308 19.8462C56.2484 19.8462 55.8522 19.6911 55.5421 19.381C55.232 19.0709 55.0769 18.6747 55.0769 18.1923V1.65385C55.0769 1.17147 55.232 0.77524 55.5421 0.465144C55.8522 0.155048 56.2484 0 56.7308 0C57.2131 0 57.6094 0.155048 57.9195 0.465144C58.2296 0.77524 58.3846 1.17147 58.3846 1.65385ZM79.4195 9.45793L66.1887 22.6887C65.8097 22.9988 65.4135 23.1538 65 23.1538C64.5865 23.1538 64.1903 22.9988 63.8113 22.6887C63.5012 22.3442 63.3462 21.9479 63.3462 21.5C63.3462 21.0521 63.5012 20.6558 63.8113 20.3113L77.0421 7.08053C77.3866 6.77043 77.7829 6.61538 78.2308 6.61538C78.6787 6.61538 79.0749 6.77043 79.4195 7.08053C79.7296 7.42508 79.8846 7.82131 79.8846 8.26923C79.8846 8.71715 79.7296 9.11338 79.4195 9.45793Z" />
      </g>
      <defs>
        <clipPath id="clip0_2549_5231">
          <rect width="86" height="86" fill="white" transform="translate(0.5)" />
        </clipPath>
      </defs>
    </g>
  </symbol>
  <symbol id="iconDisplay" viewBox="0 0 96 95">
    <g>
      <path
        d="M78.6 14C82.0213 14 85.3025 15.3433 87.7217 17.7344C90.1409 20.1255 91.5 23.3685 91.5 26.75V69.25C91.5 72.6315 90.1409 75.8745 87.7217 78.2656C85.3025 80.6567 82.0213 82 78.6 82H18.4C14.9787 82 11.6975 80.6567 9.27832 78.2656C6.8591 75.8745 5.5 72.6315 5.5 69.25V26.75C5.5 23.3685 6.8591 20.1255 9.27832 17.7344C11.6975 15.3433 14.9787 14 18.4 14H78.6ZM78.6 22.5H18.4C17.2596 22.5 16.1658 22.9478 15.3594 23.7448C14.553 24.5418 14.1 25.6228 14.1 26.75V69.25C14.1 70.3772 14.553 71.4582 15.3594 72.2552C16.1658 73.0522 17.2596 73.5 18.4 73.5H78.6C79.7404 73.5 80.8342 73.0522 81.6406 72.2552C82.447 71.4582 82.9 70.3772 82.9 69.25V26.75C82.9 25.6228 82.447 24.5418 81.6406 23.7448C80.8342 22.9478 79.7404 22.5 78.6 22.5ZM42.9401 32.2453C43.7462 33.0422 44.1991 34.1231 44.1991 35.25C44.1991 36.3769 43.7462 37.4578 42.9401 38.2547L30.0401 51.0047C29.2291 51.7789 28.1429 52.2073 27.0155 52.1976C25.888 52.1879 24.8095 51.741 24.0123 50.953C23.215 50.165 22.7628 49.099 22.753 47.9847C22.7432 46.8704 23.1766 45.7968 23.9599 44.9953L36.8599 32.2453C37.6663 31.4485 38.7598 31.0009 39.9 31.0009C41.0402 31.0009 42.1337 31.4485 42.9401 32.2453ZM23.9599 27.9953C24.7337 27.233 25.7721 26.7905 26.8641 26.7575C27.956 26.7246 29.0198 27.1037 29.8392 27.8178C30.6586 28.532 31.1723 29.5276 31.2759 30.6025C31.3795 31.6774 31.0653 32.751 30.397 33.6052L30.0401 34.0047L25.7401 38.2547C24.9663 39.017 23.9279 39.4595 22.836 39.4925C21.744 39.5254 20.6802 39.1463 19.8608 38.4322C19.0414 37.7181 18.5277 36.7224 18.4241 35.6475C18.3205 34.5726 18.6347 33.499 19.303 32.6448L19.6599 32.2453L23.9599 27.9953Z" />
    </g>
  </symbol>
  <symbol id="iconCharacteristicDescription" viewBox="0 0 19 19">
    <g>
      <path
        d="M4.25 0.5C3.25544 0.5 2.30161 0.895088 1.59835 1.59835C0.895088 2.30161 0.5 3.25544 0.5 4.25V14.75C0.5 15.7446 0.895088 16.6984 1.59835 17.4016C2.30161 18.1049 3.25544 18.5 4.25 18.5H14.75C15.7446 18.5 16.6984 18.1049 17.4016 17.4016C18.1049 16.6984 18.5 15.7446 18.5 14.75V4.25C18.5 3.25544 18.1049 2.30161 17.4016 1.59835C16.6984 0.895088 15.7446 0.5 14.75 0.5H4.25ZM5.75 5H13.25C13.4489 5 13.6397 5.07902 13.7803 5.21967C13.921 5.36032 14 5.55109 14 5.75C14 5.94891 13.921 6.13968 13.7803 6.28033C13.6397 6.42098 13.4489 6.5 13.25 6.5H5.75C5.55109 6.5 5.36032 6.42098 5.21967 6.28033C5.07902 6.13968 5 5.94891 5 5.75C5 5.55109 5.07902 5.36032 5.21967 5.21967C5.36032 5.07902 5.55109 5 5.75 5ZM5.75 8.75H10.25C10.4489 8.75 10.6397 8.82902 10.7803 8.96967C10.921 9.11032 11 9.30109 11 9.5C11 9.69891 10.921 9.88968 10.7803 10.0303C10.6397 10.171 10.4489 10.25 10.25 10.25H5.75C5.55109 10.25 5.36032 10.171 5.21967 10.0303C5.07902 9.88968 5 9.69891 5 9.5C5 9.30109 5.07902 9.11032 5.21967 8.96967C5.36032 8.82902 5.55109 8.75 5.75 8.75ZM5.75 12.5H13.25C13.4489 12.5 13.6397 12.579 13.7803 12.7197C13.921 12.8603 14 13.0511 14 13.25C14 13.4489 13.921 13.6397 13.7803 13.7803C13.6397 13.921 13.4489 14 13.25 14H5.75C5.55109 14 5.36032 13.921 5.21967 13.7803C5.07902 13.6397 5 13.4489 5 13.25C5 13.0511 5.07902 12.8603 5.21967 12.7197C5.36032 12.579 5.55109 12.5 5.75 12.5Z" />
    </g>
  </symbol>
  <symbol id="iconCharacteristicFeatures" viewBox="0 0 21 15">
    <g>
      <path
        d="M19.5 0.5C19.7652 0.5 20.0196 0.605357 20.2071 0.792893C20.3946 0.98043 20.5 1.23478 20.5 1.5C20.5 1.76522 20.3946 2.01957 20.2071 2.20711C20.0196 2.39464 19.7652 2.5 19.5 2.5H1.5C1.23478 2.5 0.98043 2.39464 0.792893 2.20711C0.605357 2.01957 0.5 1.76522 0.5 1.5C0.5 1.23478 0.605357 0.98043 0.792893 0.792893C0.98043 0.605357 1.23478 0.5 1.5 0.5H19.5ZM12.5 12.5C12.7652 12.5 13.0196 12.6054 13.2071 12.7929C13.3946 12.9804 13.5 13.2348 13.5 13.5C13.5 13.7652 13.3946 14.0196 13.2071 14.2071C13.0196 14.3946 12.7652 14.5 12.5 14.5H1.5C1.23478 14.5 0.98043 14.3946 0.792893 14.2071C0.605357 14.0196 0.5 13.7652 0.5 13.5C0.5 13.2348 0.605357 12.9804 0.792893 12.7929C0.98043 12.6054 1.23478 12.5 1.5 12.5H12.5ZM13.5 7.5C13.5 7.23478 13.3946 6.98043 13.2071 6.79289C13.0196 6.60536 12.7652 6.5 12.5 6.5H1.5C1.23478 6.5 0.98043 6.60536 0.792893 6.79289C0.605357 6.98043 0.5 7.23478 0.5 7.5C0.5 7.76522 0.605357 8.01957 0.792893 8.20711C0.98043 8.39464 1.23478 8.5 1.5 8.5H12.5C12.7652 8.5 13.0196 8.39464 13.2071 8.20711C13.3946 8.01957 13.5 7.76522 13.5 7.5ZM17.793 8.793C17.9816 8.61084 18.2342 8.51005 18.4964 8.51233C18.7586 8.5146 19.0094 8.61977 19.1948 8.80518C19.3802 8.99059 19.4854 9.2414 19.4877 9.5036C19.49 9.7658 19.3892 10.0184 19.207 10.207L17.914 11.5L19.207 12.793C19.3892 12.9816 19.49 13.2342 19.4877 13.4964C19.4854 13.7586 19.3802 14.0094 19.1948 14.1948C19.0094 14.3802 18.7586 14.4854 18.4964 14.4877C18.2342 14.49 17.9816 14.3892 17.793 14.207L15.793 12.207C15.6055 12.0195 15.5002 11.7652 15.5002 11.5C15.5002 11.2348 15.6055 10.9805 15.793 10.793L17.793 8.793Z" />
    </g>
  </symbol>
  <symbol id="iconCharacteristictTechnical" viewBox="0 0 21 21">
    <g>
      <path
        d="M17.8 7.4L21 10.6L19.6 12L16.4 8.8C16.05 9 15.675 9.16667 15.275 9.3C14.875 9.43333 14.45 9.5 14 9.5C12.75 9.5 11.6877 9.06267 10.813 8.188C9.93833 7.31333 9.50067 6.25067 9.5 5C9.5 3.75 9.93767 2.68767 10.813 1.813C11.6883 0.938333 12.7507 0.500667 14 0.5C15.25 0.5 16.3127 0.937667 17.188 1.813C18.0633 2.68833 18.5007 3.75067 18.5 5C18.5 5.45 18.4333 5.875 18.3 6.275C18.1667 6.675 18 7.05 17.8 7.4ZM14 7.5C14.7 7.5 15.2917 7.25833 15.775 6.775C16.2583 6.29167 16.5 5.7 16.5 5C16.5 4.3 16.2583 3.70833 15.775 3.225C15.2917 2.74167 14.7 2.5 14 2.5C13.3 2.5 12.7083 2.74167 12.225 3.225C11.7417 3.70833 11.5 4.3 11.5 5C11.5 5.7 11.7417 6.29167 12.225 6.775C12.7083 7.25833 13.3 7.5 14 7.5ZM15.95 11.2L18.5 13.75V18.5C18.5 19.05 18.3043 19.521 17.913 19.913C17.5217 20.305 17.0507 20.5007 16.5 20.5H2.5C1.95 20.5 1.47933 20.3043 1.088 19.913C0.696667 19.5217 0.500667 19.0507 0.5 18.5V4.5C0.5 3.95 0.696 3.47933 1.088 3.088C1.48 2.69667 1.95067 2.50067 2.5 2.5H8C7.81667 2.91667 7.69167 3.346 7.625 3.788C7.55833 4.23 7.525 4.66733 7.525 5.1C7.525 6.91667 8.16667 8.43333 9.45 9.65C10.7333 10.8667 12.2583 11.475 14.025 11.475C14.3417 11.475 14.6583 11.454 14.975 11.412C15.2917 11.37 15.6167 11.2993 15.95 11.2Z" />
    </g>
  </symbol>
  <symbol id="iconCharacteristictEquipment" viewBox="0 0 25 25">
    <g>
      <path
        d="M20.75 6.5H17C17 5.30653 16.5259 4.16193 15.682 3.31802C14.8381 2.47411 13.6935 2 12.5 2C11.3065 2 10.1619 2.47411 9.31802 3.31802C8.47411 4.16193 8 5.30653 8 6.5H4.25C3.85218 6.5 3.47064 6.65804 3.18934 6.93934C2.90804 7.22064 2.75 7.60218 2.75 8V19.25C2.75 19.6478 2.90804 20.0294 3.18934 20.3107C3.47064 20.592 3.85218 20.75 4.25 20.75H20.75C21.1478 20.75 21.5294 20.592 21.8107 20.3107C22.092 20.0294 22.25 19.6478 22.25 19.25V8C22.25 7.60218 22.092 7.22064 21.8107 6.93934C21.5294 6.65804 21.1478 6.5 20.75 6.5ZM12.5 3.5C13.2956 3.5 14.0587 3.81607 14.6213 4.37868C15.1839 4.94129 15.5 5.70435 15.5 6.5H9.5C9.5 5.70435 9.81607 4.94129 10.3787 4.37868C10.9413 3.81607 11.7044 3.5 12.5 3.5Z" />
    </g>
  </symbol>
  <symbol id="iconCharacteristictCertificates" viewBox="0 0 17 21">
    <g>
      <path
          d="M9.5 7.5V2L15 7.5M2.5 0.5C1.39 0.5 0.5 1.39 0.5 2.5V18.5C0.5 19.0304 0.710714 19.5391 1.08579 19.9142C1.46086 20.2893 1.96957 20.5 2.5 20.5H14.5C15.0304 20.5 15.5391 20.2893 15.9142 19.9142C16.2893 19.5391 16.5 19.0304 16.5 18.5V6.5L10.5 0.5H2.5Z" />
    </g>
  </symbol>
  <symbol id="iconCharacteristictPO" viewBox="0 0 20 16" >
    <g>
      <path fill-rule="evenodd" clip-rule="evenodd" d="M16.447 1.1063C16.684 1.22494 16.8642 1.43283 16.948 1.68428C17.0319 1.93573 17.0124 2.21017 16.894 2.4473L15.72 4.7973C17.0421 5.71803 18.1219 6.94493 18.8671 8.37331C19.6124 9.8017 20.0011 11.3892 20 13.0003V14.0003C20 14.5307 19.7893 15.0394 19.4142 15.4145C19.0391 15.7896 18.5304 16.0003 18 16.0003H2C1.46957 16.0003 0.960862 15.7896 0.585789 15.4145C0.210717 15.0394 2.98844e-06 14.5307 2.98844e-06 14.0003V13.0003C-0.00124333 11.389 0.387355 9.80133 1.13264 8.37276C1.87792 6.94418 2.95776 5.71713 4.28 4.7963L3.106 2.4473C3.04244 2.32942 3.0032 2.19998 2.99061 2.06665C2.97802 1.93332 2.99234 1.79882 3.03273 1.67113C3.07311 1.54344 3.13873 1.42516 3.22569 1.32331C3.31265 1.22146 3.41918 1.13812 3.53897 1.07823C3.65875 1.01834 3.78935 0.983115 3.923 0.974654C4.05666 0.966193 4.19065 0.984664 4.31703 1.02897C4.44341 1.07328 4.55961 1.14252 4.65872 1.23259C4.75783 1.32266 4.83784 1.43172 4.894 1.5533L6.028 3.8203C7.28181 3.27763 8.6338 2.99851 10 3.0003C11.411 3.0003 12.755 3.2923 13.972 3.8203L15.106 1.5533C15.2247 1.31628 15.4325 1.13607 15.684 1.05225C15.9354 0.968437 16.2099 0.987876 16.447 1.1063ZM5.5 9.0003C5.10218 9.0003 4.72065 9.15833 4.43934 9.43964C4.15804 9.72094 4 10.1025 4 10.5003C4 10.8981 4.15804 11.2797 4.43934 11.561C4.72065 11.8423 5.10218 12.0003 5.5 12.0003C5.89783 12.0003 6.27936 11.8423 6.56066 11.561C6.84197 11.2797 7 10.8981 7 10.5003C7 10.1025 6.84197 9.72094 6.56066 9.43964C6.27936 9.15833 5.89783 9.0003 5.5 9.0003ZM14.5 9.0003C14.1022 9.0003 13.7206 9.15833 13.4393 9.43964C13.158 9.72094 13 10.1025 13 10.5003C13 10.8981 13.158 11.2797 13.4393 11.561C13.7206 11.8423 14.1022 12.0003 14.5 12.0003C14.8978 12.0003 15.2794 11.8423 15.5607 11.561C15.842 11.2797 16 10.8981 16 10.5003C16 10.1025 15.842 9.72094 15.5607 9.43964C15.2794 9.15833 14.8978 9.0003 14.5 9.0003Z" />
    </g>
  </symbol>
  <symbol id="iconCharacteristictDownload" viewBox="0 0 20 22">
    <g>
      <path d="M18.7 4.7755L16.1665 1.5H3.83349L1.29199 4.7755" />
      <path d="M18.7 4.7755L16.1665 1.5H3.83349L1.29199 4.7755"  stroke-width="2" stroke-linecap="round" stroke-linejoin="round"/>
      <path d="M1 5.5C1 5.23478 1.10536 4.98043 1.29289 4.79289C1.48043 4.60536 1.73478 4.5 2 4.5H18C18.2652 4.5 18.5196 4.60536 18.7071 4.79289C18.8946 4.98043 19 5.23478 19 5.5V19C19 19.3978 18.842 19.7794 18.5607 20.0607C18.2794 20.342 17.8978 20.5 17.5 20.5H2.5C2.10218 20.5 1.72064 20.342 1.43934 20.0607C1.15804 19.7794 1 19.3978 1 19V5.5Z"   stroke-width="2" stroke-linejoin="round"/>
      <path d="M14 12.5L10 16.5L6 12.5M9.996 8.5V16.5"  stroke-width="2" stroke-linecap="round" stroke-linejoin="round"/>
    </g>
  </symbol>
  <symbol id="iconCharacteristictAccessories" viewBox="0 0 24 24">
    <g>
      <path d="M17.45 14.5498C16.1 13.1998 13.9 13.1998 12.55 14.5498L10.55 16.5498C9.7 17.3998 8.3 17.3998 7.45 16.5498C6.6 15.6998 6.6 14.2998 7.45 13.4498L9.7 11.1998L8.3 9.7998L6.05 12.0498C4.4 13.6998 4.4 16.3498 6.05 17.9498C7.7 19.5998 10.35 19.5998 11.95 17.9498L13.95 15.9498C14.55 15.3998 15.45 15.3998 16.05 15.9498C16.6 16.5498 16.6 17.4498 16.05 18.0498L13.5 20.5998L14.9 21.9998L17.45 19.4498C18.8 18.0998 18.8 15.8998 17.45 14.5498Z" />
      <path d="M8.05 11.45C6.65 10.05 6.65 7.8 8.05 6.45L11.45 3.05C12.85 1.65 15.1 1.65 16.45 3.05C17.85 4.45 17.85 6.7 16.45 8.05L13.05 11.45C11.65 12.85 9.45 12.85 8.05 11.45Z" />
      <path d="M14 7.5C15.1046 7.5 16 6.60457 16 5.5C16 4.39543 15.1046 3.5 14 3.5C12.8954 3.5 12 4.39543 12 5.5C12 6.60457 12.8954 7.5 14 7.5Z" />
    </g>
  </symbol>
  <symbol id="iconCharacteristictCertificates"  viewBox="0 0 16 20" >
    <g>
      <path d="M9 7V1.5L14.5 7M2 0C0.89 0 0 0.89 0 2V18C0 18.5304 0.210714 19.0391 0.585786 19.4142C0.960859 19.7893 1.46957 20 2 20H14C14.5304 20 15.0391 19.7893 15.4142 19.4142C15.7893 19.0391 16 18.5304 16 18V6L10 0H2Z" />
    </g>
  </symbol>
  <symbol id="iconConsultation1" viewBox="0 0 240 240">
    <g>
      <g clip-path="url(#clip0_1_4)">
        <path fill-rule="evenodd" clip-rule="evenodd"
          d="M232.92 44.595C235.008 45.4284 236.799 46.8685 238.061 48.7293C239.323 50.5902 239.998 52.7866 240 55.035V184.965C239.998 187.213 239.323 189.41 238.061 191.271C236.799 193.132 235.008 194.572 232.92 195.405L124.17 238.905C121.488 239.978 118.497 239.978 115.815 238.905L7.065 195.405C4.97953 194.569 3.19208 193.128 1.93291 191.267C0.673734 189.407 0.000522899 187.212 0 184.965L0 55.035C0.000522899 52.7883 0.673734 50.5932 1.93291 48.7325C3.19208 46.8718 4.97953 45.4308 7.065 44.595L111.645 2.75999L111.705 2.74499L115.815 1.09499C118.501 0.0184856 121.499 0.0184856 124.185 1.09499L128.295 2.74499L128.355 2.75999L232.92 44.595ZM212.31 52.5L120 89.43L27.69 52.5L15 57.585V63.585L112.5 102.585V221.415L120 224.415L127.5 221.415V102.6L225 63.6V57.6L212.31 52.5Z"
          fill="white" />
      </g>
      <defs>
        <clipPath id="clip0_1_4">
          <rect width="240" height="240" fill="white" />
        </clipPath>
      </defs>
    </g>
  </symbol>
  <symbol id="iconConsultation2" viewBox="0 0 349 349">
    <g>
      <path
        d="M72.7812 0.125C53.5116 0.125 35.0312 7.77983 21.4055 21.4055C7.77983 35.0312 0.125 53.5116 0.125 72.7812V276.219C0.125 295.488 7.77983 313.969 21.4055 327.594C35.0312 341.22 53.5116 348.875 72.7812 348.875H276.219C295.488 348.875 313.969 341.22 327.594 327.594C341.22 313.969 348.875 295.488 348.875 276.219V72.7812C348.875 53.5116 341.22 35.0312 327.594 21.4055C313.969 7.77983 295.488 0.125 276.219 0.125H72.7812ZM101.844 87.3125H247.156C251.01 87.3125 254.706 88.8435 257.431 91.5686C260.157 94.2937 261.688 97.9898 261.688 101.844C261.688 105.698 260.157 109.394 257.431 112.119C254.706 114.844 251.01 116.375 247.156 116.375H101.844C97.9898 116.375 94.2937 114.844 91.5686 112.119C88.8435 109.394 87.3125 105.698 87.3125 101.844C87.3125 97.9898 88.8435 94.2937 91.5686 91.5686C94.2937 88.8435 97.9898 87.3125 101.844 87.3125ZM101.844 159.969H189.031C192.885 159.969 196.581 161.5 199.306 164.225C202.032 166.95 203.562 170.646 203.562 174.5C203.562 178.354 202.032 182.05 199.306 184.775C196.581 187.5 192.885 189.031 189.031 189.031H101.844C97.9898 189.031 94.2937 187.5 91.5686 184.775C88.8435 182.05 87.3125 178.354 87.3125 174.5C87.3125 170.646 88.8435 166.95 91.5686 164.225C94.2937 161.5 97.9898 159.969 101.844 159.969ZM101.844 232.625H247.156C251.01 232.625 254.706 234.156 257.431 236.881C260.157 239.606 261.688 243.302 261.688 247.156C261.688 251.01 260.157 254.706 257.431 257.431C254.706 260.157 251.01 261.688 247.156 261.688H101.844C97.9898 261.688 94.2937 260.157 91.5686 257.431C88.8435 254.706 87.3125 251.01 87.3125 247.156C87.3125 243.302 88.8435 239.606 91.5686 236.881C94.2937 234.156 97.9898 232.625 101.844 232.625Z"
        fill="white" />
    </g>
  </symbol>
  <symbol id="iconogwheel" viewBox="0 0 547 547">
    <g>
      <path
        d="M302.984 4.99177e-05C311.025 4.99177e-05 318.218 5.0051 320.925 12.499L340.234 66.0229C347.154 67.746 353.089 69.469 358.121 71.2741C363.619 73.2433 370.702 76.2245 379.454 80.2997L424.418 56.5051C428.088 54.5607 432.289 53.8589 436.392 54.5049C440.495 55.1509 444.278 57.1099 447.173 60.088L486.721 100.976C491.972 106.419 493.449 114.378 490.495 121.325L469.408 170.746C472.909 177.173 475.699 182.671 477.832 187.265C480.13 192.271 482.974 199.163 486.365 208.051L535.513 229.111C542.898 232.256 547.465 239.641 546.973 247.545L543.363 304.296C543.116 307.983 541.792 311.516 539.556 314.458C537.319 317.399 534.268 319.619 530.782 320.843L484.232 337.39C482.892 343.817 481.497 349.314 480.02 353.964C477.638 361.144 474.918 368.208 471.87 375.133L495.254 426.824C496.905 430.456 497.349 434.521 496.522 438.424C495.695 442.326 493.641 445.862 490.659 448.513L446.188 488.225C443.259 490.829 439.605 492.476 435.714 492.946C431.823 493.415 427.882 492.684 424.418 490.85L378.579 466.564C371.407 470.361 364.009 473.713 356.425 476.601L336.405 484.095L318.628 533.325C317.31 536.93 314.934 540.053 311.81 542.284C308.687 544.514 304.961 545.748 301.124 545.824L249.159 547C245.219 547.103 241.345 545.983 238.068 543.794C234.791 541.605 232.274 538.454 230.862 534.775L209.912 479.336C202.764 476.893 195.686 474.248 188.688 471.405C182.964 468.927 177.327 466.254 171.786 463.391L119.821 485.599C116.397 487.06 112.622 487.494 108.956 486.848C105.289 486.202 101.89 484.505 99.1714 481.962L60.7173 445.887C57.8543 443.213 55.9046 439.706 55.1438 435.863C54.383 432.02 54.8498 428.035 56.478 424.472L78.823 375.789C75.8512 370.023 73.0961 364.148 70.5633 358.176C67.6068 350.866 64.8706 343.469 62.3583 335.995L13.4018 321.089C9.42238 319.886 5.95149 317.403 3.52816 314.025C1.10482 310.647 -0.135338 306.564 0.000284656 302.409L1.91478 249.87C2.05106 246.442 3.12192 243.116 5.01157 240.253C6.90122 237.389 9.53773 235.097 12.636 233.624L63.9993 208.954C66.3787 200.229 68.4573 193.447 70.2898 188.496C72.87 181.884 75.7353 175.387 78.8777 169.023L56.6148 121.981C54.9253 118.409 54.4122 114.392 55.1494 110.51C55.8865 106.628 57.8359 103.079 60.7173 100.375L99.1167 64.1085C101.809 61.5696 105.177 59.8627 108.816 59.1931C112.455 58.5235 116.21 58.9198 119.629 60.3342L171.539 81.7765C177.283 77.9475 182.48 74.857 187.184 72.3681C192.79 69.387 200.284 66.2691 209.72 62.905L227.771 12.5537C229.106 8.86879 231.545 5.6856 234.756 3.43879C237.967 1.19199 241.794 -0.00892296 245.713 4.99177e-05H302.984ZM274.157 191.97C228.564 191.97 191.614 228.482 191.614 273.555C191.614 318.628 228.564 355.167 274.157 355.167C319.722 355.167 356.672 318.628 356.672 273.555C356.672 228.482 319.749 191.97 274.157 191.97Z"
        fill="#FAFAFA" />
    </g>
  </symbol>
  <symbol id="iconSpecialist" viewBox="0 0 422 387">
    <g>
      <path
        d="M420.297 348.853L337.847 265.696C345.891 245.414 341.869 219.047 323.77 202.822C305.671 184.568 279.528 180.511 257.407 190.652L295.616 229.188L267.462 257.583L227.242 217.019C217.187 239.329 221.209 265.696 239.308 285.978C257.407 304.232 281.539 308.289 301.649 300.176L384.099 383.333C388.121 387.389 394.154 387.389 396.165 383.333L416.275 363.051C422.308 356.966 422.308 350.881 420.297 348.853ZM221.209 324.514H0V283.95C0 239.329 72.3957 202.822 160.879 202.822C170.934 202.822 180.989 202.822 189.033 204.85C183 217.019 180.989 229.188 180.989 243.386C180.989 275.837 197.077 306.261 221.209 324.514ZM160.879 0C116.638 0 80.4397 36.5079 80.4397 81.1286C80.4397 125.749 116.638 162.257 160.879 162.257C205.121 162.257 241.319 125.749 241.319 81.1286C241.319 36.5079 205.121 0 160.879 0Z"
        fill="white" />
    </g>
  </symbol>
  <symbol id="iconTechnology" viewBox="0 0 22 22">
    <g>
      <path
        d="M15.875 18.5833C16.5933 18.5833 17.2822 18.298 17.7901 17.7901C18.298 17.2822 18.5833 16.5933 18.5833 15.875C18.5833 15.1567 18.298 14.4678 17.7901 13.9599C17.2822 13.452 16.5933 13.1667 15.875 13.1667C15.1567 13.1667 14.4678 13.452 13.9599 13.9599C13.452 14.4678 13.1667 15.1567 13.1667 15.875C13.1667 16.5933 13.452 17.2822 13.9599 17.7901C14.4678 18.298 15.1567 18.5833 15.875 18.5833ZM8.83333 3.41667L11 1.25L8.83333 3.41667ZM6.125 8.83333C6.8433 8.83333 7.53217 8.54799 8.04008 8.04008C8.54799 7.53217 8.83333 6.8433 8.83333 6.125C8.83333 5.40671 8.54799 4.71783 8.04008 4.20992C7.53217 3.70201 6.8433 3.41667 6.125 3.41667C5.40671 3.41667 4.71783 3.70201 4.20992 4.20992C3.70201 4.71783 3.41667 5.40671 3.41667 6.125C3.41667 6.8433 3.70201 7.53217 4.20992 8.04008C4.71783 8.54799 5.40671 8.83333 6.125 8.83333ZM6.66667 15.3333L15.3333 6.66667L6.66667 15.3333ZM3.95833 20.75C4.67663 20.75 5.3655 20.4647 5.87341 19.9567C6.38133 19.4488 6.66667 18.76 6.66667 18.0417C6.66667 17.3234 6.38133 16.6345 5.87341 16.1266C5.3655 15.6187 4.67663 15.3333 3.95833 15.3333C3.24004 15.3333 2.55116 15.6187 2.04325 16.1266C1.53534 16.6345 1.25 17.3234 1.25 18.0417C1.25 18.76 1.53534 19.4488 2.04325 19.9567C2.55116 20.4647 3.24004 20.75 3.95833 20.75ZM18.0417 6.66667C18.76 6.66667 19.4488 6.38133 19.9567 5.87341C20.4647 5.3655 20.75 4.67663 20.75 3.95833C20.75 3.24004 20.4647 2.55116 19.9567 2.04325C19.4488 1.53534 18.76 1.25 18.0417 1.25C17.3234 1.25 16.6345 1.53534 16.1266 2.04325C15.6187 2.55116 15.3333 3.24004 15.3333 3.95833C15.3333 4.67663 15.6187 5.3655 16.1266 5.87341C16.6345 6.38133 17.3234 6.66667 18.0417 6.66667ZM11 20.75L13.1667 18.5833L11 20.75Z" />
      <path
        d="M8.83333 3.41667L11 1.25M6.66667 15.3333L15.3333 6.66667M11 20.75L13.1667 18.5833M15.875 18.5833C16.5933 18.5833 17.2822 18.298 17.7901 17.7901C18.298 17.2822 18.5833 16.5933 18.5833 15.875C18.5833 15.1567 18.298 14.4678 17.7901 13.9599C17.2822 13.452 16.5933 13.1667 15.875 13.1667C15.1567 13.1667 14.4678 13.452 13.9599 13.9599C13.452 14.4678 13.1667 15.1567 13.1667 15.875C13.1667 16.5933 13.452 17.2822 13.9599 17.7901C14.4678 18.298 15.1567 18.5833 15.875 18.5833ZM6.125 8.83333C6.84329 8.83333 7.53217 8.54799 8.04008 8.04008C8.54799 7.53217 8.83333 6.84329 8.83333 6.125C8.83333 5.40671 8.54799 4.71783 8.04008 4.20992C7.53217 3.70201 6.84329 3.41667 6.125 3.41667C5.40671 3.41667 4.71783 3.70201 4.20992 4.20992C3.70201 4.71783 3.41667 5.40671 3.41667 6.125C3.41667 6.84329 3.70201 7.53217 4.20992 8.04008C4.71783 8.54799 5.40671 8.83333 6.125 8.83333ZM3.95833 20.75C4.67663 20.75 5.3655 20.4647 5.87341 19.9567C6.38133 19.4488 6.66667 18.76 6.66667 18.0417C6.66667 17.3234 6.38133 16.6345 5.87341 16.1266C5.3655 15.6187 4.67663 15.3333 3.95833 15.3333C3.24004 15.3333 2.55116 15.6187 2.04325 16.1266C1.53534 16.6345 1.25 17.3234 1.25 18.0417C1.25 18.76 1.53534 19.4488 2.04325 19.9567C2.55116 20.4647 3.24004 20.75 3.95833 20.75ZM18.0417 6.66667C18.76 6.66667 19.4488 6.38133 19.9567 5.87341C20.4647 5.3655 20.75 4.67663 20.75 3.95833C20.75 3.24004 20.4647 2.55116 19.9567 2.04325C19.4488 1.53534 18.76 1.25 18.0417 1.25C17.3234 1.25 16.6345 1.53534 16.1266 2.04325C15.6187 2.55116 15.3333 3.24004 15.3333 3.95833C15.3333 4.67663 15.6187 5.3655 16.1266 5.87341C16.6345 6.38133 17.3234 6.66667 18.0417 6.66667Z"
        stroke-width="2" stroke-linecap="round" stroke-linejoin="round" />
    </g>
  </symbol>
  <symbol id="iconFileUpload" viewBox="0 0 82 82" >
    <g>
      <path fill-rule="evenodd" clip-rule="evenodd" d="M41.0006 0.687501C41.4113 0.687242 41.817 0.774928 42.1901 0.94453C42.5632 1.11413 42.8947 1.36163 43.1619 1.67L54.5369 14.795C55.0276 15.3619 55.2706 16.0984 55.2123 16.8424C55.154 17.5865 54.7992 18.2772 54.226 18.7625C53.6528 19.2478 52.9081 19.4881 52.1558 19.4304C51.4035 19.3728 50.7051 19.0219 50.2144 18.455L43.8444 11.105V52.25C43.8444 52.9959 43.5448 53.7113 43.0115 54.2387C42.4782 54.7662 41.7549 55.0625 41.0006 55.0625C40.2464 55.0625 39.5231 54.7662 38.9898 54.2387C38.4565 53.7113 38.1569 52.9959 38.1569 52.25V11.1013L31.7869 18.455C31.5439 18.7357 31.2474 18.9663 30.9143 19.1337C30.5812 19.3011 30.218 19.4019 29.8455 19.4304C29.473 19.459 29.0984 19.4147 28.7432 19.3001C28.388 19.1855 28.0591 19.0028 27.7753 18.7625C27.4915 18.5222 27.2583 18.2289 27.0891 17.8995C26.9199 17.57 26.8179 17.2109 26.789 16.8424C26.7602 16.474 26.8049 16.1036 26.9208 15.7523C27.0367 15.401 27.2214 15.0757 27.4644 14.795L38.8394 1.67C39.1066 1.36163 39.4381 1.11413 39.8112 0.94453C40.1842 0.774928 40.59 0.687242 41.0006 0.687501ZM22.0271 26.945C22.7814 26.941 23.5063 27.2335 24.0424 27.7582C24.5786 28.2828 24.882 28.9966 24.8861 29.7425C24.8901 30.4884 24.5943 31.2054 24.0639 31.7356C23.5334 32.2659 22.8117 32.566 22.0575 32.57C17.9132 32.5925 14.9746 32.6975 12.7414 33.1025C10.5953 33.4963 9.34782 34.1225 8.42644 35.0338C7.37615 36.0725 6.69365 37.5312 6.31827 40.2837C5.93532 43.115 5.92773 46.8687 5.92773 52.25V56C5.92773 61.385 5.93532 65.1387 6.31827 67.97C6.69365 70.7225 7.37994 72.1775 8.42644 73.22C9.47673 74.255 10.9479 74.93 13.7348 75.3012C16.5937 75.6837 20.3929 75.6875 25.834 75.6875H56.1673C61.6084 75.6875 65.4038 75.6837 68.2703 75.3012C71.0534 74.93 72.5246 74.255 73.5748 73.2162C74.6251 72.1775 75.3076 70.7225 75.683 67.97C76.066 65.1387 76.0736 61.385 76.0736 56V52.25C76.0736 46.8687 76.066 43.115 75.683 40.28C75.3076 37.5312 74.6213 36.0725 73.5748 35.0338C72.6497 34.1225 71.406 33.4963 69.2599 33.1025C67.0266 32.6975 64.0881 32.5925 59.9438 32.57C59.5704 32.568 59.201 32.4933 58.8567 32.3502C58.5125 32.207 58.2001 31.9982 57.9374 31.7356C57.6748 31.4731 57.467 31.1619 57.3259 30.8199C57.1848 30.478 57.1132 30.1118 57.1152 29.7425C57.1172 29.3732 57.1927 29.0078 57.3375 28.6673C57.4823 28.3269 57.6934 28.0179 57.9589 27.7582C58.2243 27.4984 58.539 27.2929 58.8847 27.1534C59.2305 27.0138 59.6007 26.943 59.9741 26.945C64.0767 26.9675 67.493 27.065 70.2875 27.5712C73.1616 28.0962 75.6072 29.09 77.5978 31.0588C79.8804 33.3125 80.8586 36.1587 81.3212 39.5337C81.7611 42.7812 81.7611 46.9175 81.7611 52.0437V56.2062C81.7611 61.3362 81.7611 65.4688 81.3212 68.72C80.8586 72.095 79.8804 74.9375 77.5978 77.195C75.3152 79.4525 72.4411 80.42 69.0286 80.8775C65.7413 81.3125 61.5591 81.3125 56.3759 81.3125H25.6254C20.4422 81.3125 16.26 81.3125 12.9726 80.8775C9.56015 80.4238 6.68607 79.4525 4.40348 77.195C2.1209 74.9375 1.14265 72.095 0.683859 68.72C0.240234 65.4688 0.240234 61.3325 0.240234 56.2062V52.0437C0.240234 46.9175 0.240234 42.7812 0.683859 39.53C1.13886 36.155 2.12469 33.3125 4.40348 31.055C6.39411 29.09 8.83973 28.0925 11.7138 27.5712C14.5083 27.065 17.9246 26.9675 22.0271 26.945Z" fill="#4FA1FF"/>
    </g>
  </symbol>
  <symbol id="iconHooks" viewBox="0 0 80 60">
    <g>
      <path d="M25 10L30 0H20C8.95 0 0 13.95 0 25V60H35V25H15C15 10 25 10 25 10ZM60 25C60 10 70 10 70 10L75 0H65C53.95 0 45 13.95 45 25V60H80V25H60Z" fill="#4FA1FF"/>
    </g>
  </symbol>
</svg>