<svg xmlns="http://www.w3.org/2000/svg">

<symbol id="iconLogo" viewBox="0 0 76 40">
    <g>
      <path fill-rule="evenodd" clip-rule="evenodd"
        d="M46.9149 9.72898L22.7961 33.6109H50.9007L46.9149 9.72898ZM36.7863 0.00878906H55.6055C57.736 0.00878906 59.2184 0.273167 60.0706 0.81073C60.9317 1.33948 61.4554 2.09735 61.6596 3.07554L66.7283 30.6058C66.8881 31.4166 67.1544 32.0334 67.5539 32.4653C67.9356 32.8883 68.5748 33.1879 69.4625 33.3641C70.3502 33.5316 71.6284 33.6197 73.3417 33.6197H75.0283L73.3417 37.1535C72.8357 38.2903 72.0723 39.0394 71.0248 39.4271C70.004 39.8061 68.3084 39.9911 65.9827 39.9911H4.57165C2.90277 39.9911 1.72214 39.8854 1.02973 39.6739C0.346206 39.4624 0 39.0923 0 38.5459C0 38.2286 0.124281 37.8409 0.36396 37.3914L2.1571 33.6197H4.56277C6.134 33.6197 7.43892 33.417 8.45977 33.0028C9.46287 32.5974 10.4749 31.9101 11.4602 30.9671L38.3575 4.29167C39.0765 3.60429 39.4405 3.03148 39.4405 2.5556C39.4405 1.76248 38.3131 1.2778 36.0406 1.10155L36.7863 0.00878906Z" />
    </g>
  </symbol>

  

</svg>