<svg width="40" height="40" viewBox="0 0 40 40" fill="none" xmlns="http://www.w3.org/2000/svg">
<path d="M24.0001 38H16.0001L14.8981 33.04C13.5866 32.5272 12.3601 31.8192 11.2601 30.94L6.41211 32.466L2.41211 25.538L6.15611 22.102C5.94658 20.7098 5.94658 19.2942 6.15611 17.902L2.41211 14.464L6.41211 7.536L11.2601 9.062C12.3606 8.18194 13.5878 7.47327 14.9001 6.96L16.0001 2H24.0001L25.1021 6.96C26.4136 7.47289 27.6401 8.18087 28.7401 9.06L33.5881 7.534L37.5881 14.462L33.8441 17.898C34.0538 19.2901 34.0538 20.7059 33.8441 22.098L37.5881 25.534L33.5881 32.462L28.7401 30.936C27.6404 31.8166 26.4138 32.5259 25.1021 33.04L24.0001 38Z" stroke="#4FA1FF" stroke-width="3" stroke-linecap="round" stroke-linejoin="round"/>
<path d="M14 20L18 24L26 16" stroke="#4FA1FF" stroke-width="3" stroke-linecap="round" stroke-linejoin="round"/>
</svg>
