<svg width="5" height="7" viewBox="0 0 5 7" fill="none" xmlns="http://www.w3.org/2000/svg">
<path d="M0.000331179 5.60461L0.000331363 1.39461C9.05672e-05 1.2284 0.0469241 1.06552 0.135411 0.92483C0.223897 0.784136 0.350419 0.671378 0.500331 0.599607C0.678202 0.515591 0.876097 0.483231 1.07147 0.506216C1.26683 0.5292 1.45182 0.606604 1.60533 0.729607L4.15533 2.83461C4.25065 2.91722 4.32709 3.01935 4.37948 3.13408C4.43187 3.24882 4.45898 3.37348 4.45898 3.49961C4.45898 3.62574 4.43187 3.7504 4.37948 3.86513C4.32709 3.97987 4.25065 4.082 4.15533 4.16461L1.60533 6.26961C1.45181 6.39261 1.26683 6.47001 1.07146 6.493C0.876097 6.51598 0.678202 6.48362 0.500331 6.39961C0.350419 6.32784 0.223897 6.21508 0.135411 6.07438C0.0469239 5.93369 9.03686e-05 5.77081 0.000331179 5.60461Z" fill="#D9D9D9"/>
</svg>
