<svg width="5" height="7" viewBox="0 0 5 7" fill="none" xmlns="http://www.w3.org/2000/svg">
<path d="M0.000331179 5.58703L0.000331363 1.37703C9.05672e-05 1.21082 0.0469241 1.04795 0.135411 0.907252C0.223897 0.766558 0.350419 0.6538 0.500331 0.582029C0.678202 0.498013 0.876097 0.465653 1.07147 0.488638C1.26683 0.511622 1.45182 0.589026 1.60533 0.712029L4.15533 2.81703C4.25065 2.89964 4.32709 3.00177 4.37948 3.11651C4.43187 3.23124 4.45898 3.3559 4.45898 3.48203C4.45898 3.60816 4.43187 3.73282 4.37948 3.84755C4.32709 3.96229 4.25065 4.06442 4.15533 4.14703L1.60533 6.25203C1.45181 6.37503 1.26683 6.45244 1.07146 6.47542C0.876097 6.49841 0.678202 6.46605 0.500331 6.38203C0.350419 6.31026 0.223897 6.1975 0.135411 6.05681C0.0469239 5.91611 9.03686e-05 5.75324 0.000331179 5.58703Z" fill="#484848"/>
</svg>
