<svg width="60" height="60" viewBox="0 0 60 60" fill="none" xmlns="http://www.w3.org/2000/svg">
<path d="M45.1878 3.88672L55.6203 14.7617V56.1167H16.6484V56.2517H55.7534V14.8986L45.1878 3.88672Z" fill="#909090"/>
<path d="M45.0588 3.75H16.5156V56.115H55.6206V14.7619L45.0588 3.75Z" fill="#F4F4F4"/>
<path d="M16.2273 6.5625H4.24609V19.3631H41.9336V6.5625H16.2273Z" fill="#09B024"/>
<path d="M42.1346 19.1459H4.49023V6.33594H42.1346V19.1459Z" fill="#DD2025"/>
<path d="M16.9721 8.50105H14.5215V17.501H16.449V14.4654L16.8746 14.4898C17.2882 14.4827 17.6979 14.4086 18.0877 14.2704C18.4296 14.1529 18.744 13.9672 19.0121 13.7248C19.2849 13.4938 19.5 13.2023 19.6402 12.8735C19.8283 12.327 19.8955 11.7461 19.8371 11.171C19.8254 10.7602 19.7534 10.3534 19.6234 9.96355C19.505 9.68212 19.3293 9.42842 19.1076 9.2186C18.8858 9.00877 18.6228 8.84741 18.3352 8.7448C18.0866 8.65479 17.8298 8.58948 17.5684 8.5498C17.3704 8.51925 17.1705 8.50296 16.9702 8.50105M16.6159 12.8023H16.449V10.0273H16.8109C16.9706 10.0158 17.1308 10.0403 17.2798 10.099C17.4288 10.1578 17.5626 10.2492 17.6715 10.3667C17.8971 10.6686 18.0176 11.0361 18.0146 11.4129C18.0146 11.8742 18.0146 12.2923 17.5984 12.5867C17.2985 12.7516 16.9572 12.8277 16.6159 12.8023ZM23.499 8.47667C23.2909 8.47667 23.0884 8.49167 22.9459 8.4973L22.4996 8.50855H21.0371V17.5085H22.7584C23.4162 17.5266 24.0711 17.4151 24.6859 17.1804C25.1807 16.9842 25.6189 16.6678 25.9609 16.2598C26.2934 15.8482 26.5321 15.3689 26.6602 14.8554C26.8075 14.2739 26.8794 13.6759 26.874 13.076C26.9104 12.3676 26.8555 11.6574 26.7109 10.9629C26.5736 10.4517 26.3165 9.98059 25.9609 9.58855C25.6818 9.27198 25.3403 9.01662 24.9577 8.83855C24.6292 8.68652 24.2836 8.57446 23.9284 8.5048C23.7871 8.48146 23.644 8.47079 23.5009 8.47292M23.1596 15.8548H22.9721V10.1098H22.9965C23.383 10.0653 23.7741 10.1351 24.1215 10.3104C24.3759 10.5135 24.5831 10.7694 24.729 11.0604C24.8864 11.3667 24.9771 11.7028 24.9952 12.0467C25.0121 12.4592 24.9952 12.7967 24.9952 13.076C25.0029 13.3979 24.9822 13.7197 24.9334 14.0379C24.8756 14.3646 24.7687 14.6807 24.6165 14.9754C24.4442 15.2495 24.2113 15.4804 23.9359 15.6504C23.7045 15.8 23.4306 15.8698 23.1559 15.8492M32.6809 8.50855H28.1246V17.5085H30.0521V13.9385H32.4896V12.266H30.0521V10.181H32.6771V8.50855" fill="#464648"/>
<path d="M40.8393 37.9783C40.8393 37.9783 46.8168 36.8946 46.8168 38.9365C46.8168 40.9783 43.1137 40.1477 40.8393 37.9783ZM36.4199 38.134C35.4702 38.3438 34.5447 38.651 33.658 39.0508L34.408 37.3633C35.158 35.6758 35.9362 33.3752 35.9362 33.3752C36.8311 34.8815 37.8724 36.2958 39.0449 37.5977C38.1607 37.7296 37.2844 37.9098 36.4199 38.1377V38.134ZM34.0537 25.9465C34.0537 24.1671 34.6293 23.6815 35.0774 23.6815C35.5255 23.6815 36.0299 23.8971 36.0468 25.4421C35.9008 26.9956 35.5755 28.5271 35.0774 30.0058C34.3951 28.7643 34.042 27.3687 34.0518 25.9521L34.0537 25.9465ZM25.3368 45.664C23.503 44.5671 29.1824 41.1902 30.2118 41.0815C30.2062 41.0833 27.2568 46.8115 25.3368 45.664ZM48.5624 39.1783C48.5437 38.9908 48.3749 36.9152 44.6812 37.0033C43.1415 36.9785 41.6027 37.087 40.0818 37.3277C38.6085 35.8435 37.3398 34.1693 36.3093 32.3496C36.9585 30.4735 37.3515 28.5183 37.4774 26.5371C37.423 24.2871 36.8849 22.9971 35.1599 23.0158C33.4349 23.0346 33.1837 24.544 33.4105 26.7902C33.6328 28.2997 34.052 29.7735 34.6574 31.174C34.6574 31.174 33.8605 33.6546 32.8068 36.1221C31.753 38.5896 31.033 39.8833 31.033 39.8833C29.2006 40.4798 27.4757 41.3661 25.9237 42.5083C24.3787 43.9465 23.7505 45.0508 24.5643 46.1552C25.2655 47.1077 27.7199 47.3233 29.9137 44.449C31.0793 42.9643 32.1441 41.4034 33.1012 39.7765C33.1012 39.7765 36.4462 38.8596 37.4868 38.6083C38.5274 38.3571 39.7855 38.1583 39.7855 38.1583C39.7855 38.1583 42.8399 41.2315 45.7855 41.1227C48.7312 41.014 48.5887 39.3621 48.5699 39.1821" fill="#DD2025"/>
<path d="M44.9141 3.89453V14.9064H55.4759L44.9141 3.89453Z" fill="#909090"/>
<path d="M45.0586 3.75V14.7619H55.6205L45.0586 3.75Z" fill="#F4F4F4"/>
<path d="M16.8276 8.35652H14.377V17.3565H16.312V14.3228L16.7395 14.3471C17.153 14.34 17.5627 14.2659 17.9526 14.1278C18.2944 14.0102 18.6088 13.8245 18.877 13.5821C19.1477 13.3506 19.3608 13.0591 19.4995 12.7309C19.6875 12.1843 19.7547 11.6035 19.6963 11.0284C19.6846 10.6176 19.6126 10.2107 19.4826 9.82089C19.3642 9.53947 19.1886 9.28577 18.9668 9.07594C18.745 8.86611 18.482 8.70476 18.1945 8.60214C17.9447 8.51126 17.6866 8.44531 17.4238 8.40527C17.2259 8.37472 17.026 8.35843 16.8257 8.35652M16.4713 12.6578H16.3045V9.88277H16.6682C16.8279 9.87125 16.9882 9.89577 17.1371 9.95451C17.2861 10.0132 17.42 10.1047 17.5288 10.2221C17.7544 10.524 17.8749 10.8915 17.872 11.2684C17.872 11.7296 17.872 12.1478 17.4557 12.4421C17.1558 12.6071 16.8145 12.6813 16.4732 12.6559M23.3545 8.33214C23.1463 8.33214 22.9438 8.34714 22.8013 8.35277L22.3607 8.36402H20.8982V17.364H22.6195C23.2773 17.382 23.9322 17.2706 24.547 17.0359C25.0418 16.8396 25.48 16.5232 25.822 16.1153C26.1545 15.7036 26.3932 15.2243 26.5213 14.7109C26.6686 14.1294 26.7405 13.5314 26.7351 12.9315C26.7714 12.2231 26.7166 11.5129 26.572 10.8184C26.4347 10.3072 26.1776 9.83606 25.822 9.44402C25.5429 9.12745 25.2014 8.87208 24.8188 8.69402C24.4903 8.54198 24.1447 8.42993 23.7895 8.36027C23.6482 8.33693 23.5051 8.32626 23.362 8.32839M23.0207 15.7103H22.8332V9.96527H22.8576C23.2441 9.92079 23.6352 9.99054 23.9826 10.1659C24.2369 10.369 24.4442 10.6249 24.5901 10.9159C24.7475 11.2221 24.8382 11.5583 24.8563 11.9021C24.8732 12.3146 24.8563 12.6521 24.8563 12.9315C24.864 13.2533 24.8433 13.5752 24.7945 13.8934C24.7367 14.2201 24.6298 14.5361 24.4776 14.8309C24.3052 15.1049 24.0724 15.3358 23.797 15.5059C23.5656 15.6555 23.2917 15.7253 23.017 15.7046M32.5363 8.36402H27.9801V17.364H29.9076V13.794H32.3451V12.1215H29.9076V10.0365H32.5326V8.36402" fill="white"/>
</svg>
