<svg width="13" height="11" viewBox="0 0 13 11" fill="none" xmlns="http://www.w3.org/2000/svg">
<path d="M10.6738 0.350702C10.8811 0.123273 11.1571 -0.00245916 11.4434 3.64524e-05C11.7297 0.00253207 12.0039 0.133061 12.2083 0.364078C12.4127 0.595096 12.5311 0.908535 12.5387 1.23825C12.5462 1.56797 12.4423 1.88819 12.2489 2.13132L6.37534 10.5935C6.27435 10.7188 6.15245 10.8194 6.01694 10.8892C5.88144 10.959 5.7351 10.9966 5.58669 10.9998C5.43828 11.0029 5.29083 10.9716 5.15318 10.9076C5.01552 10.8436 4.89048 10.7483 4.78552 10.6274L0.890455 6.14026C0.781984 6.02382 0.694982 5.8834 0.63464 5.72739C0.574297 5.57137 0.54185 5.40296 0.539234 5.23218C0.536619 5.06141 0.563888 4.89177 0.619416 4.7334C0.674944 4.57503 0.757592 4.43117 0.86243 4.31039C0.967268 4.18962 1.09215 4.09441 1.22962 4.03044C1.36709 3.96647 1.51434 3.93506 1.66258 3.93807C1.81082 3.94108 1.95702 3.97846 2.09245 4.04798C2.22788 4.11749 2.34976 4.21772 2.45084 4.34268L5.53333 7.89205L10.6458 0.388011C10.655 0.374954 10.6633 0.362498 10.6738 0.350702Z" fill="#4FA1FF"/>
</svg>
