<svg width="44" height="45" viewBox="0 0 44 45" fill="none" xmlns="http://www.w3.org/2000/svg">
<path d="M21.9987 0.833008C17.7134 0.833008 13.5244 2.10374 9.96135 4.4845C6.39829 6.86526 3.62122 10.2491 1.98132 14.2082C0.341419 18.1673 -0.0876532 22.5237 0.74836 26.7266C1.58437 30.9296 3.64792 34.7902 6.67806 37.8203C9.7082 40.8505 13.5688 42.914 17.7718 43.75C21.9747 44.586 26.3311 44.157 30.2902 42.5171C34.2492 40.8772 37.6331 38.1001 40.0139 34.537C42.3946 30.974 43.6654 26.7849 43.6654 22.4997C43.6654 19.6544 43.1049 16.8369 42.0161 14.2082C40.9272 11.5795 39.3313 9.19096 37.3194 7.17903C35.3074 5.16709 32.9189 3.57114 30.2902 2.48228C27.6615 1.39343 24.844 0.833008 21.9987 0.833008ZM31.3154 17.3213L21.4137 30.3213C21.2119 30.5835 20.9527 30.796 20.6559 30.9425C20.3592 31.089 20.0329 31.1655 19.702 31.1663C19.3729 31.1681 19.0478 31.0949 18.7512 30.9522C18.4546 30.8096 18.1944 30.6012 17.9904 30.343L12.7037 23.6047C12.5287 23.3799 12.3997 23.1229 12.3241 22.8482C12.2484 22.5736 12.2276 22.2867 12.2628 22.0041C12.298 21.7214 12.3886 21.4484 12.5293 21.2007C12.67 20.953 12.8581 20.7355 13.0829 20.5605C13.5368 20.2071 14.1126 20.0485 14.6835 20.1196C14.9662 20.1548 15.2391 20.2454 15.4868 20.3861C15.7345 20.5268 15.9521 20.7149 16.127 20.9397L19.6587 25.4463L27.8487 14.613C28.0223 14.3854 28.239 14.1942 28.4864 14.0503C28.7339 13.9064 29.0073 13.8127 29.291 13.7745C29.5746 13.7362 29.8631 13.7543 30.1398 13.8275C30.4165 13.9007 30.6761 14.0278 30.9037 14.2013C31.1313 14.3749 31.3225 14.5916 31.4664 14.8391C31.6103 15.0865 31.704 15.3599 31.7423 15.6436C31.7805 15.9273 31.7625 16.2157 31.6892 16.4924C31.616 16.7691 31.4889 17.0287 31.3154 17.2563V17.3213Z" fill="white"/>
</svg>
