<svg width="28" height="28" viewBox="0 0 28 28" fill="none" xmlns="http://www.w3.org/2000/svg">
<path d="M13.9994 0.667969C11.3623 0.667969 8.78441 1.44996 6.59175 2.91504C4.3991 4.38013 2.69013 6.46251 1.68096 8.89886C0.671793 11.3352 0.407748 14.0161 0.922218 16.6025C1.43669 19.1889 2.70656 21.5647 4.57126 23.4294C6.43597 25.2941 8.81174 26.564 11.3982 27.0784C13.9846 27.5929 16.6655 27.3289 19.1018 26.3197C21.5382 25.3105 23.6205 23.6016 25.0856 21.4089C26.5507 19.2162 27.3327 16.6384 27.3327 14.0013C27.3327 12.2503 26.9878 10.5165 26.3177 8.89886C25.6477 7.28118 24.6656 5.81133 23.4274 4.57321C22.1893 3.3351 20.7195 2.35297 19.1018 1.68291C17.4841 1.01285 15.7503 0.667969 13.9994 0.667969ZM19.7327 10.8146L13.6394 18.8146C13.5151 18.976 13.3556 19.1068 13.173 19.1969C12.9905 19.287 12.7896 19.3341 12.586 19.3346C12.3835 19.3357 12.1834 19.2907 12.0009 19.2029C11.8184 19.1151 11.6583 18.9869 11.5327 18.828L8.27936 14.6813C8.17167 14.543 8.09229 14.3848 8.04573 14.2158C7.99918 14.0468 7.98637 13.8703 8.00804 13.6963C8.02971 13.5224 8.08543 13.3544 8.17201 13.202C8.2586 13.0495 8.37436 12.9157 8.51269 12.808C8.79205 12.5905 9.14636 12.4929 9.49768 12.5367C9.67164 12.5583 9.83962 12.614 9.99204 12.7006C10.1445 12.7872 10.2783 12.903 10.386 13.0413L12.5594 15.8146L17.5994 9.14797C17.7062 9.00789 17.8395 8.89022 17.9918 8.80168C18.1441 8.71314 18.3123 8.65547 18.4869 8.63194C18.6615 8.60842 18.839 8.61951 19.0092 8.66458C19.1795 8.70965 19.3393 8.78783 19.4794 8.89464C19.6194 9.00144 19.7371 9.1348 19.8256 9.28708C19.9142 9.43936 19.9719 9.60759 19.9954 9.78217C20.0189 9.95674 20.0078 10.1342 19.9627 10.3045C19.9177 10.4748 19.8395 10.6346 19.7327 10.7746V10.8146Z" fill="#4FA1FF"/>
</svg>
