<svg width="40" height="40" fill="none" xmlns="http://www.w3.org/2000/svg"><path d="M24 38h-8l-1.102-4.96a13.982 13.982 0 01-3.638-2.1l-4.848 1.526-4-6.928 3.744-3.436a14.11 14.11 0 010-4.2l-3.744-3.438 4-6.928 4.848 1.526c1.1-.88 2.328-1.589 3.64-2.102L16 2h8l1.102 4.96a13.987 13.987 0 013.638 2.1l4.848-1.526 4 6.928-3.744 3.436c.21 1.392.21 2.808 0 4.2l3.744 3.436-4 6.928-4.848-1.526c-1.1.88-2.326 1.59-3.638 2.104L24 38z" stroke="#4FA1FF" stroke-width="3" stroke-linecap="round" stroke-linejoin="round"/><path d="M14 20l4 4 8-8" stroke="#4FA1FF" stroke-width="3" stroke-linecap="round" stroke-linejoin="round"/></svg>