<svg width="60" height="60" fill="none" xmlns="http://www.w3.org/2000/svg"><path d="M45.188 3.887L55.62 14.762v41.355H16.648v.135h39.105V14.899L45.188 3.887z" fill="#909090"/><path d="M45.059 3.75H16.516v52.365H55.62V14.762L45.059 3.75z" fill="#F4F4F4"/><path d="M16.227 6.563H4.247v12.8h37.687v-12.8H16.227z" fill="#09B024"/><path d="M42.135 19.146H4.49V6.336h37.645v12.81z" fill="#DD2025"/><path d="M16.972 8.501h-2.45v9h1.927v-3.036l.426.025a3.827 3.827 0 001.213-.22c.342-.117.656-.303.924-.545.273-.231.488-.523.628-.851a3.992 3.992 0 00.197-1.703 4.194 4.194 0 00-.214-1.207 2.2 2.2 0 00-1.288-1.22A4.184 4.184 0 0016.97 8.5m-.354 4.302h-.167v-2.775h.362a1.07 1.07 0 01.86.34c.226.302.347.67.344 1.046 0 .461 0 .88-.417 1.174-.3.165-.64.24-.982.215zm6.883-4.325c-.208 0-.41.015-.553.02l-.446.012h-1.463v9h1.721a5.017 5.017 0 001.928-.329 3.206 3.206 0 001.275-.92c.332-.412.571-.891.7-1.405a6.99 6.99 0 00.213-1.779 8.282 8.282 0 00-.163-2.113 3.332 3.332 0 00-.75-1.374 3.057 3.057 0 00-1.003-.75 4.524 4.524 0 00-1.03-.334 2.404 2.404 0 00-.427-.032m-.341 7.382h-.188V10.11h.024c.387-.045.778.025 1.126.2.254.204.461.46.607.75.157.307.248.643.266.987.017.412 0 .75 0 1.029a5.48 5.48 0 01-.062.962 3.294 3.294 0 01-.317.937 2.118 2.118 0 01-.68.675c-.232.15-.505.22-.78.2m9.525-7.341h-4.556v9h1.927v-3.57h2.438v-1.673h-2.438v-2.085h2.625V8.509" fill="#464648"/><path d="M40.84 37.978s5.977-1.083 5.977.959c0 2.041-3.703 1.21-5.978-.959zm-4.42.156c-.95.21-1.875.517-2.762.917l.75-1.688c.75-1.687 1.528-3.988 1.528-3.988a26.649 26.649 0 003.109 4.223c-.884.132-1.76.312-2.625.54v-.004zm-2.366-12.188c0-1.779.575-2.265 1.023-2.265.449 0 .953.216.97 1.761a20.225 20.225 0 01-.97 4.564 8.298 8.298 0 01-1.025-4.054l.002-.006zm-8.717 19.718c-1.834-1.097 3.845-4.474 4.875-4.583-.006.002-2.955 5.73-4.875 4.583zm23.225-6.486c-.018-.187-.187-2.263-3.88-2.175a26.675 26.675 0 00-4.6.325 23.512 23.512 0 01-3.773-4.978 22.051 22.051 0 001.168-5.813c-.054-2.25-.592-3.54-2.317-3.521-1.725.019-1.976 1.528-1.75 3.774.223 1.51.642 2.983 1.247 4.384 0 0-.796 2.48-1.85 4.948-1.054 2.468-1.774 3.761-1.774 3.761a18.042 18.042 0 00-5.11 2.625c-1.544 1.438-2.172 2.543-1.359 3.647.701.953 3.156 1.168 5.35-1.706a42.302 42.302 0 003.187-4.672s3.345-.917 4.386-1.169c1.04-.25 2.298-.45 2.298-.45s3.055 3.073 6 2.965c2.946-.109 2.804-1.76 2.785-1.94" fill="#DD2025"/><path d="M44.914 3.895v11.011h10.562L44.914 3.895z" fill="#909090"/><path d="M45.059 3.75v11.012H55.62L45.059 3.75z" fill="#F4F4F4"/><path d="M16.828 8.357h-2.451v9h1.935v-3.034l.427.024a3.83 3.83 0 001.214-.22c.341-.117.656-.303.924-.545.27-.231.484-.523.623-.851a3.994 3.994 0 00.196-1.703 4.194 4.194 0 00-.213-1.207 2.2 2.2 0 00-1.288-1.219 4.182 4.182 0 00-1.369-.246m-.355 4.302h-.166V9.883h.363a1.068 1.068 0 01.86.34c.226.301.347.668.344 1.045 0 .462 0 .88-.416 1.174-.3.165-.642.24-.983.214m6.882-4.324c-.209 0-.411.015-.554.02l-.44.012h-1.463v9h1.721a5.02 5.02 0 001.928-.328 3.207 3.207 0 001.275-.92c.332-.412.571-.892.7-1.405a6.99 6.99 0 00.213-1.78 8.286 8.286 0 00-.163-2.113 3.332 3.332 0 00-.75-1.374 3.057 3.057 0 00-1.003-.75 4.523 4.523 0 00-1.03-.334 2.404 2.404 0 00-.427-.032m-.341 7.382h-.188V9.965h.025c.386-.044.777.026 1.125.2.254.204.461.46.607.75.157.307.248.643.266.987.017.413 0 .75 0 1.03a5.48 5.48 0 01-.062.961 3.295 3.295 0 01-.316.938 2.12 2.12 0 01-.681.675c-.231.15-.505.22-.78.199m9.52-7.341H27.98v9h1.928v-3.57h2.437v-1.673h-2.437v-2.085h2.625V8.364" fill="#fff"/></svg>