<svg width="13" height="11" fill="none" xmlns="http://www.w3.org/2000/svg"><path d="M10.674.35a1.03 1.03 0 01.77-.35c.286.003.56.133.764.364.205.231.323.545.33.874.008.33-.096.65-.29.893l-5.873 8.463a1.123 1.123 0 01-.358.295.977.977 0 01-.864.018 1.107 1.107 0 01-.367-.28L.89 6.14a1.285 1.285 0 01-.255-.413 1.437 1.437 0 01-.016-.994c.056-.158.139-.302.243-.423.105-.12.23-.216.368-.28a.977.977 0 01.862.018c.136.07.258.17.359.295l3.082 3.55L10.646.387c.009-.013.017-.026.028-.037z" fill="#4FA1FF"/></svg>